{"glyphs":{"0":{"ha":649,"x_min":40,"x_max":600,"o":"m 349 700 l 276 693 q 265 707 265 693 q 303 747 265 731 q 390 764 340 764 q 539 681 478 764 q 600 439 600 597 q 524 146 600 285 q 419 35 486 78 q 268 -7 353 -7 q 95 74 150 -7 q 40 281 40 156 q 153 663 40 515 q 233 725 200 725 q 243 715 243 725 q 231 690 243 707 q 160 529 172 607 q 147 332 147 451 q 190 137 147 213 q 294 61 233 61 q 395 92 356 61 q 454 175 435 124 q 492 392 492 276 q 456 603 492 507 q 349 700 419 700 z "},"1":{"ha":435,"x_min":40,"x_max":376,"o":"m 235 699 q 329 778 282 778 q 376 592 376 778 q 367 449 376 538 q 356 321 358 360 q 348 140 356 217 q 338 49 340 63 q 326 17 335 35 q 257 -14 313 -14 q 226 53 226 -14 q 252 295 226 119 q 278 564 278 471 q 267 657 278 657 q 211 567 257 657 q 144 426 165 476 q 113 335 122 376 q 93 275 103 294 q 67 256 83 256 q 40 284 40 256 q 103 449 40 313 q 235 699 167 585 z "},"2":{"ha":576,"x_min":1,"x_max":565,"o":"m 150 632 q 163 581 150 613 q 176 533 176 550 q 165 499 176 515 q 133 482 153 482 q 101 514 114 482 q 88 578 88 546 q 158 722 88 667 q 313 778 229 778 q 456 732 396 778 q 517 610 517 686 q 488 481 517 535 q 422 393 460 426 q 310 294 385 360 q 181 169 236 229 q 319 135 231 161 q 422 110 407 110 q 519 185 474 110 q 553 225 543 225 q 565 208 565 225 q 526 106 565 169 q 454 17 486 42 q 358 -7 422 -7 q 257 39 339 -7 q 125 85 175 85 q 54 0 86 0 q 16 14 31 0 q 1 58 1 28 q 33 129 1 89 q 107 175 65 169 q 214 282 154 225 q 299 365 274 339 q 352 428 325 392 q 388 499 379 464 q 397 586 397 533 q 365 678 397 639 q 281 718 333 718 q 189 699 228 718 q 150 632 150 679 z "},"3":{"ha":561,"x_min":17,"x_max":522,"o":"m 131 683 l 138 649 q 120 638 138 638 q 91 663 103 638 q 79 719 79 689 q 100 775 79 750 q 151 800 121 800 q 264 772 182 800 q 407 743 346 744 q 465 778 436 778 q 522 694 522 778 q 488 651 522 668 q 419 635 453 635 q 358 565 399 610 q 283 479 317 519 q 350 485 317 485 q 475 419 429 485 q 521 279 521 353 q 419 63 521 140 q 181 -14 318 -14 q 70 25 124 -14 q 17 103 17 64 q 26 133 17 121 q 55 144 35 144 q 96 128 75 144 q 128 91 117 111 q 160 54 139 71 q 210 38 182 38 q 359 106 304 38 q 414 267 414 175 q 378 374 414 319 q 286 428 342 428 q 236 422 264 428 q 192 417 208 417 q 176 429 176 417 q 188 453 176 442 q 354 642 290 550 q 239 683 304 653 q 163 714 174 714 q 131 683 131 714 z "},"4":{"ha":611,"x_min":10,"x_max":572,"o":"m 332 224 l 61 208 q 24 221 38 208 q 10 248 10 233 q 47 274 10 263 q 134 489 58 310 q 216 691 210 668 q 229 744 222 714 q 242 790 236 775 q 265 822 247 806 q 304 839 283 839 q 334 821 325 839 q 343 782 343 803 q 307 674 343 729 q 210 503 271 619 q 108 281 149 386 q 248 297 175 281 q 347 317 321 313 q 400 558 368 558 q 431 538 415 558 q 447 496 447 517 l 436 325 q 531 300 490 325 q 572 246 572 275 q 526 210 572 210 q 477 217 507 210 q 426 225 447 225 q 424 44 424 167 q 402 3 424 19 q 342 -14 381 -14 q 314 32 314 -14 q 332 224 314 106 z "},"5":{"ha":543,"x_min":4,"x_max":490,"o":"m 165 483 q 296 499 214 499 q 433 433 378 499 q 489 288 489 368 q 458 146 489 208 q 381 50 428 83 q 204 -14 285 -14 q 64 22 124 -14 q 4 99 4 58 q 17 135 4 118 q 49 153 29 153 q 87 135 68 153 q 117 94 106 117 q 154 54 128 72 q 218 36 181 36 q 332 94 281 36 q 383 242 383 151 q 333 387 383 332 q 210 442 282 442 q 156 433 182 442 q 110 425 131 425 q 89 443 89 425 q 107 468 89 461 q 128 635 128 567 q 83 657 101 640 q 64 697 64 674 q 83 740 64 719 q 119 760 101 760 q 153 747 138 760 q 174 713 168 733 q 283 731 229 713 q 368 769 336 749 q 427 808 400 790 q 464 826 454 826 q 490 767 490 826 q 460 704 490 733 q 360 653 431 675 q 182 632 290 632 q 165 483 182 585 z "},"6":{"ha":621,"x_min":53,"x_max":550,"o":"m 386 778 q 506 739 461 778 q 550 635 550 700 q 538 581 550 608 q 494 553 525 553 q 453 592 453 553 q 460 620 453 601 q 468 650 468 639 q 380 724 467 724 q 233 631 293 724 q 161 365 174 539 q 358 447 229 447 q 490 388 436 447 q 543 234 543 329 q 477 63 543 139 q 297 -14 411 -14 q 53 274 53 -14 q 179 683 53 542 q 386 778 263 778 m 458 219 q 458 252 458 219 q 427 342 458 286 q 341 397 396 397 q 242 375 286 397 q 160 300 178 340 q 185 138 160 218 q 231 66 199 93 q 307 39 263 39 q 418 95 378 39 q 458 219 458 151 z "},"7":{"ha":492,"x_min":1,"x_max":507,"o":"m 232 313 q 190 305 214 313 q 153 297 167 297 q 125 319 125 297 q 260 374 125 374 q 360 613 325 518 q 196 663 296 626 q 85 699 96 699 q 56 668 56 699 q 62 641 56 657 q 68 619 68 625 q 58 608 68 608 q 19 641 36 608 q 1 704 1 674 q 21 760 1 735 q 71 785 40 785 q 215 751 101 785 q 389 715 328 717 q 419 744 397 728 q 459 760 442 760 q 492 734 476 760 q 507 667 507 708 q 478 626 507 642 q 415 607 450 611 q 329 367 383 511 q 422 363 372 363 q 471 340 471 363 q 433 319 471 322 q 310 315 421 318 q 243 132 250 156 q 231 81 236 108 q 219 36 225 53 q 193 3 213 19 q 149 -14 174 -14 q 115 4 125 -14 q 104 43 104 22 q 154 161 104 93 q 232 313 176 193 z "},"8":{"ha":563,"x_min":18,"x_max":519,"o":"m 188 753 q 234 778 222 778 q 246 766 246 778 q 219 722 246 754 q 176 615 176 671 q 294 460 176 529 q 435 626 435 549 q 410 698 435 672 q 360 724 386 724 q 311 715 333 724 q 282 707 289 707 q 269 726 269 707 q 301 762 269 746 q 381 778 333 778 q 474 747 429 778 q 518 667 518 717 q 501 590 518 615 l 476 553 q 401 486 460 528 q 333 438 342 444 q 519 199 519 329 q 440 39 519 92 q 226 -14 361 -14 q 81 25 144 -14 q 18 144 18 64 q 235 422 18 293 q 165 470 190 451 q 117 524 140 489 q 93 599 93 560 q 188 753 93 686 m 410 186 q 278 394 410 297 q 118 149 118 260 q 157 61 118 97 q 262 25 196 25 q 369 72 328 25 q 410 186 410 119 z "},"9":{"ha":594,"x_min":60,"x_max":540,"o":"m 242 38 q 341 79 300 38 q 400 189 382 121 q 433 436 433 306 q 301 731 433 731 q 201 667 244 731 q 157 526 157 604 q 194 378 157 428 q 263 347 219 347 q 351 367 307 347 q 402 386 394 386 q 410 375 410 386 q 363 322 410 349 q 238 296 315 296 q 115 361 160 296 q 69 508 69 426 q 141 697 69 615 q 311 778 213 778 q 407 757 365 778 q 473 704 449 736 q 514 628 497 672 q 540 456 540 553 q 217 -14 540 -14 q 109 22 157 -14 q 60 101 61 57 q 88 144 60 144 q 135 128 115 144 q 164 91 154 111 q 194 54 174 71 q 242 38 214 38 z "}," ":{"ha":276,"x_min":0,"x_max":0,"o":""},"!":{"ha":351,"x_min":90,"x_max":285,"o":"m 150 -25 q 110 -12 129 -25 q 91 32 90 1 q 119 80 92 63 q 169 97 146 97 q 209 84 193 97 q 225 51 225 71 q 150 -25 225 -25 m 242 806 q 269 791 254 806 q 285 756 285 776 q 282 717 285 736 q 273 673 279 699 q 259 604 267 647 q 229 418 251 561 q 197 219 207 275 q 184 196 194 207 q 163 185 174 185 q 132 239 132 185 q 136 387 132 326 q 142 500 140 447 q 156 672 143 615 q 194 767 169 728 q 242 806 218 806 z "},"\"":{"ha":344,"x_min":21,"x_max":276,"o":"m 67 806 q 108 797 96 806 q 121 758 121 788 q 106 657 121 729 q 79 556 92 585 q 53 543 72 543 q 32 558 35 543 q 21 760 21 607 q 67 806 21 806 m 222 806 q 264 797 251 806 q 276 758 276 788 q 262 657 276 729 q 235 556 247 585 q 209 543 228 543 q 188 558 190 543 q 176 760 176 607 q 222 806 176 806 z "},"#":{"ha":794,"x_min":46,"x_max":751,"o":"m 401 333 l 278 329 q 235 97 263 221 q 161 -14 207 -14 q 119 -7 140 -14 q 96 14 97 0 q 138 142 96 50 q 188 263 181 235 l 204 328 q 152 319 190 326 q 90 311 114 311 q 46 336 46 311 q 77 354 46 346 q 138 365 108 363 l 215 372 q 246 551 231 447 l 124 536 q 82 558 82 536 q 114 577 82 568 q 174 589 146 586 l 251 597 q 286 790 272 749 q 315 833 297 833 q 334 826 326 833 q 342 804 342 819 q 336 771 342 789 q 324 742 331 753 q 315 708 318 731 q 304 601 313 685 q 499 617 403 611 q 531 788 518 742 q 562 833 544 833 q 579 816 579 833 q 571 779 579 799 q 553 619 563 719 q 706 626 661 626 q 751 607 751 626 q 743 584 751 600 q 713 551 735 568 q 655 535 692 535 q 543 547 618 535 q 524 396 532 447 q 672 403 628 403 q 715 383 715 403 q 706 363 715 376 q 676 335 697 349 q 611 321 654 321 q 514 326 568 321 q 474 102 497 218 q 408 -14 450 -14 q 370 -7 389 -14 q 350 14 351 0 q 388 146 350 51 q 431 263 425 240 l 447 332 q 401 333 429 333 m 440 557 l 301 553 q 285 378 292 435 l 460 392 q 469 443 463 410 q 489 554 478 492 q 440 557 476 557 z "},"$":{"ha":668,"x_min":19,"x_max":585,"o":"m 468 638 l 475 674 q 381 749 472 746 q 369 472 378 667 q 568 321 536 383 q 585 251 585 289 q 515 86 585 150 q 343 3 446 22 q 304 -93 333 -93 q 274 -6 275 -93 q 91 33 163 -6 q 19 160 19 72 q 48 240 19 204 q 133 276 76 276 q 174 263 156 276 q 194 231 192 250 q 169 210 194 210 q 122 169 122 210 q 162 88 122 125 q 274 49 201 50 q 300 411 274 61 q 131 542 158 486 q 117 603 117 569 q 178 732 117 678 q 325 801 240 786 q 361 879 325 879 q 382 807 382 879 q 501 779 449 807 q 554 694 554 751 q 496 617 554 617 q 468 638 468 617 m 483 221 q 365 375 483 303 q 347 58 347 99 q 444 119 406 75 q 483 221 483 164 m 215 619 q 307 508 215 564 l 322 739 q 247 689 278 722 q 215 619 215 656 z "},"%":{"ha":724,"x_min":47,"x_max":668,"o":"m 71 25 q 94 73 71 46 q 163 155 117 100 q 247 276 210 210 q 456 625 375 500 q 358 604 401 608 q 306 489 353 538 q 186 440 258 440 q 81 481 114 440 q 47 576 47 521 q 86 676 47 632 q 190 721 125 721 q 201 719 197 721 q 261 739 225 739 q 324 712 297 739 q 358 643 351 685 q 490 676 419 647 q 538 742 510 706 q 604 779 567 779 q 642 751 642 779 q 593 689 642 710 q 364 325 538 664 q 161 3 213 28 q 119 -6 144 -6 q 71 25 71 -6 m 429 171 q 429 149 429 171 q 456 97 429 128 q 524 65 483 65 q 590 99 565 65 q 614 171 614 132 q 606 228 614 210 q 591 253 599 247 q 581 260 583 260 q 571 256 579 260 q 551 251 563 251 q 525 271 525 251 q 579 308 525 308 q 641 279 614 308 q 668 186 668 250 q 621 70 668 122 q 486 18 574 18 q 391 59 426 18 q 356 160 356 100 q 394 273 356 219 q 499 326 433 326 q 518 313 518 326 q 497 298 518 303 q 452 253 475 293 q 429 171 429 214 m 197 485 q 274 520 249 485 q 303 601 300 556 q 213 624 246 603 q 179 674 179 644 q 185 699 179 688 q 115 590 115 686 q 140 517 115 549 q 197 485 165 485 m 244 704 q 232 690 232 704 q 250 663 232 675 q 299 646 268 651 q 244 704 285 704 z "},"&":{"ha":739,"x_min":0,"x_max":831,"o":"m 194 433 q 124 644 124 564 q 183 788 124 725 q 337 850 243 850 q 483 809 431 850 q 536 696 536 768 q 474 564 536 624 q 358 472 408 504 q 301 436 307 440 q 535 179 396 300 q 558 272 558 229 q 542 338 558 314 q 503 365 525 363 q 482 383 482 368 q 501 414 482 403 q 559 425 521 425 q 623 394 597 425 q 649 319 649 364 q 586 136 649 222 q 769 28 683 60 q 796 19 786 22 q 814 11 806 15 q 831 -9 831 4 q 801 -40 831 -22 q 747 -57 771 -57 q 500 54 639 -57 q 260 -18 396 -18 q 63 40 125 -18 q 0 177 0 97 q 51 315 0 257 q 194 433 101 372 m 118 215 q 172 90 118 142 q 308 39 226 39 q 460 90 390 39 q 221 383 324 214 q 118 215 118 307 m 272 483 q 392 578 351 535 q 433 676 433 622 q 403 763 433 729 q 317 796 372 796 q 237 756 263 796 q 211 652 211 717 q 272 483 211 588 z "},"'":{"ha":181,"x_min":11,"x_max":111,"o":"m 57 806 q 99 797 86 806 q 111 758 111 788 q 97 657 111 729 q 69 556 82 585 q 44 543 64 543 q 22 558 25 543 q 11 760 11 607 q 57 806 11 806 z "},"(":{"ha":381,"x_min":90,"x_max":379,"o":"m 303 -64 q 312 -75 303 -64 q 331 -102 321 -86 q 342 -126 342 -118 q 325 -137 342 -133 q 294 -142 308 -142 q 224 -117 247 -142 q 123 61 156 -49 q 90 292 90 171 q 282 792 90 543 q 367 858 333 858 q 379 840 379 858 q 340 779 379 822 q 189 353 189 599 q 278 -29 189 108 q 303 -64 286 -42 z "},")":{"ha":358,"x_min":8,"x_max":297,"o":"m 84 781 q 75 792 84 781 q 56 819 67 803 q 46 842 46 835 q 63 854 46 850 q 93 858 79 858 q 164 833 140 858 q 265 656 232 765 q 297 425 297 546 q 106 -75 297 174 q 21 -142 54 -142 q 8 -124 8 -142 q 47 -62 8 -106 q 199 363 199 118 q 110 746 199 608 q 84 781 101 758 z "},"*":{"ha":518,"x_min":42,"x_max":465,"o":"m 183 444 q 136 486 136 444 q 165 540 136 506 q 201 593 193 575 q 94 582 146 582 q 42 604 43 582 q 72 621 42 621 q 221 643 163 621 q 162 706 169 700 q 140 723 154 713 q 122 737 126 733 q 108 749 118 740 q 96 764 99 758 q 86 797 86 783 q 125 829 86 829 q 153 818 142 829 q 173 796 164 807 q 189 775 182 785 q 244 701 215 743 q 266 829 263 765 q 293 893 269 893 q 314 831 314 893 q 296 682 314 768 q 339 715 308 690 q 397 757 369 740 q 444 774 424 774 q 465 741 465 774 q 432 690 465 708 q 307 628 369 653 q 344 597 315 619 q 417 522 417 546 q 400 507 417 507 q 272 588 347 507 q 262 553 269 581 q 249 512 254 525 q 233 481 243 499 q 183 444 215 444 z "},"+":{"ha":558,"x_min":69,"x_max":504,"o":"m 290 121 q 284 110 290 121 q 260 100 278 100 q 231 112 242 100 q 219 138 219 124 q 231 186 219 153 q 257 325 250 243 q 200 326 240 326 q 133 322 160 326 q 103 318 106 318 q 69 343 69 318 q 85 376 69 361 q 110 392 100 392 q 131 390 119 392 q 264 385 175 385 q 276 528 276 497 q 290 573 276 558 q 313 588 304 588 q 325 472 325 588 q 322 385 325 440 q 451 393 424 385 l 489 406 q 504 384 504 406 q 490 340 504 363 q 454 318 475 318 q 319 321 381 318 q 290 121 303 142 z "},",":{"ha":211,"x_min":22,"x_max":169,"o":"m 42 42 q 42 49 42 42 q 68 81 42 57 q 115 106 94 106 q 153 80 136 106 q 169 19 169 54 q 119 -87 169 -15 q 33 -158 68 -158 q 22 -143 22 -158 q 50 -92 22 -128 q 78 -35 78 -56 q 60 6 78 -15 q 42 42 42 26 z "},"-":{"ha":399,"x_min":-21,"x_max":339,"o":"m 339 371 q 221 275 335 275 q 165 281 203 275 q 91 288 128 288 q 33 285 54 288 q 8 282 11 282 q -20 312 -21 283 q 8 351 -19 340 q 138 361 28 361 q 280 374 249 361 q 325 386 311 386 q 339 371 339 386 z "},".":{"ha":247,"x_min":39,"x_max":174,"o":"m 99 -25 q 58 -12 78 -25 q 39 32 39 1 q 67 80 39 63 q 118 97 94 97 q 158 84 142 97 q 174 51 174 71 q 99 -25 174 -25 z "},"/":{"ha":381,"x_min":-39,"x_max":354,"o":"m 6 -210 q -4 -210 6 -210 q -26 -191 -14 -210 q -39 -151 -39 -172 q -21 -83 -39 -129 q 17 3 -3 -36 q 101 157 54 74 q 217 490 158 269 q 296 756 275 711 q 344 801 317 801 q 354 785 354 801 q 346 735 354 768 q 115 -72 219 192 q 60 -169 93 -128 q 6 -210 26 -210 z "},":":{"ha":285,"x_min":96,"x_max":231,"o":"m 156 -25 q 115 -12 135 -25 q 96 32 96 1 q 124 80 96 63 q 175 97 151 97 q 215 84 199 97 q 231 51 231 71 q 156 -25 231 -25 m 156 371 q 115 384 135 371 q 96 428 96 397 q 124 476 96 458 q 175 493 151 493 q 215 480 199 493 q 231 447 231 467 q 156 371 231 371 z "},";":{"ha":282,"x_min":75,"x_max":231,"o":"m 94 42 q 94 49 94 42 q 121 81 94 57 q 168 106 147 106 q 206 80 189 106 q 222 19 222 54 q 172 -87 222 -15 q 86 -158 121 -158 q 75 -143 75 -158 q 103 -92 75 -128 q 131 -35 131 -56 q 113 6 131 -15 q 94 42 94 26 m 156 371 q 115 384 135 371 q 96 428 96 397 q 124 476 96 458 q 175 493 151 493 q 215 480 199 493 q 231 447 231 467 q 156 371 231 371 z "},"<":{"ha":615,"x_min":51,"x_max":568,"o":"m 539 568 q 568 544 568 568 q 500 474 568 510 q 364 417 471 457 q 185 344 257 378 q 422 255 303 311 q 540 174 540 199 q 514 128 540 128 q 339 197 493 128 q 118 285 185 267 q 51 331 51 304 q 64 354 51 344 q 104 364 76 364 q 433 510 132 364 q 501 547 465 525 q 539 568 536 568 z "},"=":{"ha":710,"x_min":117,"x_max":597,"o":"m 507 192 q 380 204 456 192 q 273 217 304 217 q 220 212 242 217 q 169 207 199 207 q 117 244 117 207 q 215 285 117 285 q 307 278 263 285 q 425 265 375 265 q 549 303 488 265 q 560 307 554 307 q 567 285 567 307 q 550 227 567 263 q 507 192 533 192 m 254 399 l 153 393 q 124 423 124 394 q 153 463 125 451 q 340 472 172 472 q 538 485 507 472 q 583 497 569 497 q 597 482 597 497 q 479 386 593 386 l 254 399 z "},">":{"ha":629,"x_min":49,"x_max":568,"o":"m 78 122 q 49 146 49 122 q 117 217 49 181 q 253 273 146 233 q 432 346 360 313 q 197 431 317 371 q 76 517 76 490 q 106 568 76 568 q 273 492 124 568 q 477 403 422 415 q 550 383 532 390 q 568 364 568 376 q 553 339 568 351 q 510 325 539 326 q 183 181 481 324 q 116 144 151 165 q 78 122 81 122 z "},"?":{"ha":536,"x_min":61,"x_max":468,"o":"m 222 185 q 168 211 189 185 q 147 274 147 238 q 169 340 147 311 q 221 388 190 368 q 283 429 251 407 q 335 492 314 451 q 357 591 357 532 q 324 689 357 650 q 233 728 292 728 q 186 706 208 728 q 142 631 158 676 q 96 594 125 594 q 70 607 79 594 q 61 633 61 619 q 134 735 63 693 q 278 778 206 778 q 409 735 350 778 q 468 623 468 693 q 443 503 468 553 q 382 427 418 454 q 309 379 346 400 q 247 338 272 358 q 222 299 222 318 q 243 263 222 281 q 264 235 264 244 q 249 206 264 226 q 222 185 233 185 m 185 -25 q 144 -12 164 -25 q 126 32 125 1 q 153 80 126 63 q 204 97 181 97 q 244 84 228 97 q 260 51 260 71 q 185 -25 260 -25 z "},"@":{"ha":1010,"x_min":0,"x_max":950,"o":"m 564 15 q 554 66 554 25 q 557 185 554 107 q 483 40 518 86 q 390 -7 447 -7 q 292 45 333 -7 q 250 209 250 97 q 313 407 250 321 q 479 493 376 493 q 579 435 524 493 q 621 480 592 453 q 670 507 650 507 q 690 447 690 507 q 669 342 690 388 q 649 186 649 296 q 657 61 649 76 q 688 46 665 46 q 770 90 733 46 q 824 191 807 135 q 842 296 842 247 q 766 562 842 456 q 552 668 690 668 q 312 595 414 668 q 158 413 210 522 q 107 185 107 303 q 214 -76 107 19 q 468 -172 321 -172 q 713 -110 588 -172 q 792 -75 782 -75 q 803 -94 803 -75 q 715 -169 803 -122 q 392 -251 564 -251 q 110 -147 221 -251 q 0 132 0 -42 q 157 556 0 390 q 572 721 314 721 q 776 660 686 721 q 908 518 865 600 q 950 357 950 436 q 874 94 950 194 q 653 -7 797 -7 q 564 15 592 -7 m 471 438 q 388 380 432 438 q 344 244 344 322 q 367 117 344 167 q 428 67 390 67 q 565 304 475 67 l 571 374 q 526 417 558 396 q 471 438 494 438 z "},"A":{"ha":696,"x_min":13,"x_max":758,"o":"m 550 64 q 617 122 575 64 q 699 270 658 179 q 749 361 740 361 q 758 350 758 361 q 718 226 758 311 q 532 -7 608 -7 q 440 15 468 -7 q 428 279 428 28 l 200 263 q 153 118 174 190 q 125 29 132 46 q 51 -7 110 -7 q 13 26 13 -7 q 65 124 13 60 q 129 258 75 136 q 92 257 110 257 q 43 299 43 257 q 82 336 43 336 q 161 329 85 336 q 206 425 182 378 q 456 806 388 806 q 526 329 507 806 l 539 329 q 549 315 549 329 q 528 292 549 301 q 550 64 536 64 m 221 322 q 428 324 383 322 q 425 401 426 346 q 422 498 424 457 q 419 583 421 539 q 403 679 414 679 q 340 589 388 679 q 267 436 293 499 q 221 322 231 346 z "},"B":{"ha":703,"x_min":0,"x_max":668,"o":"m 354 36 q 487 89 429 36 q 544 210 544 142 q 501 338 544 279 q 408 314 454 314 q 301 381 301 314 q 328 416 301 400 q 403 432 354 432 q 511 403 453 432 q 567 538 567 463 q 485 685 567 631 q 311 740 404 740 q 282 739 292 740 q 275 610 281 699 q 267 203 267 476 q 251 97 267 97 q 175 114 192 97 q 158 210 158 131 q 166 369 158 229 q 174 596 174 510 q 179 722 174 682 q 100 642 106 697 q 80 578 94 596 q 41 560 65 560 q 8 573 17 560 q 0 600 0 586 q 188 767 0 721 q 263 861 211 861 q 283 783 283 861 q 373 788 319 788 q 496 767 426 788 q 617 697 565 747 q 668 583 668 646 q 556 374 668 467 q 633 228 633 313 q 581 88 633 143 q 317 -14 482 -14 q 156 1 204 -14 q 135 16 146 4 q 125 46 125 28 q 182 75 125 75 q 261 56 200 75 q 354 36 322 36 m 472 368 q 394 403 431 403 q 357 388 357 403 q 425 356 357 356 q 472 368 450 356 z "},"C":{"ha":572,"x_min":0,"x_max":660,"o":"m 569 229 q 597 278 579 243 q 651 357 642 357 q 660 346 660 357 q 589 174 660 278 q 249 -14 461 -14 q 139 14 189 -14 q 60 85 89 42 q 0 268 0 172 q 126 658 0 510 q 424 806 251 806 q 531 767 489 806 q 572 671 572 729 q 543 563 572 613 q 473 513 514 513 q 432 535 432 513 q 459 592 432 560 q 486 656 486 624 q 381 754 486 754 q 192 614 276 754 q 107 325 107 474 q 165 142 107 222 q 329 63 224 63 q 569 229 454 63 z "},"D":{"ha":908,"x_min":29,"x_max":849,"o":"m 108 499 l 117 410 q 102 388 117 396 q 78 379 88 379 q 44 410 58 379 q 29 468 29 442 q 101 642 29 571 q 282 750 172 714 q 302 840 282 797 q 365 882 322 882 q 383 831 383 882 l 383 772 q 449 778 428 778 q 741 674 633 778 q 849 414 849 571 q 810 222 849 306 q 704 90 771 139 q 385 -7 571 -7 l 356 -7 q 344 -47 351 -47 q 257 -29 279 -47 q 246 4 247 -19 q 122 81 122 39 q 132 102 122 94 q 153 110 142 110 q 246 76 165 110 q 278 701 258 440 q 155 622 201 675 q 108 499 108 569 m 411 724 q 382 722 392 724 q 368 314 376 479 q 358 43 361 99 q 417 39 386 39 q 646 137 549 39 q 743 378 743 235 q 650 622 743 521 q 411 724 557 724 z "},"E":{"ha":606,"x_min":31,"x_max":693,"o":"m 399 438 q 376 466 399 454 q 325 478 354 478 q 268 464 296 478 q 372 421 315 421 q 392 427 385 421 q 399 438 399 433 m 464 669 l 467 707 q 444 765 467 738 q 382 792 421 792 q 261 732 315 792 q 207 605 207 672 q 242 492 207 538 q 353 518 301 518 q 435 501 404 518 q 467 449 467 483 q 433 397 467 414 q 357 381 399 381 q 215 424 279 381 q 162 342 182 389 q 142 254 142 294 q 194 104 142 172 q 335 36 247 36 q 633 278 518 36 q 683 357 672 357 q 693 346 693 357 q 624 178 693 290 q 476 23 556 67 q 280 -21 396 -21 q 97 47 164 -21 q 31 217 31 115 q 70 345 31 283 q 172 451 110 407 q 107 582 107 506 q 189 760 107 688 q 388 833 271 833 q 516 794 464 833 q 568 700 568 754 q 550 650 568 669 q 504 631 532 631 q 464 669 464 631 z "},"F":{"ha":568,"x_min":11,"x_max":672,"o":"m 96 557 l 110 492 q 93 453 110 468 q 54 438 76 438 q 22 458 32 438 q 11 504 11 479 q 76 640 11 579 q 222 700 140 700 l 231 700 q 314 806 258 806 q 331 761 331 806 q 326 694 331 753 q 375 688 347 692 q 484 678 440 678 q 573 692 528 678 q 633 707 618 707 q 672 667 672 707 q 631 608 672 628 q 510 588 589 588 q 317 624 431 588 q 297 479 300 528 q 292 335 294 431 q 453 338 350 338 q 484 324 471 338 q 497 294 497 310 q 488 269 497 279 q 467 260 478 260 l 290 269 q 281 85 285 133 q 254 -6 278 36 q 199 -47 231 -47 q 159 -28 181 -47 q 138 7 138 -10 q 142 33 138 24 q 153 51 147 42 q 163 65 160 60 q 193 264 179 101 l 139 257 q 121 265 128 257 q 114 283 114 272 q 118 301 114 293 q 135 315 122 310 q 153 321 147 319 q 197 326 175 326 q 205 471 200 360 q 219 644 210 582 q 194 646 211 646 q 96 557 96 646 z "},"G":{"ha":765,"x_min":0,"x_max":839,"o":"m 676 297 q 767 340 719 310 q 826 369 814 369 q 839 353 839 369 q 819 324 839 338 q 672 247 749 274 q 542 46 643 113 q 310 -21 440 -21 q 163 8 226 -21 q 67 83 100 38 q 0 274 0 174 q 40 508 0 403 q 143 676 79 613 q 281 772 207 739 q 432 806 356 806 q 572 756 508 806 q 636 643 636 707 q 620 608 636 622 q 582 594 604 594 q 538 639 550 594 q 392 746 507 746 q 203 625 294 746 q 113 339 113 504 q 183 136 113 222 q 358 50 253 50 q 503 99 443 50 q 579 224 563 147 q 494 217 544 217 q 408 240 444 217 q 371 305 371 264 q 413 375 371 346 q 521 404 456 404 q 631 378 586 404 q 676 297 676 351 m 517 357 q 454 329 454 357 q 479 294 454 308 q 531 281 504 281 q 586 283 558 281 q 564 337 585 317 q 517 357 543 357 z "},"H":{"ha":764,"x_min":44,"x_max":778,"o":"m 93 681 q 110 620 93 647 q 126 577 126 593 q 119 549 126 561 q 99 536 111 536 q 60 576 75 536 q 44 661 44 617 q 94 781 44 728 q 219 833 143 833 q 297 784 271 833 q 322 672 322 735 q 319 555 322 610 q 313 470 315 500 q 301 376 310 440 q 290 286 293 311 q 524 399 401 286 q 570 712 540 599 q 631 871 600 825 q 697 917 661 917 q 755 885 732 917 q 778 808 778 853 q 632 454 778 644 q 624 252 624 344 q 651 73 624 160 q 678 -24 678 -14 q 663 -41 678 -35 q 629 -47 647 -47 q 550 -22 581 -47 q 525 63 535 -10 q 515 198 515 135 q 519 335 515 261 q 285 225 396 229 q 282 160 283 206 q 278 94 281 115 q 267 44 275 72 q 200 -7 253 -7 q 168 48 168 -7 q 185 239 168 103 q 122 332 122 265 q 147 415 122 381 q 208 449 172 449 q 221 646 221 576 q 182 771 221 771 q 93 681 93 771 m 733 785 q 727 823 733 806 q 711 840 721 840 q 640 539 672 840 q 733 785 733 681 m 204 404 q 185 367 185 390 q 196 328 185 343 l 204 404 z "},"I":{"ha":596,"x_min":38,"x_max":610,"o":"m 515 697 l 521 439 q 201 -28 521 -28 q 88 1 139 -28 q 38 92 38 31 q 57 153 38 129 q 109 178 76 178 q 142 163 142 178 q 133 135 142 156 q 125 95 125 115 q 149 52 125 75 q 219 29 172 29 q 301 49 267 29 q 357 106 336 68 q 391 185 378 144 q 410 286 404 225 q 418 491 418 376 q 421 681 418 606 q 243 528 243 650 q 228 474 243 493 q 192 454 214 454 q 150 501 150 454 q 224 643 150 586 q 426 728 299 700 q 474 820 436 785 q 542 856 511 856 q 591 838 572 856 q 610 792 610 821 q 515 697 610 724 m 553 808 q 517 746 522 808 q 567 786 567 761 q 553 808 567 808 z "},"J":{"ha":576,"x_min":0,"x_max":653,"o":"m 108 501 q 182 643 108 586 q 382 728 256 700 q 429 821 390 786 q 499 856 468 856 q 549 838 531 856 q 568 792 568 821 q 472 697 568 724 q 451 299 451 308 q 549 344 493 322 q 629 365 606 365 q 653 356 653 365 q 636 332 653 338 q 450 244 546 303 q 436 -108 439 -50 q 364 -358 426 -272 q 190 -444 301 -444 q 51 -373 103 -444 q 0 -215 0 -301 q 86 16 0 -93 q 349 240 172 125 l 378 679 q 201 528 201 649 q 187 474 201 493 q 150 454 172 454 q 108 501 108 454 m 210 -394 q 321 -185 304 -394 q 335 25 329 -79 q 344 174 342 129 q 253 105 288 133 q 178 33 218 76 q 101 -175 101 -53 q 142 -356 101 -293 q 210 -394 168 -394 m 511 808 q 475 746 481 808 q 525 786 525 761 q 511 808 525 808 z "},"K":{"ha":907,"x_min":0,"x_max":925,"o":"m 857 -46 l 913 -40 q 925 -51 925 -40 q 881 -104 922 -76 q 786 -132 840 -132 q 664 -1 728 -132 q 551 256 608 108 q 468 226 511 233 q 168 -56 407 -56 q 53 -26 106 -56 q 0 64 0 3 q 19 126 0 101 q 72 150 39 150 q 104 135 104 150 q 96 108 104 128 q 88 67 88 88 q 111 24 88 47 q 182 1 135 1 q 264 23 229 1 q 319 86 299 44 q 353 171 340 128 q 372 278 367 214 q 382 489 382 369 q 385 681 382 608 q 207 528 207 650 q 192 474 207 493 q 156 454 178 454 q 114 501 114 454 q 189 642 114 585 q 389 728 264 700 q 438 819 399 783 q 509 856 478 856 q 559 838 540 856 q 578 792 578 821 q 483 697 578 724 l 489 439 q 479 289 489 358 q 618 415 550 311 q 735 681 686 519 q 861 806 772 806 q 899 760 899 806 q 843 678 899 715 q 819 658 822 664 q 621 314 711 410 q 763 44 708 135 q 857 -46 818 -46 m 521 808 q 485 746 492 808 q 535 786 535 761 q 521 808 535 808 z "},"L":{"ha":669,"x_min":19,"x_max":676,"o":"m 279 493 q 370 724 299 643 q 558 806 442 806 q 675 725 675 806 q 649 626 675 671 q 581 550 624 581 q 382 468 496 493 q 300 126 354 229 q 472 72 428 83 q 566 60 517 60 q 633 100 615 60 q 660 140 651 140 q 676 119 676 140 q 628 8 676 54 q 522 -37 579 -37 q 417 -18 464 -37 q 357 7 369 1 q 306 31 344 13 q 253 56 268 49 q 111 0 200 0 q 47 26 75 0 q 19 89 19 53 q 110 168 19 168 q 218 150 149 168 q 274 453 244 233 q 233 451 258 451 q 207 460 207 451 q 279 493 207 486 m 386 508 q 533 574 475 528 q 590 696 590 621 q 539 771 590 771 q 386 508 426 771 m 186 85 q 87 119 106 119 q 68 100 68 119 q 85 67 68 81 q 131 53 103 53 q 186 85 158 53 z "},"M":{"ha":904,"x_min":0,"x_max":944,"o":"m 710 290 q 710 177 710 290 q 735 64 710 64 q 802 122 760 64 q 885 270 844 179 q 935 361 926 361 q 944 350 944 361 q 897 208 944 311 q 715 -7 796 -7 q 660 1 685 -7 q 629 15 635 8 q 615 138 615 32 q 632 543 615 388 q 485 363 551 464 q 514 170 514 251 q 483 44 514 89 q 404 0 451 0 q 347 110 347 0 q 407 308 347 185 q 326 499 379 406 q 258 240 304 372 q 164 44 213 108 q 49 -21 115 -21 q 0 17 0 -21 q 21 60 0 47 q 70 78 42 72 q 107 93 99 85 q 209 288 161 150 q 279 569 257 425 q 219 685 219 647 q 240 753 219 724 q 306 782 260 782 q 329 747 319 782 q 339 672 339 711 q 468 417 424 549 q 646 653 546 544 q 746 915 689 915 q 787 886 765 915 q 808 826 808 857 q 726 635 808 732 q 710 290 710 517 m 421 249 q 388 117 388 175 q 401 60 388 60 q 422 94 415 60 q 429 165 429 128 q 421 249 429 203 z "},"N":{"ha":690,"x_min":0,"x_max":806,"o":"m 311 513 q 249 238 289 371 q 163 42 210 104 q 49 -21 115 -21 q 0 17 0 -21 q 21 60 0 47 q 70 78 42 72 q 107 93 99 85 q 202 287 158 147 q 265 571 246 426 q 206 672 206 633 q 228 762 206 711 q 281 813 250 813 q 313 768 299 813 q 326 657 326 724 q 439 499 399 565 q 557 737 482 640 q 729 833 632 833 q 785 808 764 833 q 806 753 806 783 q 794 698 806 722 q 763 674 782 674 q 743 693 743 674 q 731 723 743 713 q 701 733 719 733 q 594 674 644 733 q 476 432 524 589 q 568 113 568 235 q 546 24 568 63 q 481 -14 524 -14 q 389 142 389 -14 q 406 350 389 251 q 311 513 364 439 m 439 258 q 432 156 432 208 q 439 74 432 103 q 454 44 446 44 q 471 101 471 44 q 439 258 471 158 z "},"O":{"ha":814,"x_min":29,"x_max":894,"o":"m 29 310 q 65 494 29 403 q 167 644 100 585 q 253 791 183 735 q 454 847 324 847 q 663 745 585 847 q 742 479 742 643 q 710 276 742 372 q 826 333 774 299 q 879 367 878 367 q 894 349 894 367 q 828 290 894 333 q 690 228 761 246 q 544 51 639 115 q 316 -14 450 -14 q 106 76 182 -14 q 29 310 29 165 m 615 260 q 633 399 633 322 q 572 676 633 563 q 396 790 510 790 q 299 763 347 790 q 231 690 251 736 q 377 731 303 731 q 451 710 451 731 q 442 690 451 697 q 422 683 432 683 q 219 603 303 683 q 344 360 231 461 q 615 260 457 260 m 368 57 q 600 214 535 57 q 310 301 433 214 q 165 531 188 389 q 126 365 126 457 q 197 148 126 239 q 368 57 267 57 z "},"P":{"ha":768,"x_min":22,"x_max":749,"o":"m 404 804 q 449 806 413 806 q 538 792 486 806 q 640 749 590 779 q 719 662 689 719 q 749 525 749 604 q 647 314 749 394 q 379 233 546 233 q 283 -37 379 -37 q 219 17 219 -37 q 236 63 219 33 q 260 129 253 92 q 271 250 267 167 q 214 300 214 268 q 243 332 214 332 q 274 328 258 332 q 299 738 292 699 q 167 674 219 718 q 115 568 115 629 q 101 514 115 533 q 64 494 86 494 q 22 542 22 494 q 105 702 22 635 q 311 793 188 769 q 385 882 338 882 q 404 804 404 882 m 644 486 q 573 677 644 611 q 400 747 501 743 q 379 285 379 501 q 410 282 399 282 q 585 342 526 282 q 644 486 644 401 z "},"Q":{"ha":832,"x_min":50,"x_max":771,"o":"m 475 822 q 688 735 610 822 q 765 493 765 647 q 699 213 765 339 q 515 26 633 86 q 600 -26 575 -26 q 719 42 674 -26 q 757 76 743 76 q 771 63 771 76 q 747 -7 771 29 q 554 -115 678 -115 q 407 -7 500 -115 q 336 -14 368 -14 q 130 78 210 -14 q 50 301 50 169 q 150 656 50 504 q 283 777 199 732 q 475 822 367 822 m 438 758 q 219 649 289 758 q 149 358 149 539 q 179 218 149 283 q 258 110 210 153 q 342 150 299 150 q 471 69 385 150 q 608 190 561 99 q 656 421 656 281 q 594 660 656 561 q 438 758 533 758 z "},"R":{"ha":811,"x_min":0,"x_max":833,"o":"m 765 -60 l 811 -49 q 833 -71 833 -49 q 797 -135 832 -107 q 717 -164 761 -164 q 646 -121 672 -164 q 575 103 608 -58 q 539 231 560 181 q 460 218 501 218 q 387 235 418 218 q 356 278 356 253 q 458 342 358 342 q 563 299 507 342 q 649 481 649 364 q 622 603 649 550 q 553 688 596 657 q 364 747 468 747 q 354 650 361 717 q 338 435 340 511 l 333 215 q 233 -37 333 -37 q 169 17 169 -37 q 188 64 169 31 q 215 141 207 97 q 233 398 224 185 q 260 733 243 611 q 140 669 186 713 q 93 568 93 626 q 78 515 93 535 q 40 494 63 494 q 0 538 0 494 q 78 698 0 635 q 272 789 157 761 q 350 882 300 882 q 369 838 369 882 q 367 803 369 828 q 425 806 382 806 q 522 793 468 806 q 631 751 576 781 q 719 660 686 721 q 753 519 753 600 q 711 369 753 439 q 603 258 669 300 q 677 115 650 200 q 728 -15 704 31 q 765 -60 751 -60 m 413 294 q 413 289 413 294 q 432 275 413 283 q 473 267 451 267 q 513 274 494 267 q 449 306 485 306 q 413 294 413 306 z "},"S":{"ha":665,"x_min":17,"x_max":586,"o":"m 463 638 l 469 674 q 368 749 464 749 q 272 709 313 749 q 231 626 231 669 q 267 549 231 582 q 356 491 304 517 q 460 435 408 465 q 549 358 513 406 q 586 251 586 311 q 489 57 586 128 q 279 -14 392 -14 q 92 27 167 -14 q 17 151 17 68 q 47 232 17 196 q 135 268 78 268 q 175 256 157 268 q 197 222 193 243 q 172 201 197 201 q 125 161 125 201 q 169 78 126 115 q 288 40 211 40 q 420 93 365 40 q 475 221 475 146 q 438 311 475 271 q 347 380 400 351 q 241 438 294 408 q 150 508 188 467 q 113 603 113 550 q 192 751 113 696 q 374 807 272 807 q 497 779 442 807 q 554 694 553 751 q 538 639 554 661 q 492 617 521 617 q 463 638 464 617 z "},"T":{"ha":583,"x_min":15,"x_max":896,"o":"m 426 453 l 426 689 q 350 706 400 694 q 274 724 300 718 q 149 740 194 740 q 61 692 61 740 q 98 600 61 638 q 164 563 135 563 q 216 578 193 563 q 257 593 239 593 q 281 569 281 593 q 259 529 281 544 q 192 514 238 514 q 67 578 118 514 q 15 708 15 642 q 46 808 15 775 q 122 842 76 842 q 436 775 228 842 q 499 863 453 863 q 519 749 519 863 q 751 707 654 707 q 861 747 814 707 q 885 758 875 758 q 896 749 896 758 q 840 681 896 711 q 707 651 785 651 q 519 671 629 651 q 522 407 522 479 q 517 283 522 335 q 496 176 513 232 q 452 81 479 119 q 377 18 425 43 q 266 -7 329 -7 q 152 22 203 -7 q 101 113 101 51 q 121 174 101 150 q 173 199 140 199 q 206 183 206 199 q 197 156 206 176 q 189 116 189 136 q 215 72 189 96 q 289 49 240 49 q 426 453 426 49 z "},"U":{"ha":707,"x_min":0,"x_max":783,"o":"m 576 64 q 642 122 600 64 q 724 270 683 179 q 774 361 765 361 q 783 350 783 361 q 743 226 783 311 q 560 -7 633 -7 q 469 14 496 -7 q 458 68 458 25 q 465 201 458 111 q 353 52 413 111 q 237 -7 294 -7 q 143 55 179 -7 q 107 222 107 117 q 128 484 107 326 q 149 718 149 642 q 139 738 149 738 q 88 705 117 738 q 50 604 60 672 q 38 577 49 589 q 17 565 28 565 q 0 593 0 565 q 28 672 0 621 q 101 764 56 722 q 189 806 146 806 q 238 726 239 806 q 221 493 238 646 q 204 264 204 340 q 276 69 204 69 q 374 136 318 69 q 472 292 429 203 q 513 732 500 647 q 556 775 515 744 q 617 806 596 806 q 639 725 639 806 q 629 619 639 664 q 605 515 619 575 q 583 426 590 456 q 569 101 569 240 q 576 64 569 64 z "},"V":{"ha":704,"x_min":25,"x_max":672,"o":"m 325 -28 q 168 72 210 -28 q 122 244 139 140 q 67 180 81 197 q 42 163 53 163 q 25 176 25 163 q 33 193 25 185 q 117 282 82 242 q 106 451 106 361 q 122 619 106 540 q 178 752 139 699 q 276 806 218 806 q 347 685 347 806 q 222 364 347 529 q 271 129 232 239 q 305 63 286 85 q 358 42 324 42 q 434 88 392 42 q 513 209 476 135 q 574 388 549 283 q 599 607 599 493 q 582 767 599 721 q 525 851 565 814 q 472 939 472 896 q 490 976 472 960 q 525 992 507 992 q 602 963 571 992 q 647 883 633 933 q 672 692 672 796 q 619 326 672 496 q 485 65 565 157 q 325 -28 406 -28 m 294 667 q 278 740 294 740 q 253 707 267 740 q 228 614 239 674 q 217 497 217 554 q 218 417 217 440 q 294 667 294 544 z "},"W":{"ha":957,"x_min":0,"x_max":924,"o":"m 628 667 l 619 564 q 644 222 619 369 q 704 74 669 74 q 808 206 751 74 q 865 469 865 338 q 833 675 865 621 q 794 721 821 694 q 746 814 746 769 q 758 848 746 835 q 786 861 769 861 q 858 827 829 861 q 900 739 888 793 q 924 536 924 643 q 831 133 924 288 q 650 -21 739 -21 q 555 115 586 -21 q 524 461 524 251 q 347 22 440 114 q 249 -21 301 -21 q 194 3 221 -21 q 154 68 167 28 q 126 381 126 150 q 22 411 68 389 q 0 436 0 422 q 28 450 0 450 l 128 429 q 218 800 140 669 q 311 871 260 871 q 404 732 404 871 q 361 517 404 619 q 232 386 318 414 q 243 219 232 293 q 297 74 265 74 q 367 153 324 74 q 451 369 410 233 q 504 638 492 506 q 542 682 506 657 q 592 707 578 707 q 628 667 628 707 m 232 429 q 324 542 292 453 q 357 684 357 632 q 353 761 357 736 q 326 804 343 804 q 266 677 296 804 q 232 429 236 550 z "},"X":{"ha":728,"x_min":36,"x_max":789,"o":"m 563 -28 q 469 27 510 -28 q 346 263 429 82 q 106 -28 167 -28 q 36 13 36 -28 q 69 67 36 35 q 176 172 103 100 q 315 331 250 244 q 206 525 256 450 q 133 361 204 522 q 97 325 119 325 q 82 344 82 325 q 97 394 82 364 q 176 569 142 474 q 133 657 133 639 q 149 776 133 718 q 193 833 164 833 q 260 718 260 833 q 392 440 279 679 q 474 581 422 478 q 569 759 525 685 q 649 833 614 833 q 683 804 683 833 q 672 747 683 768 q 633 703 660 726 q 592 658 607 679 q 419 382 514 546 q 590 85 560 85 q 746 325 638 85 q 775 363 763 363 q 784 355 779 363 q 789 336 789 347 q 703 125 786 278 q 563 -28 619 -28 z "},"Y":{"ha":721,"x_min":8,"x_max":721,"o":"m 157 718 q 147 738 157 738 q 97 705 125 738 q 58 604 68 672 q 47 577 57 589 q 25 565 36 565 q 8 593 8 565 q 36 672 8 621 q 109 764 64 722 q 197 806 154 806 q 247 726 247 806 q 229 493 246 646 q 213 264 213 340 q 285 69 213 69 q 408 168 338 69 q 514 369 478 267 q 557 760 542 672 q 600 803 560 772 q 662 833 640 833 q 683 768 683 833 q 669 636 683 692 q 622 454 632 493 q 599 139 606 343 q 704 171 660 171 q 721 159 721 171 q 704 140 721 147 q 596 89 647 122 q 553 -333 596 -221 q 372 -444 511 -444 q 219 -315 219 -444 q 294 -119 219 -219 q 493 71 368 -18 q 504 258 497 158 q 380 71 449 149 q 249 -7 311 -7 q 151 55 188 -7 q 115 222 115 117 q 136 484 115 326 q 157 718 157 642 m 489 13 q 362 -127 410 -46 q 314 -270 314 -208 q 338 -363 314 -332 q 392 -394 361 -394 q 458 -302 435 -394 q 489 13 481 -210 z "},"Z":{"ha":696,"x_min":40,"x_max":781,"o":"m 713 703 q 713 683 713 703 q 681 633 713 663 q 605 604 649 604 q 504 631 561 604 q 215 174 354 450 q 408 124 282 164 q 549 83 533 83 q 719 282 628 83 q 772 361 756 361 q 781 344 781 361 q 733 220 781 326 q 655 63 686 114 q 589 -12 624 11 q 486 -35 554 -35 q 344 25 453 -35 q 181 85 236 85 q 100 0 138 0 q 40 53 40 0 q 69 115 40 76 q 135 169 97 153 q 469 649 307 464 q 199 750 292 750 q 164 690 164 750 q 172 642 164 674 q 181 606 181 611 q 165 589 181 589 q 131 637 149 589 q 114 736 114 685 q 135 824 114 788 q 190 861 156 861 q 260 853 224 861 q 322 835 296 844 q 384 805 349 825 q 436 775 419 785 q 528 711 497 733 q 642 781 600 781 q 691 763 669 781 q 713 703 713 744 m 639 704 q 617 724 639 724 q 560 692 594 724 q 597 679 583 679 q 639 704 639 679 z "},"[":{"ha":517,"x_min":104,"x_max":492,"o":"m 449 765 l 350 771 q 254 763 263 771 q 233 686 233 742 q 217 277 233 554 q 200 -55 200 0 q 207 -119 200 -110 q 281 -129 214 -129 q 390 -118 347 -129 q 451 -107 432 -107 q 478 -114 471 -107 q 485 -128 485 -121 q 453 -161 485 -150 q 276 -181 397 -181 q 121 -165 156 -181 q 104 -117 104 -158 q 124 289 104 28 q 144 640 144 550 q 201 826 144 826 l 315 819 l 458 826 q 481 815 471 826 q 492 789 492 804 q 449 765 492 765 z "},"\\":{"ha":381,"x_min":0,"x_max":393,"o":"m 372 -74 q 382 -101 372 -74 q 393 -151 393 -129 q 381 -191 393 -172 q 348 -210 368 -210 q 294 -169 328 -210 q 239 -72 261 -128 q 8 735 135 192 q 0 785 0 768 q 10 801 0 801 q 58 756 38 801 q 138 490 79 711 q 253 157 196 269 q 372 -74 350 -18 z "},"]":{"ha":467,"x_min":7,"x_max":375,"o":"m 40 -119 l 150 -133 q 237 -115 218 -133 q 256 -40 256 -96 q 274 369 256 92 q 292 703 292 646 q 283 773 292 761 q 222 785 275 785 q 138 771 169 785 q 88 757 106 757 q 51 782 51 757 q 87 814 51 801 q 223 826 122 826 q 358 811 324 826 q 375 763 375 804 q 366 358 375 619 q 357 -25 357 97 q 311 -162 357 -147 q 253 -173 299 -167 q 153 -179 207 -179 q 31 -171 100 -179 q 7 -140 7 -168 q 40 -119 7 -119 z "},"^":{"ha":744,"x_min":83,"x_max":601,"o":"m 589 613 q 601 597 601 606 q 581 574 601 589 q 543 560 560 560 q 433 610 497 560 q 329 769 368 661 q 228 613 293 676 q 133 549 164 549 q 83 572 88 549 q 105 594 83 582 q 151 626 126 606 q 206 678 176 647 q 244 726 235 710 q 272 778 254 743 q 301 833 289 813 q 333 868 313 853 q 368 883 353 883 q 402 840 390 883 q 422 776 414 797 q 518 656 442 722 q 589 613 535 640 z "},"_":{"ha":639,"x_min":-1,"x_max":614,"o":"m 194 -133 l 28 -140 q -1 -112 -1 -140 q 13 -74 -1 -94 q 40 -54 26 -54 q 81 -58 42 -54 q 356 -71 194 -71 q 553 -56 517 -71 q 601 -40 589 -40 q 614 -60 614 -40 q 594 -112 614 -81 q 556 -144 575 -144 q 361 -139 472 -144 q 194 -133 250 -133 z "},"`":{"ha":478,"x_min":126,"x_max":351,"o":"m 201 766 q 206 758 201 766 q 222 725 211 750 q 238 692 232 700 q 248 677 243 683 q 257 667 253 671 q 268 658 261 663 q 279 650 275 653 q 292 642 283 647 q 305 636 301 638 q 319 629 308 635 l 333 622 q 351 599 351 614 q 327 578 351 578 q 264 591 303 578 q 196 624 225 604 q 126 724 126 671 q 149 760 126 739 q 181 782 171 782 q 201 766 192 782 z "},"a":{"ha":532,"x_min":0,"x_max":615,"o":"m 390 -7 q 308 15 336 -7 q 299 65 299 25 q 301 171 299 104 q 230 37 265 81 q 139 -7 194 -7 q 42 45 83 -7 q 0 209 0 97 q 63 407 0 321 q 229 493 126 493 q 329 435 274 493 q 369 472 340 450 q 417 493 397 493 q 438 440 438 493 q 430 386 438 426 q 413 328 422 346 q 400 101 400 296 q 408 64 400 64 q 474 123 432 65 q 556 271 515 181 q 606 361 597 361 q 615 350 615 361 q 575 226 615 311 q 390 -7 465 -7 m 221 438 q 138 380 182 438 q 94 244 94 322 q 117 117 94 167 q 178 67 140 67 q 313 296 224 67 q 316 334 314 307 q 319 375 318 361 q 276 417 307 397 q 221 438 244 438 z "},"b":{"ha":497,"x_min":0,"x_max":564,"o":"m 260 479 q 365 433 324 479 q 408 303 407 386 q 509 343 465 319 q 556 367 553 367 q 564 353 564 367 q 524 310 564 339 q 406 251 485 281 q 306 60 389 128 q 139 -7 222 -7 q 28 55 56 -7 q 0 250 0 117 q 19 503 0 383 q 69 691 39 622 q 133 797 100 760 q 194 833 165 833 q 220 800 208 833 q 232 718 232 767 q 193 468 232 611 q 260 479 219 479 m 322 229 q 276 228 311 228 q 198 252 240 228 q 140 319 156 276 q 108 253 126 285 q 125 101 111 147 q 169 56 139 56 q 265 97 218 56 q 322 229 311 138 m 199 693 q 183 751 199 751 q 153 691 171 751 q 122 527 136 631 q 107 322 107 424 q 199 693 199 582 m 238 429 q 206 417 218 429 q 194 386 194 406 q 233 315 194 343 q 325 286 271 286 q 303 386 324 343 q 238 429 282 429 z "},"c":{"ha":397,"x_min":0,"x_max":475,"o":"m 249 338 l 260 408 q 250 436 260 424 q 225 449 240 449 q 136 372 174 449 q 99 224 99 294 q 128 109 99 153 q 199 65 157 65 q 275 85 242 65 q 336 140 308 104 q 436 314 394 217 q 453 350 447 339 q 467 361 460 361 q 475 350 475 361 q 443 240 475 304 q 390 142 411 176 q 335 71 368 108 q 161 -7 265 -7 q 41 49 82 -7 q 0 169 0 106 q 69 410 0 328 q 243 493 138 493 q 313 470 288 493 q 339 418 339 447 q 319 338 339 364 q 272 311 300 311 q 249 338 249 311 z "},"d":{"ha":547,"x_min":0,"x_max":622,"o":"m 396 -7 q 322 14 349 -7 q 311 72 311 25 q 315 196 311 119 q 239 44 278 96 q 141 -7 200 -7 q 41 44 82 -7 q 0 208 0 96 q 63 407 0 321 q 229 493 126 493 q 333 454 279 493 q 374 760 356 725 q 413 804 382 775 q 465 833 444 833 q 486 768 486 833 q 472 636 486 692 q 425 454 435 493 q 406 101 406 304 q 414 64 406 64 q 481 122 439 65 q 563 270 522 179 q 613 361 604 361 q 622 350 622 361 q 582 226 622 311 q 396 -7 472 -7 m 221 443 q 146 383 183 443 q 108 245 108 324 q 128 117 108 167 q 179 67 149 67 q 322 317 242 67 q 329 407 329 393 q 221 443 289 443 z "},"e":{"ha":407,"x_min":0,"x_max":481,"o":"m 169 -7 q 46 52 92 -7 q 0 186 0 111 q 64 415 0 338 q 229 493 128 493 q 307 467 276 493 q 338 397 338 442 q 267 258 338 314 q 96 199 197 201 q 133 105 101 144 q 206 65 164 65 q 281 85 247 65 q 342 140 314 104 q 442 314 400 217 q 459 350 453 339 q 473 361 465 361 q 481 350 481 361 q 396 142 481 281 q 169 -7 304 -7 m 96 232 q 216 285 178 246 q 254 386 254 324 q 214 449 254 449 q 132 381 165 449 q 96 232 99 314 z "},"f":{"ha":315,"x_min":-28,"x_max":394,"o":"m 207 293 q 333 339 282 311 q 386 367 383 367 q 394 353 394 367 q 367 318 394 339 q 221 244 308 275 q 257 -47 257 107 q 228 -294 257 -176 q 176 -403 211 -361 q 89 -444 140 -444 q 28 -406 44 -444 q 4 -318 7 -360 q 0 -106 0 -253 q 22 250 0 42 q -28 338 -28 286 q -6 419 -28 390 q 50 456 17 447 q 88 664 69 576 q 146 806 107 751 q 224 861 185 861 q 268 763 268 861 q 153 413 268 607 q 207 293 182 371 m 110 224 q 97 -169 97 53 q 121 -390 97 -390 q 190 -281 163 -390 q 218 -37 218 -172 q 188 235 218 99 q 110 224 146 224 m 131 432 q 204 590 171 499 q 238 742 238 681 q 225 803 238 803 q 177 701 203 803 q 131 432 151 600 m 131 376 l 122 363 l 115 292 q 148 286 133 286 q 172 288 163 286 q 131 376 154 342 m 44 421 q 24 389 24 414 q 35 346 24 364 q 44 421 40 396 z "},"g":{"ha":517,"x_min":0,"x_max":582,"o":"m 318 213 q 238 46 275 99 q 142 -7 201 -7 q 41 44 82 -7 q 0 208 0 96 q 63 407 0 321 q 229 493 126 493 q 279 476 250 493 q 331 433 308 458 q 371 477 335 447 q 427 507 407 507 q 447 447 447 507 q 422 342 447 388 q 407 169 408 249 q 552 351 543 342 q 568 361 561 361 q 582 347 582 361 q 576 329 582 339 q 401 100 532 264 q 390 -125 393 -65 q 341 -373 383 -301 q 190 -444 299 -444 q 102 -416 143 -444 q 61 -317 61 -387 q 115 -174 61 -247 q 310 53 168 -100 l 318 213 m 221 443 q 138 383 182 443 q 94 244 94 322 q 117 116 94 165 q 175 67 140 67 q 242 124 210 67 q 324 319 274 181 q 326 379 326 367 q 281 422 315 400 q 221 443 246 443 m 306 -12 q 147 -286 147 -183 q 164 -364 147 -333 q 210 -394 181 -394 q 272 -346 254 -394 q 299 -149 290 -297 l 306 -12 z "},"h":{"ha":515,"x_min":0,"x_max":597,"o":"m 115 75 l 117 32 q 94 -7 117 -7 q 31 2 61 -7 q 0 27 0 11 q 8 137 0 43 q 15 278 15 231 l 15 358 q 142 811 15 714 q 201 833 171 833 q 229 803 215 833 q 243 724 243 772 q 203 500 243 604 q 121 340 163 396 q 119 232 119 306 q 178 326 125 240 q 267 453 231 413 q 333 493 304 493 q 385 474 363 493 q 408 425 408 454 q 395 245 408 364 q 382 95 382 126 q 390 64 382 64 q 456 123 414 65 q 538 271 497 181 q 588 361 579 361 q 597 350 597 361 q 557 226 597 311 q 372 -7 447 -7 q 290 15 318 -7 q 281 66 281 25 q 288 199 281 107 q 296 338 296 292 q 280 383 296 383 q 196 288 264 383 q 124 167 128 193 q 115 75 115 118 m 206 693 q 190 751 206 751 q 142 597 165 751 q 124 407 129 515 q 206 693 206 578 z "},"i":{"ha":243,"x_min":0,"x_max":317,"o":"m 51 679 q 78 722 51 704 q 125 740 104 740 q 163 697 163 740 q 140 623 163 654 q 78 592 118 592 q 51 679 51 592 m 92 -7 q 10 15 38 -7 q 0 85 0 25 q 9 284 0 144 q 25 435 18 424 q 68 476 32 446 q 124 507 104 507 q 144 454 144 507 q 137 400 144 440 q 119 342 129 360 q 101 101 101 296 q 110 64 101 64 q 175 123 133 65 q 258 271 217 181 q 308 361 299 361 q 317 350 317 361 q 276 226 317 311 q 92 -7 167 -7 z "},"j":{"ha":233,"x_min":-226,"x_max":294,"o":"m 22 53 q 42 431 40 417 q 82 476 44 444 q 140 507 119 507 q 160 447 160 507 q 135 342 160 388 q 119 169 122 236 q 265 351 256 342 q 281 361 274 361 q 294 347 294 361 q 289 329 294 339 q 114 100 244 264 q 103 -125 106 -65 q 53 -373 96 -301 q -97 -444 11 -444 q -185 -416 -144 -444 q -226 -327 -226 -387 q -198 -211 -226 -267 q -138 -119 -169 -156 q -52 -26 -107 -83 q 22 53 3 31 m 18 -12 q -140 -286 -140 -183 q -124 -364 -140 -333 q -78 -394 -107 -394 q -15 -346 -33 -394 q 11 -149 3 -297 l 18 -12 m 65 679 q 92 722 65 704 q 139 740 118 740 q 176 697 176 740 q 154 623 176 654 q 92 592 132 592 q 65 679 65 592 z "},"k":{"ha":476,"x_min":0,"x_max":496,"o":"m 447 -49 l 485 -44 q 496 -56 496 -44 q 469 -85 496 -75 q 410 -94 443 -94 q 305 -44 347 -94 q 188 140 263 6 q 169 185 169 169 q 228 233 169 206 q 322 356 322 282 q 308 391 322 376 q 269 406 293 406 q 190 327 236 406 q 128 180 144 249 q 113 32 113 111 q 90 -7 113 -7 q 29 2 58 -7 q 0 26 0 11 q 11 158 0 40 q 24 326 22 275 q 57 760 29 610 q 95 803 61 772 q 150 833 129 833 q 170 781 171 833 q 147 558 169 729 q 119 246 125 388 q 199 414 144 335 q 310 493 254 493 q 404 401 404 493 q 368 291 404 340 q 271 211 332 242 q 258 199 258 206 q 263 185 258 192 q 411 -32 350 31 q 447 -49 428 -49 z "},"l":{"ha":243,"x_min":0,"x_max":326,"o":"m 101 -7 q 45 1 71 -7 q 14 15 19 8 q 0 188 0 32 q 35 613 0 344 q 171 833 64 833 q 207 806 196 833 q 218 754 218 779 q 108 350 218 574 q 104 149 104 235 q 119 64 104 64 q 185 123 143 65 q 267 271 226 181 q 317 361 308 361 q 326 350 326 361 q 286 226 326 311 q 101 -7 176 -7 m 183 742 q 172 786 183 786 q 111 440 131 786 q 183 742 183 631 z "},"m":{"ha":753,"x_min":0,"x_max":836,"o":"m 115 75 l 117 32 q 94 -7 117 -7 q 31 2 61 -7 q 0 27 0 11 q 8 137 0 43 q 15 278 15 231 l 15 360 q 29 440 15 426 q 78 481 43 454 q 130 507 114 507 q 150 501 146 507 q 154 481 154 496 q 126 342 154 407 q 119 232 119 263 q 222 413 193 369 q 315 493 274 493 q 365 472 342 493 q 388 421 388 451 q 387 363 388 390 q 385 321 386 336 q 383 301 383 306 q 431 364 389 313 q 487 431 472 415 q 518 461 501 446 q 576 493 550 493 q 624 474 601 493 q 647 425 647 454 q 634 245 647 364 q 621 95 621 126 q 629 64 621 64 q 694 123 653 65 q 777 271 736 181 q 827 361 818 361 q 836 350 836 361 q 796 226 836 311 q 611 -7 686 -7 q 536 15 564 -7 q 526 66 526 25 q 534 199 526 107 q 542 338 542 292 q 526 383 542 383 q 448 322 508 383 q 383 236 388 261 q 375 32 375 189 q 354 -7 375 -7 q 294 2 322 -7 q 265 27 265 11 q 274 164 265 43 q 282 334 282 285 q 266 383 282 383 q 189 288 250 383 q 122 156 128 193 q 115 75 115 118 z "},"n":{"ha":515,"x_min":-7,"x_max":590,"o":"m 108 75 l 110 32 q 88 -7 110 -7 q 24 2 54 -7 q -7 27 -7 11 q 1 137 -7 43 q 8 278 8 231 l 8 360 q 22 440 8 426 q 72 481 36 454 q 123 507 107 507 q 143 501 139 507 q 147 481 147 496 q 119 342 147 407 q 113 232 113 263 q 171 326 118 240 q 260 453 224 413 q 326 493 297 493 q 378 474 356 493 q 401 425 401 454 q 388 245 401 364 q 375 95 375 126 q 383 64 375 64 q 449 123 407 65 q 531 271 490 181 q 581 361 572 361 q 590 350 590 361 q 550 226 590 311 q 365 -7 440 -7 q 283 15 311 -7 q 274 66 274 25 q 281 199 274 107 q 289 338 289 292 q 273 383 289 383 q 189 288 257 383 q 117 167 121 193 q 108 75 108 118 z "},"o":{"ha":506,"x_min":0,"x_max":583,"o":"m 435 301 q 512 333 490 319 q 544 353 533 346 l 561 363 q 572 367 568 367 q 583 354 583 367 q 540 310 583 342 q 433 254 497 279 q 360 65 424 138 q 178 -7 296 -7 q 46 62 92 -7 q 0 223 0 131 q 55 397 0 315 q 196 479 110 479 q 288 507 235 507 q 388 450 342 507 q 435 301 433 393 m 344 231 l 294 228 q 186 266 231 228 q 142 350 142 304 q 157 429 142 396 q 97 243 97 382 q 125 116 97 176 q 213 56 153 56 q 306 106 272 56 q 344 231 339 157 m 258 461 q 224 441 236 461 q 211 397 211 421 q 247 314 211 346 q 329 282 282 282 l 346 282 q 323 406 343 350 q 258 461 303 461 z "},"p":{"ha":500,"x_min":-35,"x_max":449,"o":"m 43 432 q 92 478 58 450 q 144 507 125 507 q 164 452 164 507 q 135 344 164 397 q 126 272 129 319 q 207 438 167 382 q 305 493 247 493 q 406 441 363 493 q 449 277 449 389 q 385 79 449 165 q 219 -7 322 -7 q 113 32 167 -7 q 82 -372 113 -233 q 45 -415 79 -385 q -5 -444 11 -444 q -28 -422 -21 -444 q -35 -381 -35 -400 q 24 -12 -35 -237 q 37 274 33 118 q 43 432 40 429 m 228 43 q 311 99 268 43 q 354 238 354 156 q 331 370 354 321 q 269 419 308 419 q 118 143 203 419 q 115 82 115 104 q 228 43 154 43 z "},"q":{"ha":525,"x_min":0,"x_max":592,"o":"m 235 -362 q 281 -136 235 -261 l 297 158 q 228 34 263 75 q 138 -7 194 -7 q 41 44 82 -7 q 0 208 0 96 q 63 407 0 321 q 229 493 126 493 q 328 436 274 493 q 424 507 393 507 q 444 454 444 507 q 435 402 444 442 q 415 344 425 363 q 401 202 407 317 q 394 67 396 88 q 472 206 413 96 q 581 367 561 367 q 592 351 592 367 q 576 318 592 336 q 390 -25 501 228 q 353 -371 390 -258 q 315 -417 346 -390 q 263 -444 283 -444 q 242 -419 249 -444 q 235 -362 235 -393 m 221 443 q 138 383 182 443 q 94 244 94 322 q 117 116 94 165 q 174 67 140 67 q 236 114 207 67 q 307 272 265 161 l 318 392 q 272 427 301 411 q 221 443 242 443 z "},"r":{"ha":354,"x_min":0,"x_max":422,"o":"m 121 363 l 197 371 q 217 358 208 371 q 225 332 225 346 q 216 238 225 318 q 207 110 207 157 q 215 64 207 64 q 281 123 239 65 q 363 271 322 181 q 413 361 404 361 q 422 350 422 361 q 382 226 422 311 q 197 -7 272 -7 q 115 15 143 -7 q 106 136 106 25 q 129 326 106 247 q 17 378 49 326 q 0 438 0 404 q 14 496 0 471 q 53 521 28 521 q 101 494 79 521 q 122 433 122 467 q 103 367 122 400 q 121 363 108 363 z "},"s":{"ha":289,"x_min":0,"x_max":360,"o":"m 206 425 l 208 446 q 180 471 208 471 q 125 434 151 471 q 99 374 99 397 q 101 336 99 350 q 108 313 104 322 q 119 292 111 304 q 132 274 128 279 l 147 254 q 161 236 157 240 q 333 369 233 296 q 346 374 339 374 q 360 358 360 374 q 347 335 360 343 q 179 211 258 278 q 210 114 210 167 q 169 24 210 61 q 67 -14 129 -14 q 4 46 4 -14 q 96 178 4 89 q 71 205 89 186 q 44 235 53 224 q 22 264 35 246 q 0 339 0 299 q 53 472 0 421 q 165 522 106 522 q 224 502 203 522 q 244 461 244 482 q 222 414 244 414 q 206 425 206 414 m 117 151 q 61 62 61 96 q 96 28 61 28 q 131 44 117 28 q 117 151 161 86 z "},"t":{"ha":279,"x_min":-31,"x_max":351,"o":"m 311 226 q 126 -7 201 -7 q 37 11 50 -7 q 24 131 24 29 q 43 424 24 232 q -31 481 -26 438 q -1 503 -31 503 q 50 492 28 503 q 79 694 63 592 q 106 744 83 721 q 149 768 128 768 q 167 711 167 768 q 147 468 167 685 q 230 496 185 475 q 283 517 275 517 q 308 501 308 517 q 257 463 310 488 q 143 426 204 439 q 126 119 126 224 q 143 64 126 64 q 210 122 168 65 q 292 270 251 179 q 342 361 333 361 q 351 350 351 361 q 311 226 351 311 z "},"u":{"ha":507,"x_min":0,"x_max":592,"o":"m 0 121 l 8 276 q 22 439 8 425 q 72 480 36 453 q 123 507 107 507 q 143 501 139 507 q 147 479 147 496 q 121 358 147 419 q 100 149 100 231 q 126 67 100 67 q 201 122 158 67 q 288 288 244 178 q 308 438 300 426 q 346 478 315 449 q 397 507 376 507 q 417 454 417 507 q 409 400 417 440 q 392 342 401 360 q 376 101 376 303 q 385 64 376 64 q 450 123 408 65 q 533 271 492 181 q 583 361 574 361 q 592 350 592 361 q 551 226 592 311 q 367 -7 442 -7 q 285 15 313 -7 q 275 75 275 25 q 279 186 275 125 q 190 42 235 92 q 91 -7 146 -7 q 18 22 36 -7 q 0 121 0 51 z "},"v":{"ha":486,"x_min":7,"x_max":558,"o":"m 174 61 q 261 113 224 61 q 317 240 299 165 q 240 294 267 256 q 214 382 214 332 q 240 469 214 432 q 314 507 265 507 q 358 470 343 507 q 374 388 374 433 q 367 296 374 342 q 411 288 388 288 q 515 338 465 288 q 549 363 540 363 q 558 349 558 363 q 540 315 558 335 q 354 233 467 233 q 272 63 328 132 q 136 -7 217 -7 q 58 33 89 -7 q 7 225 7 99 q 14 336 7 268 q 30 419 21 404 q 74 457 39 435 q 124 479 110 479 q 144 454 144 479 q 108 300 144 383 q 124 131 108 201 q 174 61 140 61 m 300 454 q 289 408 289 454 q 331 321 289 363 q 333 354 333 338 q 300 454 333 454 z "},"w":{"ha":646,"x_min":0,"x_max":729,"o":"m 578 288 q 686 338 636 288 q 720 363 711 363 q 729 349 729 363 q 711 315 729 335 q 526 233 638 233 q 457 62 504 131 q 338 -7 410 -7 q 233 78 265 -7 q 115 -7 176 -7 q 0 215 0 -7 q 31 425 0 369 q 72 457 36 435 q 122 479 108 479 q 143 454 143 479 q 104 300 140 389 q 96 220 96 283 q 110 109 96 157 q 153 61 125 61 q 221 128 181 61 q 214 202 214 163 q 222 287 214 242 q 256 378 231 332 q 315 424 281 424 q 331 417 326 424 q 336 383 336 410 q 299 207 336 313 q 327 103 304 146 q 378 61 350 61 q 446 113 418 61 q 489 240 474 165 q 410 293 438 254 q 382 383 382 332 q 406 470 382 433 q 478 507 431 507 q 542 369 542 507 q 538 294 542 333 q 578 288 558 288 m 468 454 q 456 407 456 454 q 499 319 456 360 q 500 340 500 326 q 468 454 500 454 z "},"x":{"ha":439,"x_min":-8,"x_max":521,"o":"m 333 71 q 467 274 375 71 q 485 315 478 297 q 497 342 492 332 q 513 361 506 361 q 521 350 521 361 q 479 222 521 310 q 306 -7 372 -7 q 240 17 256 -7 q 178 144 225 42 q 106 32 136 71 q 51 -7 76 -7 q 13 -1 26 -7 q -5 10 -1 4 q -8 26 -8 17 q 10 53 -8 36 q 149 206 88 124 q 97 288 129 243 q 45 363 65 333 q 25 416 25 392 q 44 477 25 440 q 88 514 63 514 q 126 489 114 514 q 138 438 138 464 q 210 293 150 417 q 261 384 231 326 q 308 467 292 442 q 336 493 325 493 q 369 485 361 493 q 376 460 376 476 q 363 428 376 443 q 333 399 350 413 q 301 364 317 386 q 233 246 285 342 q 333 71 318 71 z "},"y":{"ha":486,"x_min":0,"x_max":544,"o":"m 0 121 l 8 276 q 22 439 8 425 q 72 480 36 453 q 123 507 107 507 q 143 501 139 507 q 147 479 147 496 q 121 358 147 419 q 100 149 100 231 q 119 67 100 67 q 197 126 153 67 q 286 300 240 185 q 289 365 288 331 q 292 415 290 399 q 294 438 293 431 q 332 476 294 444 q 390 507 369 507 q 410 454 410 507 q 402 400 410 440 q 385 342 394 360 q 369 169 374 243 q 515 351 506 342 q 531 361 524 361 q 544 347 544 361 q 539 329 544 339 q 364 100 494 264 q 353 -125 356 -65 q 303 -373 346 -301 q 153 -444 261 -444 q 65 -416 106 -444 q 24 -317 24 -387 q 77 -174 24 -247 q 272 53 131 -100 l 281 204 q 188 47 233 100 q 86 -7 142 -7 q 15 21 31 -7 q 0 121 0 49 m 268 -12 q 110 -286 110 -183 q 126 -364 110 -333 q 172 -394 143 -394 q 235 -346 217 -394 q 261 -149 253 -297 l 268 -12 z "},"z":{"ha":472,"x_min":0,"x_max":539,"o":"m 235 311 q 22 364 67 311 q 0 424 0 390 q 20 474 0 457 q 63 492 40 492 q 101 473 86 492 q 117 438 117 454 q 172 402 117 413 q 281 392 228 392 q 357 478 335 468 q 375 481 365 481 q 397 436 397 481 q 378 368 397 392 q 310 324 358 344 q 149 150 228 249 q 258 117 185 142 q 343 93 332 93 q 483 278 400 93 q 530 361 521 361 q 539 340 539 361 q 499 226 539 319 q 296 -14 392 -14 q 207 21 286 -14 q 88 56 128 56 q 21 4 53 4 q 0 42 0 4 q 31 119 0 81 q 99 157 63 157 q 235 311 196 265 z "},"{":{"ha":410,"x_min":56,"x_max":354,"o":"m 249 657 l 257 504 q 183 372 257 421 q 228 317 213 356 q 243 242 243 278 q 228 140 243 206 q 214 38 214 74 q 265 -99 214 -57 l 281 -107 q 306 -131 306 -121 q 267 -142 306 -142 q 162 -83 207 -142 q 117 72 117 -24 q 132 156 117 100 q 147 238 147 211 q 139 297 147 264 q 122 340 131 331 q 79 336 99 336 q 56 361 56 336 q 65 388 56 374 q 86 401 75 401 l 108 399 q 138 411 129 399 q 165 499 165 449 l 150 632 q 196 789 150 719 q 315 858 242 858 q 354 844 354 858 q 335 827 354 836 q 311 815 315 818 q 249 657 249 774 z "},"|":{"ha":265,"x_min":74,"x_max":183,"o":"m 103 -232 q 74 -106 74 -232 q 81 36 74 -67 q 128 775 111 479 q 160 835 131 835 q 183 792 183 835 q 147 -62 183 600 q 103 -232 139 -232 z "},"}":{"ha":381,"x_min":14,"x_max":313,"o":"m 119 60 l 111 213 q 185 363 111 314 q 125 479 125 397 q 140 577 125 511 q 154 679 154 643 q 103 815 154 774 l 88 824 q 63 848 63 838 q 101 858 63 858 q 206 799 161 858 q 251 644 251 740 q 236 561 251 617 q 221 464 221 506 q 246 394 221 422 q 289 399 269 399 q 313 374 313 399 q 303 347 313 361 q 282 333 293 333 q 260 336 282 333 q 231 324 239 336 q 203 218 203 286 l 218 85 q 172 -72 218 -3 q 53 -142 126 -142 q 14 -128 14 -142 q 33 -110 14 -119 q 57 -99 53 -101 q 119 60 119 -57 z "},"~":{"ha":632,"x_min":65,"x_max":563,"o":"m 65 267 q 120 363 65 314 q 221 411 175 411 q 338 374 267 411 q 439 336 410 336 q 491 353 468 336 q 527 385 514 369 q 551 401 540 401 q 563 392 563 401 q 515 283 563 332 q 414 235 468 235 q 296 285 360 235 q 203 335 232 335 q 135 292 174 335 q 79 250 96 250 q 65 267 65 250 z "},"":{"ha":310,"x_min":50,"x_max":246,"o":"m 186 507 q 226 494 207 507 q 246 450 246 481 q 218 402 246 419 q 167 385 190 385 q 127 398 143 385 q 111 431 111 411 q 186 507 111 507 m 99 -324 q 90 -324 99 -324 q 65 -312 81 -324 q 50 -279 50 -301 q 60 -215 50 -257 q 78 -131 71 -172 q 108 59 86 -90 q 139 263 129 208 q 152 286 142 275 q 174 297 163 297 q 204 243 204 297 q 200 95 204 156 q 194 -17 196 35 q 180 -190 193 -133 q 142 -285 167 -246 q 99 -324 118 -324 z "},"":{"ha":511,"x_min":26,"x_max":469,"o":"m 261 449 q 233 58 260 429 q 438 247 343 58 q 460 269 450 269 q 469 249 469 269 q 442 174 469 229 q 356 61 415 119 q 229 -4 297 3 q 194 -93 219 -93 q 174 -37 174 -93 q 175 -6 174 -15 q 67 59 107 4 q 26 169 26 114 q 80 380 26 300 q 217 483 133 460 q 247 556 219 556 q 267 518 267 556 q 266 504 267 514 q 265 492 265 494 q 289 493 272 493 q 359 470 333 493 q 385 418 385 447 q 367 338 385 365 q 326 311 349 311 q 304 338 304 311 l 315 408 q 261 449 315 449 m 217 432 q 146 338 174 404 q 118 219 118 272 q 186 74 118 119 l 217 432 z "},"":{"ha":667,"x_min":22,"x_max":581,"o":"m 456 439 l 490 447 q 504 431 504 447 q 492 394 504 415 q 461 372 479 372 q 294 379 394 372 l 285 275 q 349 272 315 272 q 408 275 382 272 q 449 283 435 278 q 469 288 464 288 q 481 276 481 288 q 432 211 481 211 q 278 225 403 211 q 253 124 264 149 l 335 111 q 536 90 472 90 q 564 47 564 90 q 547 12 564 31 q 508 -7 529 -7 q 217 63 406 -7 q 99 4 168 4 q 47 22 71 4 q 22 73 22 40 q 46 123 22 106 q 104 140 69 140 q 172 135 139 140 q 186 228 179 161 l 132 222 q 78 253 78 222 q 171 285 78 285 l 192 285 l 200 382 l 119 374 q 92 396 92 374 q 103 426 92 411 q 122 442 114 442 q 136 439 131 442 q 204 432 151 435 q 325 699 224 644 q 434 722 368 722 q 540 685 500 722 q 581 586 581 649 q 567 547 581 563 q 535 532 554 532 q 506 542 515 532 q 497 564 497 551 l 504 603 q 481 663 504 640 q 428 686 458 686 q 378 677 397 686 q 347 649 360 668 q 326 610 335 629 q 313 562 318 592 q 306 515 308 532 q 301 467 303 497 q 297 429 299 436 l 321 429 q 456 439 425 429 m 149 83 q 92 93 114 93 q 71 76 71 93 q 81 58 71 67 q 109 50 90 50 q 149 83 128 50 z "},"":{"ha":579,"x_min":29,"x_max":521,"o":"m 181 539 q 313 578 242 578 q 426 558 383 578 q 508 603 472 615 q 510 572 519 599 l 476 524 q 521 400 521 476 q 457 196 521 281 q 510 121 500 153 q 486 82 521 89 q 397 138 447 76 q 260 94 335 94 q 138 122 186 94 q 51 69 89 64 q 29 114 17 76 q 78 182 38 139 q 51 294 51 226 q 132 500 51 414 q 115 525 125 511 q 92 561 93 557 q 93 592 82 588 q 181 539 132 606 m 150 324 q 150 291 150 324 q 179 204 150 258 q 275 150 208 150 q 384 219 342 150 q 426 356 426 288 q 392 478 426 424 q 298 532 358 532 q 194 461 238 532 q 150 324 150 390 z "},"":{"ha":669,"x_min":83,"x_max":561,"o":"m 463 374 l 497 382 q 511 366 511 382 q 499 328 511 350 q 468 307 486 307 l 351 310 l 346 207 q 448 215 425 207 q 476 222 471 222 q 488 211 488 222 q 439 146 488 146 q 343 153 388 146 q 342 90 342 125 q 340 42 342 56 q 331 14 338 28 q 263 -14 318 -14 q 232 37 232 -14 q 242 163 232 88 l 143 157 q 98 165 107 157 q 89 188 89 172 q 178 219 89 219 q 249 214 200 219 q 258 317 257 281 q 164 313 199 317 q 126 308 129 308 q 99 331 99 308 q 110 361 99 346 q 129 376 121 376 q 147 374 138 376 q 258 364 169 367 q 186 525 249 429 q 149 567 176 539 q 103 621 122 596 q 83 663 83 646 q 103 701 83 679 q 133 722 122 722 q 158 708 144 722 q 242 599 190 679 q 319 442 293 519 q 397 584 339 497 q 488 700 456 671 q 540 729 519 729 q 561 701 561 729 q 528 640 561 653 q 426 524 497 631 q 354 364 356 418 q 463 374 432 364 z "},"":{"ha":265,"x_min":74,"x_max":203,"o":"m 146 374 q 113 431 113 374 q 124 612 113 488 q 138 775 135 736 q 175 835 140 835 q 203 792 203 835 q 192 419 203 507 q 175 387 189 400 q 146 374 161 374 m 101 279 q 149 328 106 328 q 183 288 183 328 q 172 94 183 221 q 159 -67 161 -32 q 155 -124 157 -101 q 147 -175 153 -147 q 108 -232 136 -232 q 74 -123 74 -232 q 101 279 74 -14 z "},"":{"ha":575,"x_min":56,"x_max":514,"o":"m 160 -82 q 192 -144 160 -119 q 265 -168 224 -168 q 341 -142 307 -168 q 375 -87 375 -115 q 325 -11 375 -58 q 215 78 275 36 q 106 171 156 121 q 56 257 56 221 q 101 378 57 321 q 232 449 146 435 q 117 592 117 540 q 168 708 117 654 q 307 763 219 763 q 440 722 394 763 q 486 624 486 682 q 469 581 486 599 q 422 563 453 563 q 392 590 392 563 q 401 610 392 596 q 410 632 410 624 q 378 694 410 669 q 304 718 346 718 q 228 692 263 718 q 194 637 194 665 q 244 561 194 608 q 354 472 294 514 q 464 379 414 429 q 514 293 514 329 q 468 172 513 228 q 336 101 424 115 q 453 -42 453 8 q 401 -158 453 -103 q 263 -212 350 -212 q 130 -169 176 -212 q 83 -74 83 -126 q 100 -31 83 -49 q 147 -12 117 -12 q 178 -40 178 -12 q 169 -60 178 -46 q 160 -82 160 -74 m 424 257 q 390 319 424 285 q 292 403 357 353 q 188 371 229 403 q 146 293 146 339 q 167 245 146 272 q 210 200 189 218 q 278 147 232 182 q 382 179 340 147 q 424 257 424 211 z "},"":{"ha":510,"x_min":88,"x_max":414,"o":"m 143 622 q 106 635 125 622 q 88 675 88 647 q 113 719 88 703 q 161 736 139 736 q 199 724 183 736 q 214 693 214 711 q 143 622 214 622 m 344 622 q 306 635 325 622 q 288 675 288 647 q 314 719 288 703 q 363 736 340 736 q 399 724 385 736 q 414 693 414 711 q 344 622 414 622 z "},"":{"ha":622,"x_min":54,"x_max":529,"o":"m 325 651 l 332 690 q 307 708 332 708 q 264 668 282 708 q 246 589 246 628 q 300 501 246 501 q 368 547 332 501 q 385 560 376 560 q 394 550 394 560 q 381 521 394 540 q 279 472 343 472 q 214 501 238 472 q 190 564 190 529 q 230 690 190 646 q 322 735 269 735 q 358 722 346 735 q 369 688 369 708 q 359 652 369 667 q 337 638 349 638 q 325 651 325 638 m 460 613 q 460 656 460 613 q 421 749 460 699 q 308 800 382 800 q 181 735 235 800 q 128 587 128 669 q 175 458 128 504 q 291 413 222 413 q 410 469 360 413 q 460 613 460 526 m 335 835 q 472 783 415 835 q 529 646 529 732 q 455 453 529 531 q 253 375 381 375 q 113 422 171 375 q 54 553 54 468 q 128 751 54 667 q 335 835 201 835 z "},"":{"ha":544,"x_min":0,"x_max":456,"o":"m 258 617 q 197 501 228 539 q 119 463 167 463 q 35 507 71 463 q 0 645 0 551 q 57 814 0 739 q 194 889 114 889 q 238 874 213 889 q 282 838 264 858 q 312 869 290 850 q 349 889 333 889 q 368 843 368 889 q 360 799 368 833 q 344 747 353 765 q 336 554 336 728 q 343 522 336 522 q 429 621 381 524 q 447 636 436 636 q 456 622 456 636 q 410 527 456 592 q 323 463 364 463 q 263 482 282 463 q 256 522 256 489 q 258 617 256 556 m 189 842 q 115 793 154 842 q 76 678 76 744 q 98 568 76 611 q 151 525 119 525 q 267 719 190 525 q 274 786 268 749 q 237 824 264 806 q 189 842 210 842 z "},"":{"ha":636,"x_min":54,"x_max":546,"o":"m 495 444 q 502 452 495 444 q 515 467 508 460 q 527 475 521 475 q 540 464 533 475 q 546 439 546 453 q 505 367 546 403 q 351 260 464 331 q 474 165 426 219 q 522 88 522 111 q 509 44 522 65 q 487 22 496 22 q 447 60 478 22 q 372 147 415 99 q 292 214 324 203 q 285 218 286 217 q 278 222 283 219 q 272 226 274 225 q 263 238 264 235 q 261 244 263 240 q 260 257 260 247 q 269 277 260 267 q 289 288 278 288 q 363 331 300 288 q 454 401 426 374 q 495 444 482 428 m 331 446 q 144 254 331 364 q 260 162 201 232 q 319 68 319 92 q 303 26 319 44 q 275 8 286 8 q 254 33 267 8 q 210 103 242 58 q 145 172 178 147 q 93 206 113 197 q 64 219 74 214 q 54 235 54 224 q 62 263 54 246 q 78 279 69 279 q 107 292 86 279 q 210 368 163 322 q 275 438 257 414 q 300 471 293 461 q 310 481 307 481 q 324 469 317 481 q 331 446 331 457 z "},"":{"ha":632,"x_min":88,"x_max":557,"o":"m 468 293 l 218 300 q 151 296 185 300 q 117 292 118 292 q 88 319 88 292 q 101 358 88 338 q 129 378 115 378 q 149 374 131 378 q 328 361 203 361 q 490 376 454 361 q 543 392 526 392 q 557 375 557 392 q 548 338 557 358 q 535 303 539 317 q 524 235 532 290 q 506 151 517 179 q 478 124 496 124 q 443 150 443 124 q 453 210 443 168 q 468 293 464 251 z "},"":{"ha":622,"x_min":31,"x_max":538,"o":"m 256 628 l 254 551 q 226 481 254 481 q 193 496 193 481 q 205 524 193 503 q 217 606 217 544 q 219 700 217 668 q 200 685 207 694 q 183 676 193 676 q 174 693 174 676 q 228 729 174 721 q 260 754 238 754 q 265 735 265 754 q 399 647 399 735 q 351 576 399 606 q 369 534 358 568 q 406 500 381 500 q 451 533 432 500 q 469 611 469 567 q 421 747 469 694 q 297 800 372 800 q 165 737 221 800 q 108 588 108 674 q 167 454 108 501 q 300 407 226 407 q 338 412 329 407 q 356 422 347 417 q 388 438 372 438 q 403 426 403 438 q 360 385 403 401 q 258 368 317 368 q 98 421 165 368 q 31 576 31 474 q 108 756 31 679 q 299 833 185 833 q 475 783 413 833 q 538 651 538 733 q 499 516 538 569 q 392 463 460 463 q 333 522 344 463 q 325 564 333 543 q 300 561 315 561 q 268 583 268 561 q 292 604 268 604 q 332 594 315 604 q 353 639 353 608 q 264 710 353 710 q 256 628 256 660 z "},"":{"ha":471,"x_min":49,"x_max":408,"o":"m 408 763 q 290 667 404 667 q 235 673 272 667 q 160 679 197 679 q 102 676 124 679 q 78 674 81 674 q 49 703 49 675 q 78 743 50 732 q 208 753 97 753 q 349 765 318 753 q 394 778 381 778 q 408 763 408 778 z "},"":{"ha":389,"x_min":25,"x_max":329,"o":"m 175 576 q 278 697 278 576 q 270 741 278 722 q 255 766 263 760 q 245 772 247 772 q 235 768 243 772 q 215 764 226 764 q 189 783 189 764 q 242 818 189 818 q 300 791 271 818 q 329 699 329 764 q 284 585 329 635 q 150 536 239 536 q 58 574 90 536 q 25 669 25 613 q 63 781 25 726 q 163 835 100 835 q 182 822 182 835 q 159 811 182 815 q 115 767 136 807 q 93 684 93 728 q 118 608 93 640 q 175 576 143 576 z "},"":{"ha":694,"x_min":93,"x_max":560,"o":"m 511 426 l 378 429 l 365 344 q 297 276 354 276 q 275 285 286 276 q 264 305 264 294 q 269 328 264 315 q 299 433 285 363 q 194 430 217 433 q 163 426 172 426 q 145 437 154 426 q 136 459 136 447 q 152 483 136 471 q 177 494 168 494 q 196 493 186 494 q 308 489 225 489 q 319 604 319 564 q 335 631 319 621 q 374 640 350 640 q 389 575 389 640 q 383 489 389 550 q 512 497 482 489 q 544 504 542 504 q 560 488 560 504 q 545 449 560 471 q 511 426 531 426 m 221 160 l 121 154 q 93 175 93 154 q 107 212 93 189 q 135 235 121 235 q 153 231 136 235 q 324 222 199 222 q 485 234 449 222 q 533 246 521 246 q 544 230 544 246 q 526 183 544 214 q 488 151 507 151 l 221 160 z "},"":{"ha":376,"x_min":0,"x_max":308,"o":"m 114 568 l 226 540 q 279 581 254 540 q 297 603 293 603 q 308 576 308 603 q 287 517 308 549 q 249 474 265 485 q 215 463 233 463 q 147 486 197 463 q 71 510 97 510 q 25 469 53 469 q 0 500 0 469 q 20 553 0 531 q 69 575 40 575 q 119 626 88 594 q 160 669 151 658 q 183 700 169 681 q 206 768 206 731 q 145 847 206 847 q 85 803 85 847 q 91 776 85 792 q 97 753 97 761 q 88 735 97 744 q 72 725 79 725 q 51 742 58 725 q 44 778 44 760 q 81 858 44 828 q 165 889 118 889 q 240 860 211 889 q 269 791 269 832 q 256 722 269 750 q 228 677 243 693 q 176 627 214 661 q 114 568 138 593 z "},"":{"ha":290,"x_min":-25,"x_max":242,"o":"m 24 818 l 31 793 q 24 786 31 786 q 1 808 10 786 q -8 846 -8 829 q 2 876 -8 863 q 28 889 13 889 q 94 872 44 889 q 176 856 143 856 q 211 875 192 875 q 239 831 239 875 q 220 803 239 815 q 178 790 201 790 q 150 760 169 781 q 115 724 131 740 q 144 725 129 725 q 215 692 189 725 q 242 602 242 660 q 192 504 242 544 q 67 464 142 464 q 3 483 31 464 q -25 519 -25 503 q -19 543 -25 535 q 1 551 -12 551 q 36 526 15 551 q 79 500 57 500 q 172 600 172 500 q 156 663 172 632 q 113 693 140 693 l 65 686 q 51 703 51 686 q 57 715 51 710 q 132 800 103 757 l 42 833 q 24 818 24 833 z "},"":{"ha":483,"x_min":147,"x_max":343,"o":"m 249 713 q 242 734 249 724 q 235 751 235 744 q 259 771 235 758 q 299 783 283 783 q 328 767 314 783 q 343 719 343 750 q 283 628 343 672 q 219 592 256 607 q 165 576 182 576 q 147 589 147 576 q 167 607 147 596 q 249 713 247 646 z "},"":{"ha":635,"x_min":-53,"x_max":700,"o":"m 492 64 q 558 122 517 64 q 641 270 600 179 q 691 361 682 361 q 700 350 700 361 q 660 226 700 311 q 474 -7 550 -7 q 392 15 419 -7 q 382 78 382 25 q 385 163 382 132 q 226 -7 311 -7 q 144 64 178 -7 q 117 -119 132 -15 q 97 -247 101 -224 q 56 -349 88 -307 q 2 -390 25 -390 q -37 -381 -21 -390 q -53 -356 -53 -371 q -30 -310 -53 -342 q 1 -256 -7 -278 q 25 -175 8 -235 q 108 206 78 25 q 99 344 99 275 q 115 438 99 414 q 156 485 131 463 q 200 507 181 507 q 226 468 226 507 q 211 369 226 429 q 186 283 196 308 q 206 129 186 192 q 261 67 225 67 q 320 117 290 67 q 394 286 350 168 q 415 438 407 426 q 453 478 422 449 q 503 507 483 507 q 524 454 524 507 q 516 401 524 442 q 496 335 508 361 q 483 101 483 310 q 492 64 483 64 z "},"":{"ha":901,"x_min":64,"x_max":828,"o":"m 710 594 l 719 229 q 632 -7 719 -7 q 592 6 610 -7 q 575 42 575 19 q 588 86 575 64 q 635 260 625 144 q 644 494 644 375 q 650 653 644 614 q 519 667 589 654 q 522 405 522 475 q 517 283 522 335 q 496 176 513 232 q 452 81 479 119 q 377 18 425 43 q 266 -7 329 -7 q 152 22 203 -7 q 101 113 101 51 q 121 174 101 150 q 173 199 140 199 q 206 183 206 199 q 197 156 206 176 q 189 116 189 136 q 215 72 189 96 q 289 49 240 49 q 426 453 426 49 l 426 685 q 271 714 294 714 q 166 673 208 714 q 124 573 124 632 q 160 476 124 514 q 226 439 197 439 q 278 454 256 439 q 319 469 301 469 q 343 445 343 469 q 322 406 343 421 q 254 390 300 390 q 121 451 178 390 q 64 586 64 513 q 114 750 64 689 q 268 811 164 811 q 435 771 326 811 q 494 863 451 863 q 519 743 519 863 q 664 710 606 718 q 774 785 696 785 q 814 770 800 785 q 828 738 828 756 q 799 676 828 700 q 711 651 769 653 q 710 594 710 632 m 768 751 q 719 707 733 751 l 728 707 q 789 733 789 707 q 768 751 789 751 z "},"":{"ha":149,"x_min":-26,"x_max":108,"o":"m 33 268 q -7 281 13 268 q -26 325 -26 294 q 1 373 -26 356 q 53 390 29 390 q 92 377 76 390 q 108 344 108 364 q 33 268 108 268 z "},"":{"ha":283,"x_min":0,"x_max":206,"o":"m 206 789 l 194 643 q 188 522 194 592 q 126 463 179 463 q 110 499 110 463 q 124 629 110 535 q 138 774 138 724 q 132 824 138 824 q 60 685 118 824 q 49 651 54 672 q 38 619 43 629 q 24 608 33 608 q 0 625 0 608 q 24 690 0 631 q 121 865 49 749 q 178 889 135 889 q 206 789 206 889 z "},"":{"ha":444,"x_min":13,"x_max":464,"o":"m 385 722 q 426 742 400 728 q 458 757 451 757 q 464 745 464 757 q 435 713 464 733 q 381 682 407 693 q 313 524 368 585 q 163 463 257 463 q 52 515 92 463 q 13 646 13 567 q 60 795 13 725 q 183 865 108 865 q 265 889 219 889 q 348 844 311 889 q 385 722 385 800 m 189 514 q 304 660 288 514 q 265 657 292 657 q 173 689 210 657 q 136 759 136 721 q 149 822 136 797 q 97 663 97 781 q 124 557 97 600 q 189 514 151 514 m 307 703 q 289 803 307 754 q 238 851 271 851 q 207 834 218 851 q 196 797 196 817 q 228 730 196 757 q 307 703 260 703 z "},"":{"ha":639,"x_min":83,"x_max":575,"o":"m 134 45 q 127 37 134 45 q 115 22 121 29 q 102 14 108 14 q 90 25 96 14 q 83 50 83 36 q 124 122 83 86 q 278 229 165 158 q 155 324 203 269 q 107 401 107 378 q 120 445 107 424 q 142 467 133 467 q 183 428 151 467 q 256 342 214 390 q 338 275 306 286 q 344 271 343 272 q 351 267 346 269 q 357 263 356 264 q 366 251 365 254 q 368 245 367 249 q 369 232 369 242 q 360 212 369 222 q 340 201 351 201 q 266 158 329 201 q 175 88 203 115 q 134 45 147 61 m 299 43 q 485 235 299 125 q 369 327 428 257 q 310 421 310 397 q 326 463 310 444 q 354 481 343 481 q 375 456 363 481 q 419 386 388 431 q 484 317 451 342 q 536 283 517 292 q 565 270 556 275 q 575 254 575 265 q 567 226 575 243 q 551 210 560 210 q 522 197 543 210 q 419 121 467 167 q 354 51 372 75 q 329 18 336 28 q 319 8 322 8 q 306 20 313 8 q 299 43 299 32 z "},"":{"ha":994,"x_min":113,"x_max":872,"o":"m 258 10 q 311 138 258 43 q 408 299 364 233 q 644 733 547 506 q 699 778 664 778 q 710 764 710 778 q 679 676 710 750 q 544 401 649 603 q 391 88 440 199 q 294 -22 342 -22 q 271 -14 283 -22 q 258 10 258 -6 m 747 100 l 588 93 q 558 124 558 93 q 596 149 558 146 q 647 268 607 176 q 692 372 688 360 q 700 397 697 385 q 706 414 703 408 q 728 435 714 435 q 751 424 743 435 q 758 399 758 413 q 753 374 758 385 q 738 347 749 363 q 725 326 728 332 q 642 150 668 228 q 701 159 663 153 q 758 167 740 165 q 785 289 768 289 q 804 278 793 289 q 815 257 815 268 q 808 171 815 219 q 856 153 839 169 q 872 121 872 138 q 849 94 872 94 l 801 101 q 800 68 800 90 l 801 24 q 754 -7 799 -7 q 740 24 740 -7 q 747 100 740 54 m 318 651 l 307 506 q 300 385 307 454 q 239 325 292 325 q 222 361 222 325 q 236 492 222 397 q 250 636 250 586 q 244 686 250 686 q 172 547 231 686 q 161 513 167 535 q 151 481 156 492 q 136 471 146 471 q 113 488 113 471 q 137 552 113 493 q 233 728 161 611 q 290 751 247 751 q 318 651 318 751 z "},"":{"ha":1061,"x_min":117,"x_max":919,"o":"m 258 10 q 311 138 258 43 q 408 299 364 233 q 644 733 547 506 q 699 778 664 778 q 710 764 710 778 q 679 676 710 750 q 544 401 649 603 q 391 88 440 199 q 294 -22 342 -22 q 271 -14 283 -22 q 258 10 258 -6 m 725 99 l 838 71 q 890 111 865 71 q 908 133 904 133 q 919 108 919 133 q 897 49 919 82 q 859 4 875 15 q 826 -7 843 -7 q 759 17 808 -7 q 682 40 710 40 q 636 0 664 0 q 611 31 611 0 q 631 83 611 61 q 681 106 651 106 q 731 157 699 125 q 772 200 763 189 q 794 231 781 211 q 817 299 817 261 q 756 378 817 378 q 696 333 696 378 q 702 307 696 322 q 708 283 708 292 q 699 265 708 275 q 683 256 690 256 q 663 273 669 256 q 656 308 656 290 q 692 389 656 358 q 776 419 729 419 q 851 391 822 419 q 881 322 881 363 q 867 252 881 281 q 840 208 854 224 q 787 158 825 192 q 725 99 749 124 m 322 647 l 311 501 q 304 381 311 450 q 243 321 296 321 q 226 357 226 321 q 240 488 226 393 q 254 632 254 582 q 249 682 254 682 q 176 543 235 682 q 165 509 171 531 q 155 477 160 488 q 140 467 150 467 q 117 483 117 467 q 141 548 117 489 q 238 724 165 607 q 294 747 251 747 q 322 647 322 747 z "},"":{"ha":968,"x_min":104,"x_max":872,"o":"m 258 10 q 311 138 258 43 q 408 299 364 233 q 644 733 547 506 q 699 778 664 778 q 710 764 710 778 q 679 676 710 750 q 544 401 649 603 q 391 88 440 199 q 294 -22 342 -22 q 271 -14 283 -22 q 258 10 258 -6 m 156 682 l 163 657 q 156 650 163 650 q 133 672 142 650 q 124 710 124 693 q 134 740 124 726 q 160 753 144 753 q 226 736 176 753 q 308 719 275 719 q 339 743 324 743 q 363 729 354 743 q 371 697 371 715 q 352 667 371 679 q 310 654 333 654 q 282 624 301 644 q 247 588 263 604 q 276 589 261 589 q 347 556 321 589 q 374 466 374 524 q 321 368 374 408 q 190 328 268 328 q 129 347 154 328 q 104 383 104 367 q 110 407 104 399 q 131 415 117 415 q 165 390 144 415 q 208 364 186 364 q 304 464 304 364 q 289 528 304 497 q 246 560 274 560 l 199 553 q 183 567 183 553 q 189 579 183 574 q 264 664 235 621 l 174 697 q 156 682 156 697 m 747 100 l 588 93 q 558 124 558 93 q 596 149 558 146 q 647 268 607 176 q 692 372 688 360 q 700 397 697 385 q 706 414 703 408 q 728 435 714 435 q 751 424 743 435 q 758 399 758 413 q 753 374 758 385 q 738 347 749 363 q 725 326 728 332 q 642 150 668 228 q 701 159 663 153 q 758 167 740 165 q 785 289 768 289 q 804 278 793 289 q 815 257 815 268 q 808 171 815 219 q 856 153 839 169 q 872 121 872 138 q 849 94 872 94 l 801 101 q 800 68 800 90 l 801 24 q 754 -7 799 -7 q 740 24 740 -7 q 747 100 740 54 z "},"":{"ha":493,"x_min":51,"x_max":458,"o":"m 297 297 q 351 271 331 297 q 372 208 372 244 q 351 142 372 171 q 299 94 329 114 q 237 53 268 75 q 184 -10 206 31 q 163 -109 163 -50 q 195 -207 163 -168 q 285 -246 228 -246 q 378 -149 343 -246 q 424 -112 390 -112 q 449 -125 440 -112 q 458 -151 458 -137 q 385 -253 457 -211 q 242 -296 314 -296 q 110 -253 169 -296 q 51 -141 51 -211 q 76 -22 51 -71 q 138 55 101 28 q 210 103 174 82 q 272 144 247 124 q 297 183 297 164 q 276 219 297 201 q 256 247 256 238 q 271 276 256 256 q 297 297 286 297 m 335 507 q 375 494 356 507 q 394 450 394 481 q 367 402 394 419 q 315 385 339 385 q 276 398 292 385 q 260 431 260 411 q 335 507 260 507 z "},"":{"ha":696,"x_min":13,"x_max":757,"o":"m 550 64 q 615 122 574 64 q 698 270 657 179 q 748 361 739 361 q 757 350 757 361 q 717 226 757 311 q 532 -7 607 -7 q 440 15 468 -7 q 428 279 428 28 l 200 263 q 153 118 174 190 q 125 29 132 46 q 51 -7 110 -7 q 13 26 13 -7 q 65 124 13 60 q 129 258 75 136 q 92 257 110 257 q 43 299 43 257 q 82 336 43 336 q 161 329 85 336 q 206 425 182 378 q 456 806 388 806 q 526 329 507 806 l 539 329 q 549 315 549 329 q 528 292 549 301 q 550 64 536 64 m 221 322 q 428 324 383 322 q 425 401 426 346 q 422 498 424 457 q 419 583 421 539 q 403 679 414 679 q 340 589 388 679 q 267 436 293 499 q 221 322 231 346 m 447 1053 q 452 1045 447 1053 q 467 1013 457 1038 q 483 979 478 988 q 494 965 489 971 q 503 954 499 958 q 514 945 507 950 q 525 938 521 940 q 538 930 529 935 q 551 924 547 925 q 565 917 554 922 l 579 910 q 597 886 597 900 q 573 865 597 865 q 510 878 549 865 q 442 911 471 892 q 372 1011 372 958 q 394 1048 372 1026 q 427 1069 417 1069 q 447 1053 438 1069 z "},"":{"ha":696,"x_min":13,"x_max":758,"o":"m 550 64 q 617 122 575 64 q 699 270 658 179 q 749 361 740 361 q 758 350 758 361 q 718 226 758 311 q 532 -7 608 -7 q 440 15 468 -7 q 428 279 428 28 l 200 263 q 153 118 174 190 q 125 29 132 46 q 51 -7 110 -7 q 13 26 13 -7 q 65 124 13 60 q 129 258 75 136 q 92 257 110 257 q 43 299 43 257 q 82 336 43 336 q 161 329 85 336 q 206 425 182 378 q 456 806 388 806 q 526 329 507 806 l 539 329 q 549 315 549 329 q 528 292 549 301 q 550 64 536 64 m 221 322 q 428 324 383 322 q 425 401 426 346 q 422 498 424 457 q 419 583 421 539 q 403 679 414 679 q 340 589 388 679 q 267 436 293 499 q 221 322 231 346 m 463 999 q 456 1020 463 1010 q 449 1038 449 1031 q 473 1057 449 1044 q 513 1069 497 1069 q 542 1053 528 1069 q 557 1006 557 1036 q 497 914 557 958 q 433 878 469 893 q 378 863 396 863 q 361 875 361 863 q 381 893 361 882 q 463 999 461 932 z "},"":{"ha":696,"x_min":13,"x_max":758,"o":"m 550 64 q 617 122 575 64 q 699 270 658 179 q 749 361 740 361 q 758 350 758 361 q 718 226 758 311 q 532 -7 608 -7 q 440 15 468 -7 q 428 279 428 28 l 200 263 q 153 118 174 190 q 125 29 132 46 q 51 -7 110 -7 q 13 26 13 -7 q 65 124 13 60 q 129 258 75 136 q 92 257 110 257 q 43 299 43 257 q 82 336 43 336 q 161 329 85 336 q 206 425 182 378 q 456 806 388 806 q 526 329 507 806 l 539 329 q 549 315 549 329 q 528 292 549 301 q 550 64 536 64 m 221 322 q 428 324 383 322 q 425 401 426 346 q 422 498 424 457 q 419 583 421 539 q 403 679 414 679 q 340 589 388 679 q 267 436 293 499 q 221 322 231 346 m 617 883 q 617 880 617 883 q 600 865 617 876 q 575 854 583 854 q 454 953 503 854 q 394 893 438 917 q 331 869 351 869 q 310 882 311 869 q 322 893 310 888 q 345 906 333 899 q 372 928 357 914 q 396 951 388 943 q 410 973 404 958 q 417 992 415 988 q 424 1029 424 1008 q 449 1055 425 1040 q 485 1069 474 1069 q 506 1042 501 1069 q 515 997 510 1015 q 536 951 519 979 q 594 900 560 915 q 617 883 617 890 z "},"":{"ha":696,"x_min":13,"x_max":758,"o":"m 550 64 q 617 122 575 64 q 699 270 658 179 q 749 361 740 361 q 758 350 758 361 q 718 226 758 311 q 532 -7 608 -7 q 440 15 468 -7 q 428 279 428 28 l 200 263 q 153 118 174 190 q 125 29 132 46 q 51 -7 110 -7 q 13 26 13 -7 q 65 124 13 60 q 129 258 75 136 q 92 257 110 257 q 43 299 43 257 q 82 336 43 336 q 161 329 85 336 q 206 425 182 378 q 456 806 388 806 q 526 329 507 806 l 539 329 q 549 315 549 329 q 528 292 549 301 q 550 64 536 64 m 221 322 q 428 324 383 322 q 425 401 426 346 q 422 498 424 457 q 419 583 421 539 q 403 679 414 679 q 340 589 388 679 q 267 436 293 499 q 221 322 231 346 m 371 1007 q 385 1007 371 1007 q 470 978 400 1007 q 555 950 540 950 q 585 973 569 950 q 608 996 600 996 q 626 966 626 996 q 594 903 626 936 q 526 869 563 869 q 440 899 490 869 q 364 929 390 929 q 345 910 354 929 q 325 890 336 890 q 301 918 301 890 q 322 976 301 946 q 371 1007 342 1007 z "},"":{"ha":696,"x_min":13,"x_max":758,"o":"m 550 64 q 617 122 575 64 q 699 270 658 179 q 749 361 740 361 q 758 350 758 361 q 718 226 758 311 q 532 -7 608 -7 q 440 15 468 -7 q 428 279 428 28 l 200 263 q 153 118 174 190 q 125 29 132 46 q 51 -7 110 -7 q 13 26 13 -7 q 65 124 13 60 q 129 258 75 136 q 92 257 110 257 q 43 299 43 257 q 82 336 43 336 q 161 329 85 336 q 206 425 182 378 q 456 806 388 806 q 526 329 507 806 l 539 329 q 549 315 549 329 q 528 292 549 301 q 550 64 536 64 m 221 322 q 428 324 383 322 q 425 401 426 346 q 422 498 424 457 q 419 583 421 539 q 403 679 414 679 q 340 589 388 679 q 267 436 293 499 q 221 322 231 346 m 360 865 q 323 878 342 865 q 304 918 304 890 q 330 963 304 946 q 378 979 356 979 q 415 967 400 979 q 431 936 431 954 q 360 865 431 865 m 561 865 q 523 878 542 865 q 504 918 504 890 q 531 963 504 946 q 579 979 557 979 q 616 967 601 979 q 631 936 631 954 q 561 865 631 865 z "},"":{"ha":696,"x_min":13,"x_max":758,"o":"m 550 64 q 617 122 575 64 q 699 270 658 179 q 749 361 740 361 q 758 350 758 361 q 718 226 758 311 q 532 -7 608 -7 q 440 15 468 -7 q 428 279 428 28 l 200 263 q 153 118 174 190 q 125 29 132 46 q 51 -7 110 -7 q 13 26 13 -7 q 65 124 13 60 q 129 258 75 136 q 92 257 110 257 q 43 299 43 257 q 82 336 43 336 q 161 329 85 336 q 206 425 182 378 q 404 769 329 685 q 365 827 365 785 q 388 899 365 869 q 449 928 411 928 q 505 908 486 928 q 524 858 524 888 q 479 776 524 801 q 526 329 510 699 l 539 329 q 549 315 549 329 q 528 292 549 301 q 550 64 536 64 m 221 322 q 428 324 383 322 q 425 401 426 346 q 422 498 424 457 q 419 583 421 539 q 403 679 414 679 q 340 589 388 679 q 267 436 293 499 q 221 322 231 346 m 483 848 q 483 856 483 848 q 475 875 483 864 q 451 886 467 886 q 424 874 436 886 q 413 844 413 861 q 443 806 413 806 q 472 819 460 806 q 483 848 483 832 z "},"":{"ha":1015,"x_min":13,"x_max":1092,"o":"m 524 217 q 576 67 524 135 q 722 -1 629 -1 q 896 85 814 -1 q 1032 285 978 171 q 1044 311 1038 299 q 1056 332 1051 324 q 1063 345 1060 340 q 1069 356 1065 350 q 1083 364 1075 364 q 1092 353 1092 364 q 1022 182 1092 303 q 869 1 951 61 q 667 -58 788 -58 q 479 10 546 -58 q 413 179 413 78 q 415 279 413 196 q 325 273 408 279 q 200 264 242 267 q 153 119 175 192 q 125 29 132 46 q 51 -7 110 -7 q 13 26 13 -7 q 65 124 13 60 q 129 258 75 136 q 92 257 115 257 q 43 299 43 257 q 82 336 43 336 q 161 329 85 336 q 319 642 224 478 q 456 806 415 806 q 508 638 500 806 q 624 754 543 713 q 781 796 706 796 q 890 763 856 796 q 924 688 924 731 q 904 619 924 644 q 857 593 885 593 q 833 619 833 593 q 840 649 833 628 q 846 689 846 669 q 824 731 846 708 q 767 753 803 753 q 638 697 688 753 q 589 569 589 642 q 624 451 589 497 q 735 481 685 481 q 817 463 786 481 q 849 412 849 446 q 811 361 849 378 q 723 344 774 344 q 594 383 672 344 q 543 302 563 349 q 524 217 524 256 m 221 322 q 418 324 340 322 q 424 522 424 449 q 403 679 424 679 q 321 550 388 679 q 221 322 254 421 m 754 383 q 774 390 767 383 q 781 400 781 396 q 758 428 781 417 q 706 440 736 440 q 649 425 676 440 q 754 383 694 383 m 515 376 l 556 410 q 514 454 532 428 q 515 376 514 400 z "},"":{"ha":572,"x_min":0,"x_max":661,"o":"m 271 -12 q 288 -33 271 -21 q 338 -110 338 -71 q 306 -178 338 -149 q 244 -208 275 -208 q 188 -199 214 -208 q 163 -174 163 -189 q 185 -149 163 -149 q 199 -155 189 -149 q 223 -161 208 -161 q 250 -147 238 -161 q 263 -107 263 -133 q 240 -58 263 -81 q 218 -28 218 -36 q 222 -12 218 -21 q 59 86 118 -1 q 0 268 0 174 q 126 658 0 510 q 424 806 251 806 q 531 767 489 806 q 572 671 572 729 q 543 563 572 613 q 473 513 514 513 q 432 535 432 513 q 459 592 432 560 q 486 656 486 624 q 381 754 486 754 q 192 614 276 754 q 107 325 107 474 q 165 142 107 222 q 331 63 224 63 q 571 229 456 63 q 600 278 581 243 q 652 357 643 357 q 661 346 661 357 q 590 174 661 278 q 458 46 543 104 q 271 -12 372 -12 z "},"":{"ha":614,"x_min":31,"x_max":693,"o":"m 464 669 l 467 707 q 444 765 467 738 q 382 792 421 792 q 261 732 315 792 q 207 605 207 672 q 242 492 207 538 q 353 518 301 518 q 435 501 404 518 q 467 449 467 483 q 433 397 467 414 q 357 381 399 381 q 215 424 279 381 q 162 342 182 389 q 142 254 142 294 q 194 104 142 172 q 335 36 247 36 q 633 278 518 36 q 683 357 672 357 q 693 346 693 357 q 624 178 693 290 q 476 23 556 67 q 280 -21 396 -21 q 97 47 164 -21 q 31 217 31 115 q 70 345 31 283 q 172 451 110 407 q 107 582 107 506 q 189 760 107 688 q 388 833 271 833 q 516 794 464 833 q 568 700 568 754 q 550 650 568 669 q 504 631 532 631 q 464 669 464 631 m 399 438 q 376 466 399 454 q 325 478 354 478 q 268 464 296 478 q 372 421 315 421 q 392 427 385 421 q 399 438 399 433 m 367 1053 q 372 1045 367 1053 q 387 1013 376 1038 q 403 979 397 988 q 413 965 408 971 q 422 954 418 958 q 433 945 426 950 q 444 938 440 940 q 458 930 449 935 q 470 924 467 925 q 485 917 474 922 l 499 910 q 517 886 517 900 q 492 865 517 865 q 429 878 468 865 q 361 911 390 892 q 292 1011 292 958 q 314 1048 292 1026 q 347 1069 336 1069 q 367 1053 357 1069 z "},"":{"ha":614,"x_min":31,"x_max":693,"o":"m 464 669 l 467 707 q 444 765 467 738 q 382 792 421 792 q 261 732 315 792 q 207 605 207 672 q 242 492 207 538 q 353 518 301 518 q 435 501 404 518 q 467 449 467 483 q 433 397 467 414 q 357 381 399 381 q 215 424 279 381 q 162 342 182 389 q 142 254 142 294 q 194 104 142 172 q 335 36 247 36 q 633 278 518 36 q 683 357 672 357 q 693 346 693 357 q 624 178 693 290 q 476 23 556 67 q 280 -21 396 -21 q 97 47 164 -21 q 31 217 31 115 q 70 345 31 283 q 172 451 110 407 q 107 582 107 506 q 189 760 107 688 q 388 833 271 833 q 516 794 464 833 q 568 700 568 754 q 550 650 568 669 q 504 631 532 631 q 464 669 464 631 m 399 438 q 376 466 399 454 q 325 478 354 478 q 268 464 296 478 q 372 421 315 421 q 392 427 385 421 q 399 438 399 433 m 400 1025 q 393 1047 400 1036 q 386 1064 386 1057 q 410 1083 386 1071 q 450 1096 435 1096 q 480 1080 465 1096 q 494 1032 494 1064 q 435 940 494 985 q 370 904 407 919 q 316 889 333 889 q 299 901 299 889 q 318 919 299 908 q 400 1025 399 958 z "},"":{"ha":614,"x_min":31,"x_max":693,"o":"m 464 669 l 467 707 q 444 765 467 738 q 382 792 421 792 q 261 732 315 792 q 207 605 207 672 q 242 492 207 538 q 353 518 301 518 q 435 501 404 518 q 467 449 467 483 q 433 397 467 414 q 357 381 399 381 q 215 424 279 381 q 162 342 182 389 q 142 254 142 294 q 194 104 142 172 q 335 36 247 36 q 633 278 518 36 q 683 357 672 357 q 693 346 693 357 q 624 178 693 290 q 476 23 556 67 q 280 -21 396 -21 q 97 47 164 -21 q 31 217 31 115 q 70 345 31 283 q 172 451 110 407 q 107 582 107 506 q 189 760 107 688 q 388 833 271 833 q 516 794 464 833 q 568 700 568 754 q 550 650 568 669 q 504 631 532 631 q 464 669 464 631 m 399 438 q 376 466 399 454 q 325 478 354 478 q 268 464 296 478 q 372 421 315 421 q 392 427 385 421 q 399 438 399 433 m 554 883 q 554 880 554 883 q 538 865 554 876 q 513 854 521 854 q 392 953 440 854 q 332 893 375 917 q 269 869 289 869 q 247 882 249 869 q 259 893 247 888 q 283 906 271 899 q 310 928 294 914 q 333 951 325 943 q 347 973 342 958 q 354 992 353 988 q 361 1029 361 1008 q 387 1055 363 1040 q 422 1069 411 1069 q 443 1042 439 1069 q 452 997 447 1015 q 475 951 457 979 q 532 900 497 915 q 554 883 554 890 z "},"":{"ha":614,"x_min":31,"x_max":693,"o":"m 464 669 l 467 707 q 444 765 467 738 q 382 792 421 792 q 261 732 315 792 q 207 605 207 672 q 242 492 207 538 q 353 518 301 518 q 435 501 404 518 q 467 449 467 483 q 433 397 467 414 q 357 381 399 381 q 215 424 279 381 q 162 342 182 389 q 142 254 142 294 q 194 104 142 172 q 335 36 247 36 q 633 278 518 36 q 683 357 672 357 q 693 346 693 357 q 624 178 693 290 q 476 23 556 67 q 280 -21 396 -21 q 97 47 164 -21 q 31 217 31 115 q 70 345 31 283 q 172 451 110 407 q 107 582 107 506 q 189 760 107 688 q 388 833 271 833 q 516 794 464 833 q 568 700 568 754 q 550 650 568 669 q 504 631 532 631 q 464 669 464 631 m 399 438 q 376 466 399 454 q 325 478 354 478 q 268 464 296 478 q 372 421 315 421 q 392 427 385 421 q 399 438 399 433 m 296 907 q 259 919 278 907 q 240 960 240 932 q 266 1004 240 988 q 314 1021 292 1021 q 351 1008 336 1021 q 367 978 367 996 q 296 907 367 907 m 497 907 q 459 919 478 907 q 440 960 440 932 q 467 1004 440 988 q 515 1021 493 1021 q 552 1008 538 1021 q 567 978 567 996 q 497 907 567 907 z "},"":{"ha":596,"x_min":38,"x_max":610,"o":"m 515 697 l 521 439 q 201 -28 521 -28 q 88 1 139 -28 q 38 92 38 31 q 57 153 38 129 q 109 178 76 178 q 142 163 142 178 q 133 135 142 156 q 125 95 125 115 q 149 52 125 75 q 219 29 172 29 q 301 49 267 29 q 357 106 336 68 q 391 185 378 144 q 410 286 404 225 q 418 491 418 376 q 421 681 418 606 q 243 528 243 650 q 228 474 243 493 q 192 454 214 454 q 150 501 150 454 q 224 643 150 586 q 426 728 299 700 q 474 820 436 785 q 542 856 511 856 q 591 838 572 856 q 610 792 610 821 q 515 697 610 724 m 553 808 q 517 746 522 808 q 567 786 567 761 q 553 808 567 808 m 357 1053 q 362 1045 357 1053 q 377 1013 367 1038 q 393 979 388 988 q 403 965 399 971 q 413 954 408 958 q 424 945 417 950 q 435 938 431 940 q 448 930 439 935 q 460 924 457 925 q 475 917 464 922 l 489 910 q 507 886 507 900 q 483 865 507 865 q 419 878 458 865 q 351 911 381 892 q 282 1011 282 958 q 304 1048 282 1026 q 337 1069 326 1069 q 357 1053 347 1069 z "},"":{"ha":596,"x_min":38,"x_max":610,"o":"m 515 697 l 521 439 q 201 -28 521 -28 q 88 1 139 -28 q 38 92 38 31 q 57 153 38 129 q 109 178 76 178 q 142 163 142 178 q 133 135 142 156 q 125 95 125 115 q 149 52 125 75 q 219 29 172 29 q 301 49 267 29 q 357 106 336 68 q 391 185 378 144 q 410 286 404 225 q 418 491 418 376 q 421 681 418 606 q 243 528 243 650 q 228 474 243 493 q 192 454 214 454 q 150 501 150 454 q 224 643 150 586 q 426 728 299 700 q 474 820 436 785 q 542 856 511 856 q 591 838 572 856 q 610 792 610 821 q 515 697 610 724 m 553 808 q 517 746 522 808 q 567 786 567 761 q 553 808 567 808 m 426 999 q 419 1020 426 1010 q 413 1038 413 1031 q 437 1057 413 1044 q 476 1069 461 1069 q 506 1053 492 1069 q 521 1006 521 1036 q 461 914 521 958 q 397 878 433 893 q 342 863 360 863 q 325 875 325 863 q 344 893 325 882 q 426 999 425 932 z "},"":{"ha":596,"x_min":38,"x_max":610,"o":"m 515 697 l 521 439 q 201 -28 521 -28 q 88 1 139 -28 q 38 92 38 31 q 57 153 38 129 q 109 178 76 178 q 142 163 142 178 q 133 135 142 156 q 125 95 125 115 q 149 52 125 75 q 219 29 172 29 q 301 49 267 29 q 357 106 336 68 q 391 185 378 144 q 410 286 404 225 q 418 491 418 376 q 421 681 418 606 q 243 528 243 650 q 228 474 243 493 q 192 454 214 454 q 150 501 150 454 q 224 643 150 586 q 426 728 299 700 q 474 820 436 785 q 542 856 511 856 q 591 838 572 856 q 610 792 610 821 q 515 697 610 724 m 553 808 q 517 746 522 808 q 567 786 567 761 q 553 808 567 808 m 583 928 q 588 926 583 928 q 599 919 593 924 q 606 910 606 915 q 589 893 606 904 q 554 882 572 882 q 496 908 536 882 q 433 975 456 935 q 372 915 417 939 q 312 892 326 892 q 288 899 297 892 q 279 913 279 907 q 315 935 279 919 q 401 1031 390 969 q 426 1056 403 1042 q 461 1069 449 1069 q 483 1038 474 1069 q 509 983 492 1006 q 550 947 526 961 q 583 928 574 932 z "},"":{"ha":596,"x_min":38,"x_max":610,"o":"m 515 697 l 521 439 q 201 -28 521 -28 q 88 1 139 -28 q 38 92 38 31 q 57 153 38 129 q 109 178 76 178 q 142 163 142 178 q 133 135 142 156 q 125 95 125 115 q 149 52 125 75 q 219 29 172 29 q 301 49 267 29 q 357 106 336 68 q 391 185 378 144 q 410 286 404 225 q 418 491 418 376 q 421 681 418 606 q 243 528 243 650 q 228 474 243 493 q 192 454 214 454 q 150 501 150 454 q 224 643 150 586 q 426 728 299 700 q 474 820 436 785 q 542 856 511 856 q 591 838 572 856 q 610 792 610 821 q 515 697 610 724 m 553 808 q 517 746 522 808 q 567 786 567 761 q 553 808 567 808 m 288 907 q 251 919 269 907 q 232 960 232 932 q 258 1004 232 988 q 306 1021 283 1021 q 343 1008 328 1021 q 358 978 358 996 q 288 907 358 907 m 489 907 q 451 919 469 907 q 432 960 432 932 q 458 1004 432 988 q 507 1021 485 1021 q 544 1008 529 1021 q 558 978 558 996 q 489 907 558 907 z "},"":{"ha":879,"x_min":0,"x_max":819,"o":"m 79 499 l 88 410 q 73 388 88 396 q 49 379 58 379 q 15 410 29 379 q 0 468 0 442 q 72 642 0 571 q 253 750 143 714 q 254 764 253 760 q 281 853 263 825 q 336 882 300 882 q 354 831 354 882 l 354 772 q 419 778 399 778 q 712 674 604 778 q 819 414 819 571 q 781 222 819 306 q 675 90 742 139 q 356 -7 542 -7 l 326 -7 q 314 -47 322 -47 q 228 -29 250 -47 q 217 4 218 -19 q 128 38 169 14 q 93 75 93 56 q 103 102 93 94 q 124 110 113 110 q 217 76 136 110 q 225 279 219 172 q 131 289 186 279 q 76 315 76 299 q 111 331 76 331 l 228 326 q 249 701 240 568 q 126 622 172 675 q 79 499 79 569 m 382 724 q 353 722 363 724 q 340 361 349 564 q 364 375 351 367 q 406 390 386 390 q 447 383 426 390 q 468 363 468 375 q 338 293 468 325 q 334 192 336 247 q 331 101 332 136 q 329 43 331 67 q 388 39 356 39 q 617 137 519 39 q 714 378 714 235 q 621 622 714 521 q 382 724 528 724 z "},"":{"ha":690,"x_min":0,"x_max":806,"o":"m 311 513 q 249 238 289 371 q 163 42 210 104 q 49 -21 115 -21 q 0 17 0 -21 q 21 60 0 47 q 70 78 42 72 q 107 93 99 85 q 202 287 158 147 q 265 571 246 426 q 206 672 206 633 q 228 762 206 711 q 281 813 250 813 q 313 768 299 813 q 326 657 326 724 q 439 499 399 565 q 557 737 482 640 q 729 833 632 833 q 785 808 764 833 q 806 753 806 783 q 794 698 806 722 q 763 674 782 674 q 743 693 743 674 q 731 723 743 713 q 701 733 719 733 q 594 674 644 733 q 476 432 524 589 q 568 113 568 235 q 546 24 568 63 q 481 -14 524 -14 q 389 142 389 -14 q 406 350 389 251 q 311 513 364 439 m 439 258 q 432 156 432 208 q 439 74 432 103 q 454 44 446 44 q 471 101 471 44 q 439 258 471 158 m 350 971 q 365 971 350 971 q 449 942 379 971 q 534 914 519 914 q 564 937 549 914 q 588 960 579 960 q 606 930 606 960 q 574 867 606 900 q 506 833 542 833 q 419 863 469 833 q 343 893 369 893 q 324 874 333 893 q 304 854 315 854 q 281 882 281 854 q 301 940 281 910 q 350 971 321 971 z "},"":{"ha":814,"x_min":29,"x_max":894,"o":"m 29 310 q 65 494 29 403 q 167 644 100 585 q 253 791 183 735 q 454 847 324 847 q 663 745 585 847 q 742 479 742 643 q 710 276 742 372 q 826 333 774 299 q 879 367 878 367 q 894 349 894 367 q 828 290 894 333 q 690 228 761 246 q 544 51 639 115 q 316 -14 450 -14 q 106 76 182 -14 q 29 310 29 165 m 615 260 q 633 399 633 322 q 572 676 633 563 q 396 790 510 790 q 299 763 347 790 q 231 690 251 736 q 377 731 303 731 q 451 710 451 731 q 442 690 451 697 q 422 683 432 683 q 219 603 303 683 q 344 360 231 461 q 615 260 457 260 m 368 57 q 600 214 535 57 q 310 301 433 214 q 165 531 188 389 q 126 365 126 457 q 197 148 126 239 q 368 57 267 57 m 435 1053 q 440 1045 435 1053 q 455 1013 444 1038 q 471 979 465 988 q 481 965 476 971 q 490 954 486 958 q 501 945 494 950 q 513 938 508 940 q 526 930 517 935 q 538 924 535 925 q 553 917 542 922 l 567 910 q 585 886 585 900 q 560 865 585 865 q 497 878 536 865 q 429 911 458 892 q 360 1011 360 958 q 382 1048 360 1026 q 415 1069 404 1069 q 435 1053 425 1069 z "},"":{"ha":817,"x_min":29,"x_max":894,"o":"m 29 310 q 65 494 29 403 q 167 644 100 585 q 253 791 183 735 q 454 847 324 847 q 663 745 585 847 q 742 479 742 643 q 710 276 742 372 q 826 333 774 299 q 879 367 878 367 q 894 349 894 367 q 828 290 894 333 q 690 228 761 246 q 544 51 639 115 q 316 -14 450 -14 q 106 76 182 -14 q 29 310 29 165 m 615 260 q 633 399 633 322 q 572 676 633 563 q 396 790 510 790 q 299 763 347 790 q 231 690 251 736 q 377 731 303 731 q 451 710 451 731 q 442 690 451 697 q 422 683 432 683 q 219 603 303 683 q 344 360 231 461 q 615 260 457 260 m 368 57 q 600 214 535 57 q 310 301 433 214 q 165 531 188 389 q 126 365 126 457 q 197 148 126 239 q 368 57 267 57 m 460 1025 q 453 1047 460 1036 q 446 1064 446 1057 q 470 1083 446 1071 q 510 1096 494 1096 q 540 1080 525 1096 q 554 1032 554 1064 q 494 940 554 985 q 430 904 467 919 q 376 889 393 889 q 358 901 358 889 q 378 919 358 908 q 460 1025 458 958 z "},"":{"ha":817,"x_min":29,"x_max":894,"o":"m 613 883 q 613 880 613 883 q 596 865 613 876 q 571 854 579 854 q 450 953 499 854 q 390 893 433 917 q 327 869 347 869 q 306 882 307 869 q 317 893 306 888 q 341 906 329 899 q 368 928 353 914 q 392 951 383 943 q 406 973 400 958 q 413 992 411 988 q 419 1029 419 1008 q 445 1055 421 1040 q 481 1069 469 1069 q 501 1042 497 1069 q 510 997 506 1015 q 533 951 515 979 q 590 900 556 915 q 613 883 613 890 m 29 310 q 65 494 29 403 q 167 644 100 585 q 253 791 183 735 q 454 847 324 847 q 663 745 585 847 q 742 479 742 643 q 710 276 742 372 q 826 333 774 299 q 879 367 878 367 q 894 349 894 367 q 828 290 894 333 q 690 228 761 246 q 544 51 639 115 q 316 -14 450 -14 q 106 76 182 -14 q 29 310 29 165 m 615 260 q 633 399 633 322 q 572 676 633 563 q 396 790 510 790 q 299 763 347 790 q 231 690 251 736 q 377 731 303 731 q 451 710 451 731 q 442 690 451 697 q 422 683 432 683 q 219 603 303 683 q 344 360 231 461 q 615 260 457 260 m 368 57 q 600 214 535 57 q 310 301 433 214 q 165 531 188 389 q 126 365 126 457 q 197 148 126 239 q 368 57 267 57 z "},"":{"ha":817,"x_min":29,"x_max":894,"o":"m 29 310 q 65 494 29 403 q 167 644 100 585 q 253 791 183 735 q 454 847 324 847 q 663 745 585 847 q 742 479 742 643 q 710 276 742 372 q 826 333 774 299 q 879 367 878 367 q 894 349 894 367 q 828 290 894 333 q 690 228 761 246 q 544 51 639 115 q 316 -14 450 -14 q 106 76 182 -14 q 29 310 29 165 m 615 260 q 633 399 633 322 q 572 676 633 563 q 396 790 510 790 q 299 763 347 790 q 231 690 251 736 q 377 731 303 731 q 451 710 451 731 q 442 690 451 697 q 422 683 432 683 q 219 603 303 683 q 344 360 231 461 q 615 260 457 260 m 368 57 q 600 214 535 57 q 310 301 433 214 q 165 531 188 389 q 126 365 126 457 q 197 148 126 239 q 368 57 267 57 m 351 1071 q 366 1071 351 1071 q 451 1042 381 1071 q 535 1014 521 1014 q 565 1037 550 1014 q 589 1060 581 1060 q 607 1030 607 1060 q 575 967 607 1000 q 507 933 543 933 q 421 963 471 933 q 344 993 371 993 q 326 974 335 993 q 306 954 317 954 q 282 982 282 954 q 302 1040 282 1010 q 351 1071 322 1071 z "},"":{"ha":819,"x_min":29,"x_max":894,"o":"m 29 310 q 65 494 29 403 q 167 644 100 585 q 253 791 183 735 q 454 847 324 847 q 663 745 585 847 q 742 479 742 643 q 710 276 742 372 q 826 333 774 299 q 879 367 878 367 q 894 349 894 367 q 828 290 894 333 q 690 228 761 246 q 544 51 639 115 q 316 -14 450 -14 q 106 76 182 -14 q 29 310 29 165 m 615 260 q 633 399 633 322 q 572 676 633 563 q 396 790 510 790 q 299 763 347 790 q 231 690 251 736 q 377 731 303 731 q 451 710 451 731 q 442 690 451 697 q 422 683 432 683 q 219 603 303 683 q 344 360 231 461 q 615 260 457 260 m 368 57 q 600 214 535 57 q 310 301 433 214 q 165 531 188 389 q 126 365 126 457 q 197 148 126 239 q 368 57 267 57 m 336 907 q 299 919 318 907 q 281 960 281 932 q 306 1004 281 988 q 354 1021 332 1021 q 392 1008 376 1021 q 407 978 407 996 q 336 907 407 907 m 538 907 q 499 919 518 907 q 481 960 481 932 q 507 1004 481 988 q 556 1021 533 1021 q 592 1008 578 1021 q 607 978 607 996 q 538 907 607 907 z "},"":{"ha":618,"x_min":83,"x_max":499,"o":"m 301 399 l 431 525 q 480 556 461 556 q 499 542 499 556 q 426 456 499 531 q 329 353 354 381 q 453 197 393 242 q 488 163 488 171 q 470 132 488 144 q 431 119 453 119 q 269 288 360 119 q 219 226 244 258 q 180 177 193 193 q 153 146 167 161 q 115 119 131 119 q 83 151 83 119 q 117 218 83 181 q 168 272 151 256 q 240 340 228 332 q 190 448 207 408 q 169 491 172 488 q 159 501 167 494 q 147 513 151 508 q 136 538 136 524 q 164 560 136 560 q 189 554 178 560 q 301 399 221 540 z "},"":{"ha":835,"x_min":50,"x_max":765,"o":"m 479 822 q 528 907 497 907 q 553 881 553 907 q 538 817 553 868 q 705 712 644 797 q 765 494 765 626 q 719 252 765 363 q 581 69 672 142 q 367 -12 489 -4 q 288 -119 354 -119 q 254 -109 268 -119 q 240 -75 240 -99 q 275 -7 240 -51 q 111 101 172 14 q 50 294 50 188 q 75 490 50 400 q 150 656 100 581 q 285 777 200 732 q 479 822 369 822 m 438 758 q 219 649 289 758 q 149 358 149 539 q 197 184 149 264 q 315 72 246 104 q 403 451 354 193 q 464 756 453 708 q 438 758 447 758 m 518 736 q 442 369 488 608 q 381 57 396 129 q 585 154 515 57 q 656 413 656 251 q 618 613 656 525 q 518 736 581 700 z "},"":{"ha":721,"x_min":0,"x_max":785,"o":"m 578 64 q 643 122 601 64 q 726 270 685 179 q 776 361 767 361 q 785 350 785 361 q 744 226 785 311 q 560 -7 635 -7 q 469 14 496 -7 q 458 68 458 25 q 465 201 458 111 q 353 52 413 111 q 237 -7 294 -7 q 143 55 179 -7 q 107 222 107 117 q 128 484 107 326 q 149 718 149 642 q 139 738 149 738 q 88 705 117 738 q 50 604 60 672 q 38 577 49 589 q 17 565 28 565 q 0 593 0 565 q 28 672 0 621 q 101 764 56 722 q 189 806 146 806 q 238 726 239 806 q 221 493 238 646 q 204 264 204 340 q 276 69 204 69 q 374 136 318 69 q 472 292 429 203 q 513 732 500 647 q 556 775 515 744 q 617 806 596 806 q 639 725 639 806 q 629 619 639 664 q 605 515 619 575 q 583 426 590 456 q 569 101 569 240 q 578 64 569 64 m 351 1053 q 356 1045 351 1053 q 372 1013 361 1038 q 388 979 382 988 q 398 965 393 971 q 407 954 403 958 q 418 945 411 950 q 429 938 425 940 q 442 930 433 935 q 455 924 451 925 q 469 917 458 922 l 483 910 q 501 886 501 900 q 477 865 501 865 q 414 878 453 865 q 346 911 375 892 q 276 1011 276 958 q 299 1048 276 1026 q 331 1069 321 1069 q 351 1053 342 1069 z "},"":{"ha":721,"x_min":0,"x_max":785,"o":"m 578 64 q 643 122 601 64 q 726 270 685 179 q 776 361 767 361 q 785 350 785 361 q 744 226 785 311 q 560 -7 635 -7 q 469 14 496 -7 q 458 68 458 25 q 465 201 458 111 q 353 52 413 111 q 237 -7 294 -7 q 143 55 179 -7 q 107 222 107 117 q 128 484 107 326 q 149 718 149 642 q 139 738 149 738 q 88 705 117 738 q 50 604 60 672 q 38 577 49 589 q 17 565 28 565 q 0 593 0 565 q 28 672 0 621 q 101 764 56 722 q 189 806 146 806 q 238 726 239 806 q 221 493 238 646 q 204 264 204 340 q 276 69 204 69 q 374 136 318 69 q 472 292 429 203 q 513 732 500 647 q 556 775 515 744 q 617 806 596 806 q 639 725 639 806 q 629 619 639 664 q 605 515 619 575 q 583 426 590 456 q 569 101 569 240 q 578 64 569 64 m 418 999 q 411 1020 418 1010 q 404 1038 404 1031 q 428 1057 404 1044 q 468 1069 453 1069 q 498 1053 483 1069 q 513 1006 513 1036 q 453 914 513 958 q 388 878 425 893 q 334 863 351 863 q 317 875 317 863 q 336 893 317 882 q 418 999 417 932 z "},"":{"ha":721,"x_min":0,"x_max":785,"o":"m 578 64 q 643 122 601 64 q 726 270 685 179 q 776 361 767 361 q 785 350 785 361 q 744 226 785 311 q 560 -7 635 -7 q 469 14 496 -7 q 458 68 458 25 q 465 201 458 111 q 353 52 413 111 q 237 -7 294 -7 q 143 55 179 -7 q 107 222 107 117 q 128 484 107 326 q 149 718 149 642 q 139 738 149 738 q 88 705 117 738 q 50 604 60 672 q 38 577 49 589 q 17 565 28 565 q 0 593 0 565 q 28 672 0 621 q 101 764 56 722 q 189 806 146 806 q 238 726 239 806 q 221 493 238 646 q 204 264 204 340 q 276 69 204 69 q 374 136 318 69 q 472 292 429 203 q 513 732 500 647 q 556 775 515 744 q 617 806 596 806 q 639 725 639 806 q 629 619 639 664 q 605 515 619 575 q 583 426 590 456 q 569 101 569 240 q 578 64 569 64 m 553 883 q 553 880 553 883 q 536 865 553 876 q 511 854 519 854 q 390 953 439 854 q 331 893 374 917 q 267 869 288 869 q 246 882 247 869 q 258 893 246 888 q 281 906 269 899 q 308 928 293 914 q 332 951 324 943 q 346 973 340 958 q 353 992 351 988 q 360 1029 360 1008 q 385 1055 361 1040 q 421 1069 410 1069 q 442 1042 438 1069 q 451 997 446 1015 q 472 951 456 979 q 531 900 496 915 q 553 883 553 890 z "},"":{"ha":721,"x_min":0,"x_max":783,"o":"m 578 64 q 642 122 600 64 q 724 270 683 179 q 774 361 765 361 q 783 350 783 361 q 743 226 783 311 q 560 -7 633 -7 q 469 14 496 -7 q 458 68 458 25 q 465 201 458 111 q 353 52 413 111 q 237 -7 294 -7 q 143 55 179 -7 q 107 222 107 117 q 128 484 107 326 q 149 718 149 642 q 139 738 149 738 q 88 705 117 738 q 50 604 60 672 q 38 577 49 589 q 17 565 28 565 q 0 593 0 565 q 28 672 0 621 q 101 764 56 722 q 189 806 146 806 q 238 726 239 806 q 221 493 238 646 q 204 264 204 340 q 276 69 204 69 q 374 136 318 69 q 472 292 429 203 q 513 732 500 647 q 556 775 515 744 q 617 806 596 806 q 639 725 639 806 q 629 619 639 664 q 605 515 619 575 q 583 426 590 456 q 569 101 569 240 q 578 64 569 64 m 281 865 q 244 878 263 865 q 225 918 225 890 q 251 963 225 946 q 299 979 276 979 q 336 967 321 979 q 351 936 351 954 q 281 865 351 865 m 482 865 q 444 878 463 865 q 425 918 425 890 q 451 963 425 946 q 500 979 478 979 q 537 967 522 979 q 551 936 551 954 q 482 865 551 865 z "},"":{"ha":721,"x_min":8,"x_max":721,"o":"m 157 718 q 147 738 157 738 q 97 705 125 738 q 58 604 68 672 q 47 577 57 589 q 25 565 36 565 q 8 593 8 565 q 36 672 8 621 q 109 764 64 722 q 197 806 154 806 q 247 726 247 806 q 229 493 246 646 q 213 264 213 340 q 285 69 213 69 q 408 168 338 69 q 514 369 478 267 q 557 760 542 672 q 600 803 560 772 q 662 833 640 833 q 683 768 683 833 q 669 636 683 692 q 622 454 632 493 q 599 139 606 343 q 704 171 660 171 q 721 159 721 171 q 704 140 721 147 q 596 89 647 122 q 553 -333 596 -221 q 372 -444 511 -444 q 219 -315 219 -444 q 294 -119 219 -219 q 493 71 368 -18 q 504 258 497 158 q 380 71 449 149 q 249 -7 311 -7 q 151 55 188 -7 q 115 222 115 117 q 136 484 115 326 q 157 718 157 642 m 489 13 q 362 -127 410 -46 q 314 -270 314 -208 q 338 -363 314 -332 q 392 -394 361 -394 q 458 -302 435 -394 q 489 13 481 -210 m 433 999 q 426 1020 433 1010 q 419 1038 419 1031 q 444 1057 419 1044 q 483 1069 468 1069 q 513 1053 499 1069 q 528 1006 528 1036 q 468 914 528 958 q 403 878 440 893 q 349 863 367 863 q 332 875 332 863 q 351 893 332 882 q 433 999 432 932 z "},"":{"ha":746,"x_min":0,"x_max":724,"o":"m 363 882 q 382 833 382 882 q 368 657 382 785 q 422 658 381 658 q 515 647 463 658 q 616 613 567 636 q 694 542 665 589 q 724 431 724 494 q 626 260 724 328 q 399 193 529 193 l 357 193 q 261 -37 353 -37 q 197 17 197 -37 q 210 56 197 33 q 246 207 240 110 q 190 247 190 221 q 199 271 190 261 q 222 281 207 281 q 250 276 236 281 l 264 600 q 142 549 190 585 q 93 465 93 513 q 78 422 93 438 q 42 406 64 406 q 0 444 0 406 q 76 569 0 517 q 267 646 151 622 q 294 813 269 744 q 363 882 319 882 m 619 399 q 545 557 619 504 q 364 611 471 610 q 357 242 357 531 q 386 239 367 239 q 561 285 503 239 q 619 399 619 331 z "},"":{"ha":561,"x_min":-60,"x_max":499,"o":"m 81 646 q 100 692 81 646 q 180 785 118 738 q 315 833 242 833 q 463 696 463 833 q 436 589 463 649 q 367 485 410 529 q 499 263 499 429 q 426 72 499 150 q 233 -7 354 -7 q 167 8 201 -7 q 132 43 132 22 q 158 76 132 76 q 201 56 172 76 q 254 36 231 36 q 351 104 314 36 q 388 251 388 172 q 306 435 388 389 q 214 408 261 408 q 167 447 167 408 q 188 490 167 472 q 243 507 208 507 q 315 500 278 507 q 358 581 344 533 q 372 674 372 628 q 352 749 372 719 q 297 778 332 778 q 149 572 197 778 q 97 31 100 365 q 6 -210 93 -210 q -60 -156 -58 -210 q -49 -119 -60 -139 q -30 -81 -37 -99 q -17 -41 -22 -64 q -10 -6 -12 -18 q -5 37 -7 7 q -3 75 -3 67 q 4 222 1 121 q 26 438 7 322 q 81 646 44 554 z "},"":{"ha":532,"x_min":0,"x_max":615,"o":"m 390 -7 q 308 15 336 -7 q 299 65 299 25 q 301 171 299 104 q 230 37 265 81 q 139 -7 194 -7 q 42 45 83 -7 q 0 209 0 97 q 63 407 0 321 q 229 493 126 493 q 329 435 274 493 q 369 472 340 450 q 417 493 397 493 q 438 440 438 493 q 430 386 438 426 q 413 328 422 346 q 400 101 400 296 q 408 64 400 64 q 474 123 432 65 q 556 271 515 181 q 606 361 597 361 q 615 350 615 361 q 575 226 615 311 q 390 -7 465 -7 m 221 438 q 138 380 182 438 q 94 244 94 322 q 117 117 94 167 q 178 67 140 67 q 313 296 224 67 q 316 334 314 307 q 319 375 318 361 q 276 417 307 397 q 221 438 244 438 m 228 762 q 233 754 228 762 q 248 721 238 746 q 264 688 258 696 q 274 673 269 679 q 283 663 279 667 q 294 653 288 658 q 306 646 301 649 q 319 638 310 643 q 331 632 328 633 q 346 625 335 631 l 360 618 q 378 594 378 608 q 353 574 378 574 q 290 587 329 574 q 222 619 251 600 q 153 719 153 667 q 175 756 153 735 q 208 778 197 778 q 228 762 218 778 z "},"":{"ha":532,"x_min":0,"x_max":615,"o":"m 390 -7 q 308 15 336 -7 q 299 65 299 25 q 301 171 299 104 q 230 37 265 81 q 139 -7 194 -7 q 42 45 83 -7 q 0 209 0 97 q 63 407 0 321 q 229 493 126 493 q 329 435 274 493 q 369 472 340 450 q 417 493 397 493 q 438 440 438 493 q 430 386 438 426 q 413 328 422 346 q 400 101 400 296 q 408 64 400 64 q 474 123 432 65 q 556 271 515 181 q 606 361 597 361 q 615 350 615 361 q 575 226 615 311 q 390 -7 465 -7 m 221 438 q 138 380 182 438 q 94 244 94 322 q 117 117 94 167 q 178 67 140 67 q 313 296 224 67 q 316 334 314 307 q 319 375 318 361 q 276 417 307 397 q 221 438 244 438 m 283 707 q 276 728 283 718 q 269 746 269 739 q 294 765 269 753 q 333 778 318 778 q 363 761 349 778 q 378 714 378 744 q 318 622 378 667 q 253 586 290 601 q 199 571 217 571 q 182 583 182 571 q 201 601 182 590 q 283 707 282 640 z "},"":{"ha":532,"x_min":0,"x_max":615,"o":"m 390 -7 q 308 15 336 -7 q 299 65 299 25 q 301 171 299 104 q 230 37 265 81 q 139 -7 194 -7 q 42 45 83 -7 q 0 209 0 97 q 63 407 0 321 q 229 493 126 493 q 329 435 274 493 q 369 472 340 450 q 417 493 397 493 q 438 440 438 493 q 430 386 438 426 q 413 328 422 346 q 400 101 400 296 q 408 64 400 64 q 474 123 432 65 q 556 271 515 181 q 606 361 597 361 q 615 350 615 361 q 575 226 615 311 q 390 -7 465 -7 m 221 438 q 138 380 182 438 q 94 244 94 322 q 117 117 94 167 q 178 67 140 67 q 313 296 224 67 q 316 334 314 307 q 319 375 318 361 q 276 417 307 397 q 221 438 244 438 m 415 601 q 415 598 415 601 q 399 583 415 594 q 374 572 382 572 q 253 671 301 572 q 193 611 236 635 q 130 588 150 588 q 108 600 110 588 q 120 611 108 606 q 144 624 132 617 q 171 647 156 632 q 194 669 186 661 q 208 691 203 676 q 215 708 214 706 q 222 747 222 726 q 248 773 224 758 q 283 788 272 788 q 304 760 300 788 q 313 715 308 733 q 336 669 318 697 q 393 618 358 633 q 415 601 415 608 z "},"":{"ha":532,"x_min":0,"x_max":615,"o":"m 390 -7 q 308 15 336 -7 q 299 65 299 25 q 301 171 299 104 q 230 37 265 81 q 139 -7 194 -7 q 42 45 83 -7 q 0 209 0 97 q 63 407 0 321 q 229 493 126 493 q 329 435 274 493 q 369 472 340 450 q 417 493 397 493 q 438 440 438 493 q 430 386 438 426 q 413 328 422 346 q 400 101 400 296 q 408 64 400 64 q 474 123 432 65 q 556 271 515 181 q 606 361 597 361 q 615 350 615 361 q 575 226 615 311 q 390 -7 465 -7 m 221 438 q 138 380 182 438 q 94 244 94 322 q 117 117 94 167 q 178 67 140 67 q 313 296 224 67 q 316 334 314 307 q 319 375 318 361 q 276 417 307 397 q 221 438 244 438 m 185 750 q 199 750 185 750 q 284 722 214 750 q 369 693 354 693 q 399 716 383 693 q 422 739 414 739 q 440 709 440 739 q 408 646 440 679 q 340 613 376 613 q 254 642 304 613 q 178 672 204 672 q 159 653 168 672 q 139 633 150 633 q 115 661 115 633 q 135 719 115 689 q 185 750 156 750 z "},"":{"ha":532,"x_min":0,"x_max":615,"o":"m 390 -7 q 308 15 336 -7 q 299 65 299 25 q 301 171 299 104 q 230 37 265 81 q 139 -7 194 -7 q 42 45 83 -7 q 0 209 0 97 q 63 407 0 321 q 229 493 126 493 q 329 435 274 493 q 369 472 340 450 q 417 493 397 493 q 438 440 438 493 q 430 386 438 426 q 413 328 422 346 q 400 101 400 296 q 408 64 400 64 q 474 123 432 65 q 556 271 515 181 q 606 361 597 361 q 615 350 615 361 q 575 226 615 311 q 390 -7 465 -7 m 221 438 q 138 380 182 438 q 94 244 94 322 q 117 117 94 167 q 178 67 140 67 q 313 296 224 67 q 316 334 314 307 q 319 375 318 361 q 276 417 307 397 q 221 438 244 438 m 172 622 q 135 635 154 622 q 117 675 117 647 q 142 719 117 703 q 190 736 168 736 q 228 724 213 736 q 243 693 243 711 q 172 622 243 622 m 374 622 q 335 635 354 622 q 317 675 317 647 q 343 719 317 703 q 392 736 369 736 q 428 724 414 736 q 443 693 443 711 q 374 622 443 622 z "},"":{"ha":532,"x_min":0,"x_max":615,"o":"m 390 -7 q 308 15 336 -7 q 299 65 299 25 q 301 171 299 104 q 230 37 265 81 q 139 -7 194 -7 q 42 45 83 -7 q 0 209 0 97 q 63 407 0 321 q 229 493 126 493 q 329 435 274 493 q 369 472 340 450 q 417 493 397 493 q 438 440 438 493 q 430 386 438 426 q 413 328 422 346 q 400 101 400 296 q 408 64 400 64 q 474 123 432 65 q 556 271 515 181 q 606 361 597 361 q 615 350 615 361 q 575 226 615 311 q 390 -7 465 -7 m 221 438 q 138 380 182 438 q 94 244 94 322 q 117 117 94 167 q 178 67 140 67 q 313 296 224 67 q 316 334 314 307 q 319 375 318 361 q 276 417 307 397 q 221 438 244 438 m 197 677 q 197 693 197 677 q 222 738 197 708 q 285 767 247 767 q 341 745 322 767 q 360 690 360 724 q 334 630 360 656 q 272 604 308 604 q 216 625 235 604 q 197 677 197 646 m 319 687 q 319 695 319 687 q 311 714 319 703 q 288 725 303 725 q 262 713 274 725 q 250 683 250 700 q 279 644 250 644 q 308 658 296 644 q 319 687 319 671 z "},"":{"ha":665,"x_min":11,"x_max":757,"o":"m 486 65 q 618 140 560 65 q 719 314 676 217 q 735 350 729 339 q 749 361 742 361 q 757 350 757 361 q 672 142 757 281 q 444 -7 581 -7 q 322 60 365 -7 q 159 -7 226 -7 q 51 44 92 -7 q 11 208 11 96 q 74 407 11 321 q 240 493 138 493 q 299 472 267 493 q 351 424 331 451 q 504 493 408 493 q 560 474 539 493 q 582 403 582 454 q 531 270 582 353 q 403 124 479 188 q 486 65 431 65 m 289 186 q 326 383 289 310 q 232 438 286 438 q 149 380 193 438 q 106 243 106 322 q 126 115 106 164 q 196 67 147 67 q 301 101 244 67 q 289 186 289 142 m 389 171 q 475 283 443 219 q 507 398 507 347 q 479 449 507 449 q 412 375 439 449 q 385 217 385 301 q 389 171 385 194 z "},"":{"ha":397,"x_min":0,"x_max":475,"o":"m 249 338 l 260 408 q 250 436 260 424 q 225 449 240 449 q 136 372 174 449 q 99 224 99 294 q 128 109 99 153 q 199 65 157 65 q 275 85 242 65 q 336 140 308 104 q 436 314 394 217 q 453 350 447 339 q 467 361 460 361 q 475 350 475 361 q 431 215 475 304 q 327 63 386 125 q 179 -6 268 0 q 174 -17 174 -10 q 190 -35 174 -24 q 240 -108 240 -68 q 209 -178 240 -149 q 147 -208 178 -208 q 91 -199 117 -208 q 65 -174 65 -189 q 88 -149 65 -149 q 101 -155 92 -149 q 126 -161 111 -161 q 153 -147 140 -161 q 165 -107 165 -133 q 143 -58 165 -81 q 121 -28 121 -36 q 131 -4 121 -19 q 33 59 65 7 q 0 169 0 111 q 69 410 0 328 q 243 493 138 493 q 313 470 288 493 q 339 418 339 447 q 319 338 339 364 q 272 311 300 311 q 249 338 249 311 z "},"":{"ha":407,"x_min":0,"x_max":481,"o":"m 169 -7 q 46 52 92 -7 q 0 186 0 111 q 64 415 0 338 q 229 493 128 493 q 307 467 276 493 q 338 397 338 442 q 267 258 338 314 q 96 199 197 201 q 133 105 101 144 q 206 65 164 65 q 281 85 247 65 q 342 140 314 104 q 442 314 400 217 q 459 350 453 339 q 473 361 465 361 q 481 350 481 361 q 396 142 481 281 q 169 -7 304 -7 m 96 232 q 216 285 178 246 q 254 386 254 324 q 214 449 254 449 q 132 381 165 449 q 96 232 99 314 m 204 762 q 209 754 204 762 q 224 721 214 746 q 240 688 235 696 q 251 673 246 679 q 260 663 256 667 q 271 653 264 658 q 282 646 278 649 q 295 638 286 643 q 308 632 304 633 q 322 625 311 631 l 336 618 q 354 594 354 608 q 330 574 354 574 q 267 587 306 574 q 199 619 228 600 q 129 719 129 667 q 151 756 129 735 q 184 778 174 778 q 204 762 194 778 z "},"":{"ha":407,"x_min":0,"x_max":481,"o":"m 169 -7 q 46 52 92 -7 q 0 186 0 111 q 64 415 0 338 q 229 493 128 493 q 307 467 276 493 q 338 397 338 442 q 267 258 338 314 q 96 199 197 201 q 133 105 101 144 q 206 65 164 65 q 281 85 247 65 q 342 140 314 104 q 442 314 400 217 q 459 350 453 339 q 473 361 465 361 q 481 350 481 361 q 396 142 481 281 q 169 -7 304 -7 m 96 232 q 216 285 178 246 q 254 386 254 324 q 214 449 254 449 q 132 381 165 449 q 96 232 99 314 m 247 707 q 240 728 247 718 q 233 746 233 739 q 258 765 233 753 q 297 778 282 778 q 327 761 313 778 q 342 714 342 744 q 282 622 342 667 q 217 586 254 601 q 163 571 181 571 q 146 583 146 571 q 165 601 146 590 q 247 707 246 640 z "},"":{"ha":407,"x_min":0,"x_max":481,"o":"m 169 -7 q 46 52 92 -7 q 0 186 0 111 q 64 415 0 338 q 229 493 128 493 q 307 467 276 493 q 338 397 338 442 q 267 258 338 314 q 96 199 197 201 q 133 105 101 144 q 206 65 164 65 q 281 85 247 65 q 342 140 314 104 q 442 314 400 217 q 459 350 453 339 q 473 361 465 361 q 481 350 481 361 q 396 142 481 281 q 169 -7 304 -7 m 96 232 q 216 285 178 246 q 254 386 254 324 q 214 449 254 449 q 132 381 165 449 q 96 232 99 314 m 399 613 q 399 609 399 613 q 382 594 399 606 q 357 583 365 583 q 236 682 285 583 q 176 622 219 646 q 113 599 133 599 q 92 611 93 599 q 103 622 92 617 q 127 635 115 628 q 154 658 139 643 q 178 680 169 672 q 192 702 186 688 q 199 719 197 717 q 206 758 206 738 q 231 784 207 769 q 267 799 256 799 q 288 772 283 799 q 297 726 292 744 q 319 681 301 708 q 376 629 342 644 q 399 613 399 619 z "},"":{"ha":407,"x_min":0,"x_max":481,"o":"m 169 -7 q 46 52 92 -7 q 0 186 0 111 q 64 415 0 338 q 229 493 128 493 q 307 467 276 493 q 338 397 338 442 q 267 258 338 314 q 96 199 197 201 q 133 105 101 144 q 206 65 164 65 q 281 85 247 65 q 342 140 314 104 q 442 314 400 217 q 459 350 453 339 q 473 361 465 361 q 481 350 481 361 q 396 142 481 281 q 169 -7 304 -7 m 96 232 q 216 285 178 246 q 254 386 254 324 q 214 449 254 449 q 132 381 165 449 q 96 232 99 314 m 129 622 q 92 635 111 622 q 74 675 74 647 q 99 719 74 703 q 147 736 125 736 q 185 724 169 736 q 200 693 200 711 q 129 622 200 622 m 331 622 q 292 635 311 622 q 274 675 274 647 q 300 719 274 703 q 349 736 326 736 q 385 724 371 736 q 400 693 400 711 q 331 622 400 622 z "},"":{"ha":243,"x_min":0,"x_max":317,"o":"m 92 -7 q 10 15 38 -7 q 0 85 0 25 q 9 284 0 144 q 25 435 18 424 q 68 476 32 446 q 124 507 104 507 q 144 454 144 507 q 137 401 144 442 q 119 342 129 361 q 101 101 101 303 q 110 64 101 64 q 175 123 133 65 q 258 271 217 181 q 308 361 299 361 q 317 350 317 361 q 276 226 317 311 q 92 -7 167 -7 m 85 766 q 90 758 85 766 q 105 725 94 750 q 121 692 115 700 q 131 677 126 683 q 140 667 136 671 q 151 658 144 663 q 163 650 158 653 q 176 642 167 647 q 188 636 185 638 q 203 629 192 635 l 217 622 q 235 599 235 614 q 210 578 235 578 q 147 591 186 578 q 79 624 108 604 q 10 724 10 671 q 32 760 10 739 q 65 782 54 782 q 85 766 75 782 z "},"":{"ha":243,"x_min":0,"x_max":317,"o":"m 92 -7 q 10 15 38 -7 q 0 85 0 25 q 9 284 0 144 q 25 435 18 424 q 68 476 32 446 q 124 507 104 507 q 144 454 144 507 q 137 401 144 442 q 119 342 129 361 q 101 101 101 303 q 110 64 101 64 q 175 123 133 65 q 258 271 217 181 q 308 361 299 361 q 317 350 317 361 q 276 226 317 311 q 92 -7 167 -7 m 125 707 q 118 728 125 718 q 111 746 111 739 q 135 765 111 753 q 175 778 160 778 q 205 761 190 778 q 219 714 219 744 q 160 622 219 667 q 95 586 132 601 q 41 571 58 571 q 24 583 24 571 q 43 601 24 590 q 125 707 124 640 z "},"":{"ha":243,"x_min":-44,"x_max":317,"o":"m 92 -7 q 10 15 38 -7 q 0 85 0 25 q 9 284 0 144 q 25 435 18 424 q 68 476 32 446 q 124 507 104 507 q 144 454 144 507 q 137 401 144 442 q 119 342 129 361 q 101 101 101 303 q 110 64 101 64 q 175 123 133 65 q 258 271 217 181 q 308 361 299 361 q 317 350 317 361 q 276 226 317 311 q 92 -7 167 -7 m 263 613 q 263 609 263 613 q 246 594 263 606 q 221 583 229 583 q 100 682 149 583 q 40 622 83 646 q -23 599 -3 599 q -44 611 -43 599 q -33 622 -44 617 q -9 635 -21 628 q 18 658 3 643 q 42 680 33 672 q 56 702 50 688 q 63 719 61 717 q 69 758 69 738 q 95 784 71 769 q 131 799 119 799 q 151 772 147 799 q 160 726 156 744 q 183 681 165 708 q 240 629 206 644 q 263 613 263 619 z "},"":{"ha":243,"x_min":-44,"x_max":317,"o":"m 92 -7 q 10 15 38 -7 q 0 85 0 25 q 9 284 0 144 q 25 435 18 424 q 68 476 32 446 q 124 507 104 507 q 144 454 144 507 q 137 401 144 442 q 119 342 129 361 q 101 101 101 303 q 110 64 101 64 q 175 123 133 65 q 258 271 217 181 q 308 361 299 361 q 317 350 317 361 q 276 226 317 311 q 92 -7 167 -7 m 11 622 q -26 635 -7 622 q -44 675 -44 647 q -19 719 -44 703 q 29 736 7 736 q 67 724 51 736 q 82 693 82 711 q 11 622 82 622 m 199 622 q 160 635 179 622 q 142 675 142 647 q 168 719 142 703 q 217 736 194 736 q 253 724 239 736 q 268 693 268 711 q 199 622 268 622 z "},"":{"ha":497,"x_min":0,"x_max":531,"o":"m 383 696 q 429 732 419 719 q 467 753 446 753 q 509 745 488 753 q 531 721 531 738 q 413 628 531 674 q 449 413 449 524 q 288 19 449 106 q 169 -7 236 -7 q 51 51 103 -7 q 0 219 0 110 q 64 410 0 328 q 215 493 128 493 q 347 438 301 493 q 326 606 344 525 q 257 600 294 600 q 163 624 163 600 q 209 643 163 643 q 310 661 256 643 q 204 772 272 772 q 173 760 194 772 q 132 747 151 747 q 98 757 113 747 q 83 788 83 767 q 117 821 83 808 q 178 833 150 833 q 383 696 310 833 m 222 443 q 140 385 172 443 q 108 235 108 326 q 197 49 108 49 q 263 76 235 49 q 308 150 292 104 q 346 343 336 228 q 222 443 307 443 z "},"":{"ha":515,"x_min":-7,"x_max":590,"o":"m 108 75 l 110 32 q 88 -7 110 -7 q 24 2 54 -7 q -7 27 -7 11 q 1 137 -7 43 q 8 278 8 231 l 8 360 q 22 440 8 426 q 72 481 36 454 q 123 507 107 507 q 143 501 139 507 q 147 481 147 496 q 119 342 147 407 q 113 232 113 263 q 171 326 118 240 q 260 453 224 413 q 326 493 297 493 q 378 474 356 493 q 401 425 401 454 q 388 245 401 364 q 375 95 375 126 q 383 64 375 64 q 449 123 407 65 q 531 271 490 181 q 581 361 572 361 q 590 350 590 361 q 550 226 590 311 q 365 -7 440 -7 q 283 15 311 -7 q 274 66 274 25 q 281 199 274 107 q 289 338 289 292 q 273 383 289 383 q 189 288 257 383 q 117 167 121 193 q 108 75 108 118 m 164 771 q 178 771 164 771 q 263 742 193 771 q 348 714 333 714 q 378 737 363 714 q 401 760 393 760 q 419 730 419 760 q 388 667 419 700 q 319 633 356 633 q 233 663 283 633 q 157 693 183 693 q 138 674 147 693 q 118 654 129 654 q 94 682 94 654 q 115 740 94 710 q 164 771 135 771 z "},"":{"ha":506,"x_min":0,"x_max":583,"o":"m 435 301 q 512 333 490 319 q 544 353 533 346 l 561 363 q 572 367 568 367 q 583 354 583 367 q 540 310 583 342 q 433 254 497 279 q 360 65 424 138 q 178 -7 296 -7 q 46 62 92 -7 q 0 223 0 131 q 55 397 0 315 q 196 479 110 479 q 288 507 235 507 q 388 450 342 507 q 435 301 433 393 m 344 231 l 294 228 q 186 266 231 228 q 142 350 142 304 q 157 429 142 396 q 97 243 97 382 q 125 116 97 176 q 213 56 153 56 q 306 106 272 56 q 344 231 339 157 m 258 461 q 224 441 236 461 q 211 397 211 421 q 247 314 211 346 q 329 282 282 282 l 346 282 q 323 406 343 350 q 258 461 303 461 m 229 762 q 234 754 229 762 q 249 721 239 746 q 265 688 260 696 q 276 673 271 679 q 285 663 281 667 q 296 653 289 658 q 307 646 303 649 q 320 638 311 643 q 333 632 329 633 q 347 625 336 631 l 361 618 q 379 594 379 608 q 355 574 379 574 q 292 587 331 574 q 224 619 253 600 q 154 719 154 667 q 176 756 154 735 q 209 778 199 778 q 229 762 219 778 z "},"":{"ha":506,"x_min":0,"x_max":583,"o":"m 435 301 q 512 333 490 319 q 544 353 533 346 l 561 363 q 572 367 568 367 q 583 354 583 367 q 540 310 583 342 q 433 254 497 279 q 360 65 424 138 q 178 -7 296 -7 q 46 62 92 -7 q 0 223 0 131 q 55 397 0 315 q 196 479 110 479 q 288 507 235 507 q 388 450 342 507 q 435 301 433 393 m 344 231 l 294 228 q 186 266 231 228 q 142 350 142 304 q 157 429 142 396 q 97 243 97 382 q 125 116 97 176 q 213 56 153 56 q 306 106 272 56 q 344 231 339 157 m 258 461 q 224 441 236 461 q 211 397 211 421 q 247 314 211 346 q 329 282 282 282 l 346 282 q 323 406 343 350 q 258 461 303 461 m 278 707 q 271 728 278 718 q 264 746 264 739 q 288 765 264 753 q 328 778 313 778 q 358 761 343 778 q 372 714 372 744 q 313 622 372 667 q 248 586 285 601 q 194 571 211 571 q 176 583 176 571 q 196 601 176 590 q 278 707 276 640 z "},"":{"ha":506,"x_min":0,"x_max":583,"o":"m 435 301 q 512 333 490 319 q 544 353 533 346 l 561 363 q 572 367 568 367 q 583 354 583 367 q 540 310 583 342 q 433 254 497 279 q 360 65 424 138 q 178 -7 296 -7 q 46 62 92 -7 q 0 223 0 131 q 55 397 0 315 q 196 479 110 479 q 288 507 235 507 q 388 450 342 507 q 435 301 433 393 m 344 231 l 294 228 q 186 266 231 228 q 142 350 142 304 q 157 429 142 396 q 97 243 97 382 q 125 116 97 176 q 213 56 153 56 q 306 106 272 56 q 344 231 339 157 m 258 461 q 224 441 236 461 q 211 397 211 421 q 247 314 211 346 q 329 282 282 282 l 346 282 q 323 406 343 350 q 258 461 303 461 m 419 613 q 419 609 419 613 q 403 594 419 606 q 378 583 386 583 q 257 682 306 583 q 197 622 240 646 q 134 599 154 599 q 113 611 114 599 q 124 622 113 617 q 148 635 136 628 q 175 658 160 643 q 199 680 190 672 q 213 702 207 688 q 219 719 218 717 q 226 758 226 738 q 252 784 228 769 q 288 799 276 799 q 308 772 304 799 q 317 726 313 744 q 339 681 322 708 q 397 629 363 644 q 419 613 419 619 z "},"":{"ha":506,"x_min":0,"x_max":583,"o":"m 435 301 q 512 333 490 319 q 544 353 533 346 l 561 363 q 572 367 568 367 q 583 354 583 367 q 540 310 583 342 q 433 254 497 279 q 360 65 424 138 q 178 -7 296 -7 q 46 62 92 -7 q 0 223 0 131 q 55 397 0 315 q 196 479 110 479 q 288 507 235 507 q 388 450 342 507 q 435 301 433 393 m 344 231 l 294 228 q 186 266 231 228 q 142 350 142 304 q 157 429 142 396 q 97 243 97 382 q 125 116 97 176 q 213 56 153 56 q 306 106 272 56 q 344 231 339 157 m 258 461 q 224 441 236 461 q 211 397 211 421 q 247 314 211 346 q 329 282 282 282 l 346 282 q 323 406 343 350 q 258 461 303 461 m 158 764 q 173 764 158 764 q 258 735 188 764 q 342 707 328 707 q 372 730 357 707 q 396 753 388 753 q 414 723 414 753 q 382 660 414 693 q 314 626 350 626 q 228 656 278 626 q 151 686 178 686 q 133 667 142 686 q 113 647 124 647 q 89 675 89 647 q 109 733 89 703 q 158 764 129 764 z "},"":{"ha":506,"x_min":0,"x_max":583,"o":"m 435 301 q 512 333 490 319 q 544 353 533 346 l 561 363 q 572 367 568 367 q 583 354 583 367 q 540 310 583 342 q 433 254 497 279 q 360 65 424 138 q 178 -7 296 -7 q 46 62 92 -7 q 0 223 0 131 q 55 397 0 315 q 196 479 110 479 q 288 507 235 507 q 388 450 342 507 q 435 301 433 393 m 344 231 l 294 228 q 186 266 231 228 q 142 350 142 304 q 157 429 142 396 q 97 243 97 382 q 125 116 97 176 q 213 56 153 56 q 306 106 272 56 q 344 231 339 157 m 258 461 q 224 441 236 461 q 211 397 211 421 q 247 314 211 346 q 329 282 282 282 l 346 282 q 323 406 343 350 q 258 461 303 461 m 158 622 q 122 635 140 622 q 103 675 103 647 q 128 719 103 703 q 176 736 154 736 q 214 724 199 736 q 229 693 229 711 q 158 622 229 622 m 360 622 q 322 635 340 622 q 303 675 303 647 q 329 719 303 703 q 378 736 356 736 q 415 724 400 736 q 429 693 429 711 q 360 622 429 622 z "},"":{"ha":533,"x_min":39,"x_max":503,"o":"m 242 121 q 201 134 221 121 q 182 178 182 147 q 210 226 182 208 q 261 243 238 243 q 301 230 285 243 q 317 197 317 217 q 242 121 317 121 m 263 428 q 222 441 242 428 q 203 485 203 454 q 231 533 203 515 q 282 550 258 550 q 322 537 306 550 q 338 504 338 524 q 263 428 338 428 m 100 381 q 109 378 100 381 q 169 372 118 376 q 313 368 219 368 q 442 383 406 368 q 490 399 478 399 q 503 378 503 399 q 483 326 503 358 q 444 294 464 294 q 293 301 361 294 q 181 307 225 307 q 103 303 136 307 q 68 299 69 299 q 39 326 39 299 q 53 365 39 344 q 81 385 67 385 q 100 381 82 385 z "},"":{"ha":506,"x_min":0,"x_max":443,"o":"m 113 4 q 30 84 60 28 q 0 200 0 140 q 14 309 0 260 q 56 404 28 358 q 133 478 83 450 q 246 507 182 507 l 264 506 q 321 585 283 585 q 331 572 331 585 q 315 500 331 558 q 406 438 368 490 q 443 322 443 385 q 378 100 443 193 q 199 -4 313 7 q 121 -86 167 -86 q 88 -54 88 -86 q 113 4 88 -33 m 156 67 q 257 458 189 151 q 235 461 249 461 q 136 386 174 461 q 99 247 99 311 q 114 133 99 183 q 156 67 129 83 m 207 51 q 311 128 274 53 q 349 268 349 204 q 297 446 349 419 q 207 51 238 174 z "},"":{"ha":507,"x_min":0,"x_max":592,"o":"m 0 121 l 8 276 q 22 439 8 425 q 72 480 36 453 q 123 507 107 507 q 143 501 139 507 q 147 479 147 496 q 121 358 147 419 q 100 149 100 231 q 126 67 100 67 q 201 122 158 67 q 288 288 244 178 q 308 438 300 426 q 346 478 315 449 q 397 507 376 507 q 417 454 417 507 q 409 400 417 440 q 392 342 401 360 q 376 101 376 303 q 385 64 376 64 q 450 123 408 65 q 533 271 492 181 q 583 361 574 361 q 592 350 592 361 q 551 226 592 311 q 367 -7 442 -7 q 285 15 313 -7 q 275 75 275 25 q 279 186 275 125 q 190 42 235 92 q 91 -7 146 -7 q 18 22 36 -7 q 0 121 0 51 m 219 763 q 224 755 219 763 q 240 722 229 747 q 256 689 250 697 q 266 674 261 681 q 275 664 271 668 q 286 655 279 660 q 297 647 293 650 q 310 640 301 644 q 323 633 319 635 q 338 626 326 632 l 351 619 q 369 596 369 611 q 345 575 369 575 q 282 588 321 575 q 214 621 243 601 q 144 721 144 668 q 167 758 144 736 q 199 779 189 779 q 219 763 210 779 z "},"":{"ha":507,"x_min":0,"x_max":592,"o":"m 0 121 l 8 276 q 22 439 8 425 q 72 480 36 453 q 123 507 107 507 q 143 501 139 507 q 147 479 147 496 q 121 358 147 419 q 100 149 100 231 q 126 67 100 67 q 201 122 158 67 q 288 288 244 178 q 308 438 300 426 q 346 478 315 449 q 397 507 376 507 q 417 454 417 507 q 409 400 417 440 q 392 342 401 360 q 376 101 376 303 q 385 64 376 64 q 450 123 408 65 q 533 271 492 181 q 583 361 574 361 q 592 350 592 361 q 551 226 592 311 q 367 -7 442 -7 q 285 15 313 -7 q 275 75 275 25 q 279 186 275 125 q 190 42 235 92 q 91 -7 146 -7 q 18 22 36 -7 q 0 121 0 51 m 264 707 q 257 728 264 718 q 250 746 250 739 q 274 765 250 753 q 314 778 299 778 q 344 761 329 778 q 358 714 358 744 q 299 622 358 667 q 234 586 271 601 q 180 571 197 571 q 163 583 163 571 q 182 601 163 590 q 264 707 263 640 z "},"":{"ha":507,"x_min":0,"x_max":592,"o":"m 0 121 l 8 276 q 22 439 8 425 q 72 480 36 453 q 123 507 107 507 q 143 501 139 507 q 147 479 147 496 q 121 358 147 419 q 100 149 100 231 q 126 67 100 67 q 201 122 158 67 q 288 288 244 178 q 308 438 300 426 q 346 478 315 449 q 397 507 376 507 q 417 454 417 507 q 409 400 417 440 q 392 342 401 360 q 376 101 376 303 q 385 64 376 64 q 450 123 408 65 q 533 271 492 181 q 583 361 574 361 q 592 350 592 361 q 551 226 592 311 q 367 -7 442 -7 q 285 15 313 -7 q 275 75 275 25 q 279 186 275 125 q 190 42 235 92 q 91 -7 146 -7 q 18 22 36 -7 q 0 121 0 51 m 414 613 q 414 609 414 613 q 397 594 414 606 q 372 583 381 583 q 251 682 300 583 q 192 622 235 646 q 128 599 149 599 q 107 611 108 599 q 119 622 107 617 q 142 635 131 628 q 169 658 154 643 q 193 680 185 672 q 207 702 201 688 q 214 719 213 717 q 221 758 221 738 q 247 784 222 769 q 282 799 271 799 q 303 772 299 799 q 312 726 307 744 q 333 681 317 708 q 392 629 357 644 q 414 613 414 619 z "},"":{"ha":507,"x_min":0,"x_max":592,"o":"m 0 121 l 8 276 q 22 439 8 425 q 72 480 36 453 q 123 507 107 507 q 143 501 139 507 q 147 479 147 496 q 121 358 147 419 q 100 149 100 231 q 126 67 100 67 q 201 122 158 67 q 288 288 244 178 q 308 438 300 426 q 346 478 315 449 q 397 507 376 507 q 417 454 417 507 q 409 400 417 440 q 392 342 401 360 q 376 101 376 303 q 385 64 376 64 q 450 123 408 65 q 533 271 492 181 q 583 361 574 361 q 592 350 592 361 q 551 226 592 311 q 367 -7 442 -7 q 285 15 313 -7 q 275 75 275 25 q 279 186 275 125 q 190 42 235 92 q 91 -7 146 -7 q 18 22 36 -7 q 0 121 0 51 m 139 622 q 102 635 121 622 q 83 675 83 647 q 109 719 83 703 q 157 736 135 736 q 194 724 179 736 q 210 693 210 711 q 139 622 210 622 m 340 622 q 302 635 321 622 q 283 675 283 647 q 310 719 283 703 q 358 736 336 736 q 395 724 381 736 q 410 693 410 711 q 340 622 410 622 z "},"":{"ha":486,"x_min":0,"x_max":544,"o":"m 0 121 l 8 276 q 22 439 8 425 q 72 480 36 453 q 123 507 107 507 q 143 501 139 507 q 147 479 147 496 q 121 358 147 419 q 100 149 100 231 q 119 67 100 67 q 197 126 153 67 q 286 300 240 185 q 289 365 288 331 q 292 415 290 399 q 294 438 293 431 q 332 476 294 444 q 390 507 369 507 q 410 454 410 507 q 402 400 410 440 q 385 342 394 360 q 369 169 374 243 q 515 351 506 342 q 531 361 524 361 q 544 347 544 361 q 539 329 544 339 q 364 100 494 264 q 353 -125 356 -65 q 303 -373 346 -301 q 153 -444 261 -444 q 65 -416 106 -444 q 24 -317 24 -387 q 77 -174 24 -247 q 272 53 131 -100 l 281 204 q 188 47 233 100 q 86 -7 142 -7 q 15 21 31 -7 q 0 121 0 49 m 268 -12 q 110 -286 110 -183 q 126 -364 110 -333 q 172 -394 143 -394 q 235 -346 217 -394 q 261 -149 253 -297 l 268 -12 m 265 707 q 258 728 265 718 q 251 746 251 739 q 276 765 251 753 q 315 778 300 778 q 345 761 331 778 q 360 714 360 744 q 300 622 360 667 q 235 586 272 601 q 181 571 199 571 q 164 583 164 571 q 183 601 164 590 q 265 707 264 640 z "},"":{"ha":489,"x_min":-29,"x_max":451,"o":"m 29 -8 q 43 370 35 96 q 58 698 51 644 q 92 792 64 751 q 143 833 121 833 q 181 827 165 833 q 196 810 196 821 q 179 778 196 800 q 151 713 163 756 q 124 257 139 669 q 207 434 167 375 q 306 493 247 493 q 408 441 365 493 q 451 277 451 389 q 388 79 451 165 q 222 -7 325 -7 q 118 31 174 -7 q 86 -369 113 -260 q 50 -412 83 -382 q -3 -443 17 -443 q -29 -346 -29 -443 q 29 -8 -29 -249 m 231 43 q 314 99 271 43 q 357 238 357 156 q 334 370 357 321 q 272 419 311 419 q 119 142 206 419 l 119 81 q 231 43 158 43 z "},"":{"ha":486,"x_min":0,"x_max":544,"o":"m 0 121 l 8 276 q 22 439 8 425 q 72 480 36 453 q 123 507 107 507 q 143 501 139 507 q 147 479 147 496 q 121 358 147 419 q 100 149 100 231 q 119 67 100 67 q 197 126 153 67 q 286 300 240 185 q 289 365 288 331 q 292 415 290 399 q 294 438 293 431 q 332 476 294 444 q 390 507 369 507 q 410 454 410 507 q 402 400 410 440 q 385 342 394 360 q 369 169 374 243 q 515 351 506 342 q 531 361 524 361 q 544 347 544 361 q 539 329 544 339 q 364 100 494 264 q 353 -125 356 -65 q 303 -373 346 -301 q 153 -444 261 -444 q 65 -416 106 -444 q 24 -317 24 -387 q 77 -174 24 -247 q 272 53 131 -100 l 281 204 q 188 47 233 100 q 86 -7 142 -7 q 15 21 31 -7 q 0 121 0 49 m 268 -12 q 110 -286 110 -183 q 126 -364 110 -333 q 172 -394 143 -394 q 235 -346 217 -394 q 261 -149 253 -297 l 268 -12 m 136 622 q 99 635 118 622 q 81 675 81 647 q 106 719 81 703 q 154 736 132 736 q 192 724 176 736 q 207 693 207 711 q 136 622 207 622 m 338 622 q 299 635 318 622 q 281 675 281 647 q 307 719 281 703 q 356 736 333 736 q 392 724 378 736 q 407 693 407 711 q 338 622 407 622 z "},"":{"ha":696,"x_min":13,"x_max":760,"o":"m 221 322 q 428 324 383 322 q 425 401 426 346 q 422 498 424 457 q 419 583 421 539 q 403 679 414 679 q 321 550 388 679 q 221 322 254 421 m 581 21 q 514 -124 514 -43 q 526 -160 514 -147 q 555 -174 538 -174 q 591 -155 572 -174 q 613 -136 610 -136 q 622 -160 622 -136 q 589 -212 622 -183 q 522 -240 556 -240 q 465 -219 489 -240 q 442 -162 442 -199 q 507 -6 442 -86 q 442 15 456 1 q 428 279 428 28 l 200 263 q 153 118 174 190 q 125 29 132 46 q 51 -7 110 -7 q 13 26 13 -7 q 65 124 13 60 q 129 258 75 136 q 92 257 110 257 q 43 299 43 257 q 82 336 43 336 q 161 329 85 336 q 319 642 224 478 q 456 806 415 806 q 498 690 483 806 q 526 329 513 575 q 549 315 549 329 q 528 292 549 301 q 551 64 536 64 q 618 122 576 64 q 701 270 660 179 q 751 361 742 361 q 760 350 760 361 q 719 226 760 311 q 581 21 654 86 z "},"":{"ha":532,"x_min":0,"x_max":615,"o":"m 301 171 q 230 37 265 81 q 139 -7 194 -7 q 42 45 83 -7 q 0 209 0 97 q 63 407 0 321 q 229 493 126 493 q 329 435 274 493 q 369 472 340 450 q 417 493 397 493 q 438 440 438 493 q 430 386 438 426 q 413 328 422 346 q 400 101 400 296 q 408 64 400 64 q 474 123 432 65 q 556 271 515 181 q 606 361 597 361 q 615 350 615 361 q 567 208 615 311 q 450 22 518 104 q 382 -124 382 -60 q 394 -160 382 -147 q 423 -174 406 -174 q 459 -155 440 -174 q 481 -136 478 -136 q 490 -160 490 -136 q 457 -212 490 -183 q 390 -240 424 -240 q 333 -219 357 -240 q 310 -162 310 -199 q 374 -6 310 -90 q 312 12 325 -1 q 299 93 299 25 q 301 171 299 104 m 221 438 q 138 380 182 438 q 94 244 94 322 q 117 117 94 167 q 178 67 140 67 q 313 296 224 67 q 316 334 314 307 q 319 375 318 361 q 276 417 307 397 q 221 438 244 438 z "},"":{"ha":572,"x_min":0,"x_max":660,"o":"m 329 63 q 569 229 454 63 q 597 278 579 243 q 651 357 642 357 q 660 346 660 357 q 589 174 660 278 q 249 -14 461 -14 q 139 14 189 -14 q 60 85 89 42 q 0 268 0 172 q 126 658 0 510 q 424 806 251 806 q 531 767 489 806 q 572 671 572 729 q 543 563 572 613 q 473 513 514 513 q 432 535 432 513 q 459 592 432 560 q 486 656 486 624 q 381 754 486 754 q 192 614 276 754 q 107 325 107 474 q 165 142 107 222 q 329 63 224 63 m 426 999 q 419 1020 426 1010 q 413 1038 413 1031 q 437 1057 413 1044 q 476 1069 461 1069 q 506 1053 492 1069 q 521 1006 521 1036 q 461 914 521 958 q 397 878 433 893 q 342 863 360 863 q 325 875 325 863 q 344 893 325 882 q 426 999 425 932 z "},"":{"ha":397,"x_min":0,"x_max":475,"o":"m 249 338 l 260 408 q 250 436 260 424 q 225 449 240 449 q 136 372 174 449 q 99 224 99 294 q 128 109 99 153 q 199 65 157 65 q 275 85 242 65 q 336 140 308 104 q 436 314 394 217 q 453 350 447 339 q 467 361 460 361 q 475 350 475 361 q 443 240 475 304 q 390 142 411 176 q 335 71 368 108 q 161 -7 265 -7 q 41 49 82 -7 q 0 169 0 106 q 69 410 0 328 q 243 493 138 493 q 313 470 288 493 q 339 418 339 447 q 319 338 339 364 q 272 311 300 311 q 249 338 249 311 m 272 707 q 265 728 272 718 q 258 746 258 739 q 283 765 258 753 q 322 778 307 778 q 352 761 338 778 q 367 714 367 744 q 307 622 367 667 q 242 586 279 601 q 188 571 206 571 q 171 583 171 571 q 190 601 171 590 q 272 707 271 640 z "},"":{"ha":614,"x_min":31,"x_max":693,"o":"m 399 438 q 376 466 399 454 q 325 478 354 478 q 268 464 296 478 q 372 421 315 421 q 392 427 385 421 q 399 438 399 433 m 464 669 l 467 707 q 444 765 467 738 q 382 792 421 792 q 261 732 315 792 q 207 605 207 672 q 242 492 207 538 q 353 518 301 518 q 435 501 404 518 q 467 448 467 483 q 434 394 467 413 q 358 375 401 375 q 215 424 288 375 q 162 342 182 389 q 142 254 142 294 q 194 104 142 172 q 335 36 247 36 q 633 278 518 36 q 683 357 672 357 q 693 346 693 357 q 622 174 693 290 q 493 39 572 93 q 415 -124 415 -35 q 427 -160 415 -147 q 456 -174 439 -174 q 492 -155 474 -174 q 514 -136 511 -136 q 524 -160 524 -136 q 490 -212 524 -183 q 424 -240 457 -240 q 367 -219 390 -240 q 343 -162 343 -199 q 410 -3 343 -87 q 289 -21 356 -21 q 97 47 164 -21 q 31 217 31 115 q 70 345 31 283 q 172 451 110 407 q 107 582 107 506 q 189 760 107 688 q 388 833 271 833 q 516 794 464 833 q 568 700 568 754 q 550 650 568 669 q 504 631 532 631 q 464 669 464 631 z "},"":{"ha":407,"x_min":0,"x_max":481,"o":"m 481 350 q 430 203 481 304 q 301 35 379 103 q 222 -124 222 -33 q 235 -159 222 -144 q 264 -174 247 -174 q 299 -155 281 -174 q 321 -136 318 -136 q 331 -160 331 -136 q 297 -212 331 -183 q 231 -240 264 -240 q 174 -219 197 -240 q 150 -162 150 -199 q 218 -1 150 -85 q 169 -7 197 -7 q 46 52 92 -7 q 0 186 0 111 q 64 415 0 338 q 229 493 128 493 q 307 467 276 493 q 338 397 338 442 q 267 258 338 314 q 96 199 197 201 q 133 105 101 144 q 206 65 164 65 q 281 85 247 65 q 342 140 314 104 q 442 314 400 217 q 459 350 453 339 q 473 361 465 361 q 481 350 481 361 m 142 244 q 254 392 254 279 q 214 449 249 449 q 132 381 165 449 q 96 232 99 314 q 142 244 101 232 z "},"":{"ha":0,"x_min":0,"x_max":0,"o":""},"":{"ha":596,"x_min":38,"x_max":610,"o":"m 515 697 l 521 439 q 201 -28 521 -28 q 88 1 139 -28 q 38 92 38 31 q 57 153 38 129 q 109 178 76 178 q 142 163 142 178 q 133 135 142 156 q 125 95 125 115 q 149 52 125 75 q 219 29 172 29 q 301 49 267 29 q 357 106 336 68 q 391 185 378 144 q 410 286 404 225 q 418 491 418 376 q 421 681 418 606 q 243 528 243 650 q 228 474 243 493 q 192 454 214 454 q 150 501 150 454 q 224 643 150 586 q 426 728 299 700 q 474 820 436 785 q 542 856 511 856 q 591 838 572 856 q 610 792 610 821 q 515 697 610 724 m 553 808 q 517 746 522 808 q 567 786 567 761 q 553 808 567 808 m 322 1035 q 337 1035 322 1035 q 422 1006 351 1035 q 506 978 492 978 q 536 1001 521 978 q 560 1024 551 1024 q 578 994 578 1024 q 546 931 578 964 q 478 897 514 897 q 392 927 442 897 q 315 957 342 957 q 297 938 306 957 q 276 918 288 918 q 253 946 253 918 q 273 1004 253 974 q 322 1035 293 1035 z "},"":{"ha":243,"x_min":-42,"x_max":317,"o":"m 92 -7 q 10 15 38 -7 q 0 85 0 25 q 9 284 0 144 q 25 435 18 424 q 68 476 32 446 q 124 507 104 507 q 144 454 144 507 q 137 401 144 442 q 119 342 129 361 q 101 101 101 303 q 110 64 101 64 q 175 123 133 65 q 258 271 217 181 q 308 361 299 361 q 317 350 317 361 q 276 226 317 311 q 92 -7 167 -7 m 28 771 q 42 771 28 771 q 127 742 57 771 q 212 714 197 714 q 242 737 226 714 q 265 760 257 760 q 283 730 283 760 q 251 667 283 700 q 183 633 219 633 q 97 663 147 633 q 21 693 47 693 q 2 674 11 693 q -18 654 -7 654 q -42 682 -42 654 q -22 740 -42 710 q 28 771 -1 771 z "},"":{"ha":243,"x_min":0,"x_max":317,"o":"m 92 -7 q 10 15 38 -7 q 0 85 0 25 q 9 284 0 144 q 25 435 18 424 q 68 476 32 446 q 124 507 104 507 q 144 454 144 507 q 137 401 144 442 q 119 342 129 361 q 101 101 101 303 q 110 64 101 64 q 175 123 133 65 q 258 271 217 181 q 308 361 299 361 q 317 350 317 361 q 276 226 317 311 q 92 -7 167 -7 z "},"":{"ha":846,"x_min":0,"x_max":846,"o":"m 228 240 q 249 464 228 281 q 271 681 269 647 q 93 528 93 650 q 78 474 93 493 q 42 454 64 454 q 0 501 0 454 q 74 643 0 586 q 276 728 149 700 q 324 820 286 785 q 392 856 361 856 q 441 838 422 856 q 460 792 460 821 q 358 694 460 722 q 324 297 324 407 q 349 128 324 188 q 410 69 374 69 q 533 168 463 69 q 639 369 603 267 q 682 760 667 672 q 725 803 685 772 q 787 833 765 833 q 808 768 808 833 q 794 636 808 692 q 747 454 757 493 q 724 139 731 343 q 829 171 785 171 q 846 159 846 171 q 829 140 846 147 q 721 89 772 122 q 678 -333 721 -221 q 497 -444 636 -444 q 344 -315 344 -444 q 419 -119 344 -219 q 618 71 493 -18 q 629 258 622 158 q 505 71 574 149 q 374 -7 436 -7 q 269 56 311 -7 q 228 240 228 119 m 614 13 q 487 -127 535 -46 q 439 -270 439 -208 q 463 -363 439 -332 q 517 -394 486 -394 q 583 -302 560 -394 q 614 13 606 -210 m 403 808 q 367 746 372 808 q 417 786 417 761 q 403 808 417 808 z "},"":{"ha":460,"x_min":-7,"x_max":514,"o":"m 51 679 q 78 722 51 704 q 125 740 104 740 q 163 697 163 740 q 140 623 163 654 q 78 592 118 592 q 51 679 51 592 m 283 679 q 310 722 283 704 q 357 740 336 740 q 394 697 394 740 q 372 623 394 654 q 310 592 350 592 q 283 679 283 592 m 251 258 q 263 435 261 426 q 301 476 264 444 q 359 507 339 507 q 379 447 379 507 q 354 342 379 388 q 339 169 342 236 q 484 351 475 342 q 500 361 493 361 q 514 347 514 361 q 508 329 514 339 q 333 100 464 264 q 322 -125 325 -65 q 273 -373 315 -301 q 122 -444 231 -444 q 34 -416 75 -444 q -7 -327 -7 -387 q 22 -211 -7 -267 q 81 -119 50 -156 q 167 -26 113 -83 q 242 53 222 31 q 244 110 243 72 q 247 165 246 147 q 92 -7 157 -7 q 10 15 38 -7 q 0 85 0 25 q 9 284 0 144 q 25 435 18 424 q 68 476 32 446 q 124 507 104 507 q 144 454 144 507 q 137 400 144 440 q 119 342 129 360 q 101 101 101 296 q 110 64 101 64 q 171 117 132 65 q 251 258 210 169 m 236 -12 q 78 -286 78 -183 q 94 -364 78 -333 q 140 -394 111 -394 q 203 -346 185 -394 q 229 -149 221 -297 l 236 -12 z "},"":{"ha":576,"x_min":0,"x_max":653,"o":"m 108 501 q 182 643 108 586 q 382 728 256 700 q 429 821 390 786 q 499 856 468 856 q 549 838 531 856 q 568 792 568 821 q 472 697 568 724 q 451 299 451 308 q 549 344 493 322 q 629 365 606 365 q 653 356 653 365 q 636 332 653 338 q 450 244 546 303 q 436 -108 439 -50 q 364 -358 426 -272 q 190 -444 301 -444 q 51 -373 103 -444 q 0 -215 0 -301 q 86 16 0 -93 q 349 240 172 125 l 378 679 q 201 528 201 649 q 187 474 201 493 q 150 454 172 454 q 108 501 108 454 m 210 -394 q 321 -185 304 -394 q 335 25 329 -79 q 344 174 342 129 q 253 105 288 133 q 178 33 218 76 q 101 -175 101 -53 q 142 -356 101 -293 q 210 -394 168 -394 m 511 808 q 475 746 481 808 q 525 786 525 761 q 511 808 525 808 m 601 863 q 601 859 601 863 q 585 844 601 856 q 560 833 568 833 q 439 932 488 833 q 379 872 422 896 q 316 849 336 849 q 294 861 296 849 q 306 872 294 867 q 330 885 318 878 q 357 908 342 893 q 381 930 372 922 q 394 952 389 938 q 401 969 400 967 q 408 1008 408 988 q 434 1034 410 1019 q 469 1049 458 1049 q 490 1022 486 1049 q 499 976 494 994 q 522 931 504 958 q 579 879 544 894 q 601 863 601 869 z "},"":{"ha":233,"x_min":-226,"x_max":294,"o":"m 22 53 q 42 431 40 417 q 82 476 44 444 q 140 507 119 507 q 160 447 160 507 q 135 342 160 388 q 119 169 122 236 q 265 351 256 342 q 281 361 274 361 q 294 347 294 361 q 289 329 294 339 q 114 100 244 264 q 103 -125 106 -65 q 53 -373 96 -301 q -97 -444 11 -444 q -185 -416 -144 -444 q -226 -327 -226 -387 q -198 -211 -226 -267 q -138 -119 -169 -156 q -52 -26 -107 -83 q 22 53 3 31 m 18 -12 q -140 -286 -140 -183 q -124 -364 -140 -333 q -78 -394 -107 -394 q -15 -346 -33 -394 q 11 -149 3 -297 l 18 -12 m 283 613 q 283 609 283 613 q 267 594 283 606 q 242 583 250 583 q 121 682 169 583 q 61 622 104 646 q -2 599 18 599 q -24 611 -22 599 q -12 622 -24 617 q 12 635 0 628 q 39 658 24 643 q 63 680 54 672 q 76 702 71 688 q 83 719 82 717 q 90 758 90 738 q 116 784 92 769 q 151 799 140 799 q 172 772 168 799 q 181 726 176 744 q 203 681 186 708 q 261 629 226 644 q 283 613 283 619 z "},"":{"ha":476,"x_min":0,"x_max":496,"o":"m 447 -49 l 485 -44 q 496 -56 496 -44 q 469 -85 496 -75 q 410 -94 443 -94 q 305 -44 347 -94 q 188 140 263 6 q 169 185 169 169 q 228 233 169 206 q 322 356 322 282 q 308 391 322 376 q 269 406 293 406 q 190 327 236 406 q 128 180 144 249 q 113 32 113 111 q 90 -7 113 -7 q 29 2 58 -7 q 0 26 0 11 q 11 158 0 40 q 24 326 22 275 q 57 760 29 610 q 95 803 61 772 q 150 833 129 833 q 170 781 171 833 q 147 558 169 729 q 119 246 125 388 q 199 414 144 335 q 310 493 254 493 q 404 401 404 493 q 368 291 404 340 q 271 211 332 242 q 258 199 258 206 q 263 185 258 192 q 411 -32 350 31 q 447 -49 428 -49 m 113 -167 q 113 -159 113 -167 q 139 -127 113 -151 q 186 -103 165 -103 q 224 -128 207 -103 q 240 -189 240 -154 q 190 -295 240 -224 q 104 -367 139 -367 q 93 -351 93 -367 q 121 -300 93 -336 q 149 -244 149 -264 q 131 -203 149 -224 q 113 -167 113 -182 z "},"":{"ha":476,"x_min":-4,"x_max":496,"o":"m 447 -49 l 485 -44 q 496 -56 496 -44 q 469 -85 496 -75 q 410 -94 443 -94 q 305 -44 347 -94 q 188 140 263 6 q 169 185 169 169 q 228 233 169 206 q 322 356 322 282 q 308 391 322 376 q 269 406 293 406 q 190 327 236 406 q 128 180 144 249 q 113 32 113 111 q 90 -7 113 -7 q 26 2 57 -7 q -4 27 -4 11 q 3 137 -4 43 q 11 278 11 231 l 11 360 q 25 440 11 426 q 74 481 39 454 q 126 507 110 507 q 146 501 142 507 q 150 481 150 496 q 122 342 150 407 q 115 232 115 263 q 198 408 140 322 q 310 493 256 493 q 404 401 404 493 q 368 291 404 340 q 271 211 332 242 q 258 199 258 206 q 263 185 258 192 q 411 -32 350 31 q 447 -49 428 -49 z "},"":{"ha":539,"x_min":19,"x_max":814,"o":"m 279 493 q 370 724 299 643 q 558 806 442 806 q 675 725 675 806 q 649 626 675 671 q 581 550 624 581 q 382 468 496 493 q 300 126 354 229 q 456 33 381 86 q 573 -44 531 -19 q 662 -68 615 -68 q 747 -40 708 -68 q 793 -11 786 -11 q 814 -32 814 -11 q 766 -139 814 -96 q 626 -182 718 -182 q 522 -154 574 -182 q 433 -90 469 -126 q 253 56 321 19 q 111 0 200 0 q 47 26 75 0 q 19 94 19 53 q 121 176 19 176 q 204 161 163 176 l 219 156 q 274 453 244 235 q 233 451 258 451 q 207 460 207 451 q 279 493 207 486 m 386 508 q 533 574 475 528 q 590 696 590 621 q 539 771 590 771 q 386 508 426 771 m 186 85 q 87 119 106 119 q 68 100 68 119 q 85 67 68 81 q 131 53 103 53 q 186 85 158 53 m 569 268 q 529 281 549 268 q 510 325 510 294 q 538 373 510 356 q 589 390 565 390 q 628 377 613 390 q 644 344 644 364 q 569 268 644 268 z "},"":{"ha":365,"x_min":0,"x_max":332,"o":"m 101 -7 q 45 1 71 -7 q 14 15 19 8 q 0 188 0 32 q 35 613 0 344 q 171 833 64 833 q 207 806 196 833 q 218 754 218 779 q 108 350 218 574 q 104 149 104 235 q 119 64 104 64 q 183 120 142 65 q 267 268 224 175 l 256 268 q 215 281 235 268 q 196 325 196 294 q 224 373 196 356 q 275 390 251 390 q 315 376 299 390 q 332 335 332 361 q 311 288 332 308 q 286 226 301 260 q 101 -7 176 -7 m 183 742 q 172 786 183 786 q 111 440 131 786 q 183 742 183 631 z "},"":{"ha":669,"x_min":19,"x_max":676,"o":"m 232 290 l 179 281 q 157 301 157 281 q 181 336 157 322 q 228 350 204 350 q 258 349 253 350 l 274 453 q 233 451 258 451 q 207 460 207 451 q 279 493 207 486 q 370 724 299 643 q 564 806 442 806 q 649 778 622 806 q 675 714 675 751 q 382 468 675 532 q 361 326 372 396 q 449 313 419 313 q 495 322 478 313 q 514 331 513 331 q 528 308 528 331 q 494 265 528 285 q 422 244 461 244 q 346 258 383 244 q 300 126 328 178 q 472 72 428 83 q 566 60 517 60 q 633 100 615 60 q 660 140 651 140 q 676 119 676 140 q 628 8 676 54 q 522 -37 579 -37 q 417 -18 464 -37 q 357 7 369 1 q 306 31 344 13 q 253 56 268 49 q 111 0 200 0 q 47 26 75 0 q 19 89 19 53 q 110 168 19 168 q 218 150 149 168 q 249 289 235 210 l 232 290 m 386 508 q 533 574 475 528 q 590 696 590 621 q 539 771 590 771 q 386 508 426 771 m 186 85 q 87 119 106 119 q 68 100 68 119 q 85 67 68 81 q 131 53 103 53 q 186 85 158 53 z "},"":{"ha":271,"x_min":-147,"x_max":421,"o":"m 138 683 q 156 624 156 683 q 141 394 156 565 q 126 119 126 224 q 143 64 126 64 q 210 122 168 65 q 292 270 251 179 q 342 361 333 361 q 351 350 351 361 q 311 226 351 311 q 126 -7 201 -7 q 37 11 50 -7 q 24 142 24 29 q 68 610 24 347 q 94 660 72 636 q 138 683 117 683 m 249 711 q 219 711 249 711 q 122 728 189 711 q 14 746 56 746 q -63 724 -28 746 q -99 666 -99 703 q -68 629 -99 629 q -24 594 -24 629 q -35 568 -24 579 q -74 557 -46 557 q -124 585 -101 557 q -147 649 -147 614 q -87 774 -147 717 q 58 832 -26 832 q 169 820 92 832 q 283 808 246 808 q 343 816 321 808 q 372 832 365 824 q 385 848 379 840 q 400 856 392 856 q 421 824 421 856 q 365 742 421 774 q 249 711 310 711 z "},"":{"ha":690,"x_min":0,"x_max":806,"o":"m 311 513 q 249 238 289 371 q 163 42 210 104 q 49 -21 115 -21 q 0 17 0 -21 q 21 60 0 47 q 70 78 42 72 q 107 93 99 85 q 202 287 158 147 q 265 571 246 426 q 206 672 206 633 q 228 762 206 711 q 281 813 250 813 q 313 768 299 813 q 326 657 326 724 q 439 499 399 565 q 557 737 482 640 q 729 833 632 833 q 785 808 764 833 q 806 753 806 783 q 794 698 806 722 q 763 674 782 674 q 743 693 743 674 q 731 723 743 713 q 701 733 719 733 q 594 674 644 733 q 476 432 524 589 q 568 113 568 235 q 546 24 568 63 q 481 -14 524 -14 q 389 142 389 -14 q 406 350 389 251 q 311 513 364 439 m 439 258 q 432 156 432 208 q 439 74 432 103 q 454 44 446 44 q 471 101 471 44 q 439 258 471 158 m 474 971 q 467 992 474 982 q 460 1010 460 1003 q 484 1029 460 1017 q 524 1042 508 1042 q 553 1025 539 1042 q 568 978 568 1008 q 508 886 568 931 q 444 850 481 865 q 390 835 407 835 q 372 847 372 835 q 392 865 372 854 q 474 971 472 904 z "},"":{"ha":515,"x_min":-7,"x_max":590,"o":"m 108 75 l 110 32 q 88 -7 110 -7 q 24 2 54 -7 q -7 27 -7 11 q 1 137 -7 43 q 8 278 8 231 l 8 360 q 22 440 8 426 q 72 481 36 454 q 123 507 107 507 q 143 501 139 507 q 147 481 147 496 q 119 342 147 407 q 113 232 113 263 q 171 326 118 240 q 260 453 224 413 q 326 493 297 493 q 378 474 356 493 q 401 425 401 454 q 388 245 401 364 q 375 95 375 126 q 383 64 375 64 q 449 123 407 65 q 531 271 490 181 q 581 361 572 361 q 590 350 590 361 q 550 226 590 311 q 365 -7 440 -7 q 283 15 311 -7 q 274 66 274 25 q 281 199 274 107 q 289 338 289 292 q 273 383 289 383 q 189 288 257 383 q 117 167 121 193 q 108 75 108 118 m 279 713 q 272 734 279 724 q 265 751 265 744 q 290 771 265 758 q 329 783 314 783 q 359 767 344 783 q 374 719 374 750 q 314 628 374 672 q 249 592 286 607 q 195 576 213 576 q 178 589 178 576 q 197 607 178 596 q 279 713 278 646 z "},"":{"ha":1244,"x_min":29,"x_max":1315,"o":"m 956 36 q 1256 278 1140 36 q 1305 357 1294 357 q 1315 346 1315 357 q 1247 178 1315 290 q 1098 22 1178 65 q 909 -21 1018 -21 q 735 31 800 -21 q 656 165 671 83 q 321 -14 540 -14 q 106 76 182 -14 q 29 310 29 165 q 65 490 29 403 q 168 636 101 578 q 227 778 168 722 q 405 833 286 833 q 610 767 524 833 q 728 589 697 701 q 826 797 731 718 q 1038 876 921 876 q 1133 790 1133 876 q 1053 652 1133 722 q 846 539 974 582 q 865 493 851 515 q 976 518 926 518 q 1056 501 1025 518 q 1088 449 1088 483 q 1050 397 1088 415 q 978 378 1013 378 q 833 422 897 378 q 763 257 763 342 q 815 104 763 172 q 956 36 868 36 m 633 399 q 631 464 633 440 q 424 432 510 432 q 276 465 338 432 q 186 560 214 497 q 126 360 126 481 q 197 148 126 239 q 368 57 267 57 q 567 154 501 57 q 633 399 633 251 m 256 622 q 342 536 279 568 q 480 504 404 504 q 625 518 556 504 q 388 781 586 781 q 286 753 328 781 q 243 685 244 726 q 381 717 311 717 q 451 696 451 717 q 442 676 451 683 q 422 669 432 669 q 256 622 329 669 m 838 585 q 1004 676 949 626 q 1060 779 1060 726 q 1018 832 1060 832 q 889 760 940 832 q 838 585 838 688 m 1019 438 q 997 466 1019 454 q 947 478 975 478 q 889 464 919 478 q 993 421 932 421 q 1013 427 1006 421 q 1019 438 1019 433 m 750 497 l 742 494 q 738 404 742 442 q 792 451 761 429 q 750 497 764 475 z "},"":{"ha":715,"x_min":-32,"x_max":804,"o":"m 421 181 q 460 99 431 132 q 531 65 490 65 q 604 85 571 65 q 665 140 638 104 q 767 314 724 217 q 783 350 776 339 q 797 361 789 361 q 804 350 804 361 q 719 142 804 281 q 492 -7 628 -7 q 342 93 389 -7 q 143 -7 269 -7 q 14 56 60 -7 q -32 214 -32 118 q 24 394 -32 310 q 169 479 81 479 q 251 507 206 507 q 333 483 297 507 q 386 415 368 458 q 551 493 447 493 q 629 467 599 493 q 660 397 660 442 q 588 263 660 324 q 421 181 517 201 m 114 360 q 129 428 114 397 q 81 343 96 400 q 67 223 67 286 q 99 108 67 160 q 175 56 131 56 q 297 161 264 56 q 164 210 214 161 q 114 360 114 260 m 308 208 q 315 294 315 243 q 293 403 315 346 q 232 461 271 461 q 197 441 210 461 q 183 397 183 421 q 215 276 183 332 q 308 208 247 219 m 418 221 q 530 285 483 243 q 576 388 576 326 q 536 449 576 449 q 453 377 486 449 q 418 221 419 306 z "},"":{"ha":811,"x_min":0,"x_max":833,"o":"m 765 -60 l 811 -49 q 833 -71 833 -49 q 797 -135 832 -107 q 717 -164 761 -164 q 646 -121 672 -164 q 575 103 608 -58 q 539 231 560 181 q 460 218 501 218 q 387 235 418 218 q 356 278 356 253 q 458 342 358 342 q 563 299 507 342 q 649 481 649 364 q 622 603 649 550 q 553 688 596 657 q 364 747 468 747 q 354 650 361 717 q 338 435 340 511 l 333 215 q 233 -37 333 -37 q 169 17 169 -37 q 188 64 169 31 q 215 141 207 97 q 233 398 224 185 q 260 733 243 611 q 140 669 186 713 q 93 568 93 626 q 78 515 93 535 q 40 494 63 494 q 0 538 0 494 q 78 698 0 635 q 272 789 157 761 q 350 882 300 882 q 369 838 369 882 q 367 803 369 828 q 425 806 382 806 q 522 793 468 806 q 631 751 576 781 q 719 660 686 721 q 753 519 753 600 q 711 369 753 439 q 603 258 669 300 q 677 115 650 200 q 728 -15 704 31 q 765 -60 751 -60 m 413 294 q 413 289 413 294 q 432 275 413 283 q 473 267 451 267 q 513 274 494 267 q 449 306 485 306 q 413 294 413 306 m 528 999 q 521 1020 528 1010 q 514 1038 514 1031 q 538 1057 514 1044 q 578 1069 563 1069 q 608 1053 593 1069 q 622 1006 622 1036 q 563 914 622 958 q 498 878 535 893 q 444 863 461 863 q 426 875 426 863 q 446 893 426 882 q 528 999 526 932 z "},"":{"ha":354,"x_min":0,"x_max":422,"o":"m 121 363 l 197 371 q 217 358 208 371 q 225 332 225 346 q 216 238 225 318 q 207 110 207 157 q 215 64 207 64 q 281 123 239 65 q 363 271 322 181 q 413 361 404 361 q 422 350 422 361 q 382 226 422 311 q 197 -7 272 -7 q 115 15 143 -7 q 106 136 106 25 q 129 326 106 247 q 17 378 49 326 q 0 438 0 404 q 14 496 0 471 q 53 521 28 521 q 101 494 79 521 q 122 433 122 467 q 103 367 122 400 q 121 363 108 363 m 215 707 q 208 728 215 718 q 201 746 201 739 q 226 765 201 753 q 265 778 250 778 q 295 761 281 778 q 310 714 310 744 q 250 622 310 667 q 185 586 222 601 q 131 571 149 571 q 114 583 114 571 q 133 601 114 590 q 215 707 214 640 z "},"":{"ha":811,"x_min":0,"x_max":833,"o":"m 765 -60 l 811 -49 q 833 -71 833 -49 q 797 -135 832 -107 q 717 -164 761 -164 q 646 -121 672 -164 q 575 103 608 -58 q 539 231 560 181 q 460 218 501 218 q 387 235 418 218 q 356 278 356 253 q 458 342 358 342 q 563 299 507 342 q 649 481 649 364 q 622 603 649 550 q 553 688 596 657 q 364 747 468 747 q 354 650 361 717 q 338 435 340 511 l 333 215 q 233 -37 333 -37 q 169 17 169 -37 q 188 64 169 31 q 215 141 207 97 q 233 398 224 185 q 260 733 243 611 q 140 669 186 713 q 93 568 93 626 q 78 515 93 535 q 40 494 63 494 q 0 538 0 494 q 78 698 0 635 q 272 789 157 761 q 350 882 300 882 q 369 838 369 882 q 367 803 369 828 q 425 806 382 806 q 522 793 468 806 q 631 751 576 781 q 719 660 686 721 q 753 519 753 600 q 711 369 753 439 q 603 258 669 300 q 677 115 650 200 q 728 -15 704 31 q 765 -60 751 -60 m 413 294 q 413 289 413 294 q 432 275 413 283 q 473 267 451 267 q 513 274 494 267 q 449 306 485 306 q 413 294 413 306 m 343 -167 q 343 -159 343 -167 q 369 -127 343 -151 q 417 -103 396 -103 q 454 -128 438 -103 q 471 -189 471 -154 q 420 -295 471 -224 q 335 -367 369 -367 q 324 -351 324 -367 q 351 -300 324 -336 q 379 -244 379 -264 q 361 -203 379 -224 q 343 -167 343 -182 z "},"":{"ha":354,"x_min":0,"x_max":422,"o":"m 121 363 l 197 371 q 217 358 208 371 q 225 332 225 346 q 216 238 225 318 q 207 110 207 157 q 215 64 207 64 q 281 123 239 65 q 363 271 322 181 q 413 361 404 361 q 422 350 422 361 q 382 226 422 311 q 197 -7 272 -7 q 115 15 143 -7 q 106 136 106 25 q 129 326 106 247 q 17 378 49 326 q 0 438 0 404 q 14 496 0 471 q 53 521 28 521 q 101 494 79 521 q 122 433 122 467 q 103 367 122 400 q 121 363 108 363 m 86 -167 q 86 -159 86 -167 q 113 -127 86 -151 q 160 -103 139 -103 q 197 -128 181 -103 q 214 -189 214 -154 q 163 -295 214 -224 q 78 -367 113 -367 q 67 -351 67 -367 q 94 -300 67 -336 q 122 -244 122 -264 q 104 -203 122 -224 q 86 -167 86 -182 z "},"":{"ha":811,"x_min":0,"x_max":833,"o":"m 765 -60 l 811 -49 q 833 -71 833 -49 q 797 -135 832 -107 q 717 -164 761 -164 q 646 -121 672 -164 q 575 103 608 -58 q 539 231 560 181 q 460 218 501 218 q 387 235 418 218 q 356 278 356 253 q 458 342 358 342 q 563 299 507 342 q 649 481 649 364 q 622 603 649 550 q 553 688 596 657 q 364 747 468 747 q 354 650 361 717 q 338 435 340 511 l 333 215 q 233 -37 333 -37 q 169 17 169 -37 q 188 64 169 31 q 215 141 207 97 q 233 398 224 185 q 260 733 243 611 q 140 669 186 713 q 93 568 93 626 q 78 515 93 535 q 40 494 63 494 q 0 538 0 494 q 78 698 0 635 q 272 789 157 761 q 350 882 300 882 q 369 838 369 882 q 367 803 369 828 q 425 806 382 806 q 522 793 468 806 q 631 751 576 781 q 719 660 686 721 q 753 519 753 600 q 711 369 753 439 q 603 258 669 300 q 677 115 650 200 q 728 -15 704 31 q 765 -60 751 -60 m 413 294 q 413 289 413 294 q 432 275 413 283 q 473 267 451 267 q 513 274 494 267 q 449 306 485 306 q 413 294 413 306 m 335 1046 q 347 1062 335 1054 q 367 1069 358 1069 q 433 1031 393 1069 q 489 943 472 992 q 547 1024 499 986 q 615 1061 594 1061 q 635 1049 635 1061 q 610 1026 635 1044 q 581 1003 585 1007 q 528 901 542 964 q 501 876 525 890 q 467 861 478 861 q 447 883 450 861 q 408 974 439 928 q 335 1046 378 1019 z "},"":{"ha":354,"x_min":0,"x_max":422,"o":"m 121 363 l 197 371 q 217 358 208 371 q 225 332 225 346 q 216 238 225 318 q 207 110 207 157 q 215 64 207 64 q 281 123 239 65 q 363 271 322 181 q 413 361 404 361 q 422 350 422 361 q 382 226 422 311 q 197 -7 272 -7 q 115 15 143 -7 q 106 136 106 25 q 129 326 106 247 q 17 378 49 326 q 0 438 0 404 q 14 496 0 471 q 53 521 28 521 q 101 494 79 521 q 122 433 122 467 q 103 367 122 400 q 121 363 108 363 m 63 768 q 74 784 63 776 q 94 792 86 792 q 160 753 121 792 q 217 665 200 714 q 274 746 226 708 q 342 783 322 783 q 363 771 363 783 q 338 748 363 767 q 308 725 313 729 q 256 624 269 686 q 229 598 253 613 q 194 583 206 583 q 175 606 178 583 q 136 696 167 650 q 63 768 106 742 z "},"":{"ha":665,"x_min":17,"x_max":586,"o":"m 463 638 l 469 674 q 368 749 464 749 q 272 709 313 749 q 231 626 231 669 q 267 549 231 582 q 356 491 304 517 q 460 435 408 465 q 549 358 513 406 q 586 251 586 311 q 489 57 586 128 q 279 -14 392 -14 q 92 27 167 -14 q 17 151 17 68 q 47 232 17 196 q 135 268 78 268 q 175 256 157 268 q 197 222 193 243 q 172 201 197 201 q 125 161 125 201 q 169 78 126 115 q 288 40 211 40 q 420 93 365 40 q 475 221 475 146 q 438 311 475 271 q 347 380 400 351 q 241 438 294 408 q 150 508 188 467 q 113 603 113 550 q 192 751 113 696 q 374 807 272 807 q 497 779 442 807 q 554 694 553 751 q 538 639 554 661 q 492 617 521 617 q 463 638 464 617 m 399 999 q 392 1020 399 1010 q 385 1038 385 1031 q 409 1057 385 1044 q 449 1069 433 1069 q 478 1053 464 1069 q 493 1006 493 1036 q 433 914 493 958 q 369 878 406 893 q 315 863 332 863 q 297 875 297 863 q 317 893 297 882 q 399 999 397 932 z "},"":{"ha":292,"x_min":0,"x_max":360,"o":"m 206 425 l 208 446 q 180 471 208 471 q 125 434 151 471 q 99 374 99 397 q 101 336 99 350 q 108 313 104 322 q 119 292 111 304 q 132 274 128 279 l 147 254 q 161 236 157 240 q 333 369 233 296 q 346 374 339 374 q 360 358 360 374 q 347 335 360 343 q 179 211 258 278 q 210 114 210 167 q 169 24 210 61 q 67 -14 129 -14 q 4 46 4 -14 q 96 178 4 89 q 71 205 89 186 q 44 235 53 224 q 22 264 35 246 q 0 339 0 299 q 53 472 0 421 q 165 522 106 522 q 224 502 203 522 q 244 461 244 482 q 222 414 244 414 q 206 425 206 414 m 117 151 q 61 62 61 96 q 96 28 61 28 q 131 44 117 28 q 117 151 161 86 m 199 707 q 192 728 199 718 q 185 746 185 739 q 209 765 185 753 q 249 778 233 778 q 278 761 264 778 q 293 714 293 744 q 233 622 293 667 q 169 586 206 601 q 115 571 132 571 q 97 583 97 571 q 117 601 97 590 q 199 707 197 640 z "},"":{"ha":721,"x_min":8,"x_max":721,"o":"m 157 718 q 147 738 157 738 q 97 705 125 738 q 58 604 68 672 q 47 577 57 589 q 25 565 36 565 q 8 593 8 565 q 36 672 8 621 q 109 764 64 722 q 197 806 154 806 q 247 726 247 806 q 229 493 246 646 q 213 264 213 340 q 285 69 213 69 q 408 168 338 69 q 514 369 478 267 q 557 760 542 672 q 600 803 560 772 q 662 833 640 833 q 683 768 683 833 q 669 636 683 692 q 622 454 632 493 q 599 139 606 343 q 704 171 660 171 q 721 159 721 171 q 704 140 721 147 q 596 89 647 122 q 553 -333 596 -221 q 372 -444 511 -444 q 219 -315 219 -444 q 294 -119 219 -219 q 493 71 368 -18 q 504 258 497 158 q 380 71 449 149 q 249 -7 311 -7 q 151 55 188 -7 q 115 222 115 117 q 136 484 115 326 q 157 718 157 642 m 489 13 q 362 -127 410 -46 q 314 -270 314 -208 q 338 -363 314 -332 q 392 -394 361 -394 q 458 -302 435 -394 q 489 13 481 -210 m 307 907 q 270 919 289 907 q 251 960 251 932 q 277 1004 251 988 q 325 1021 303 1021 q 363 1008 347 1021 q 378 978 378 996 q 307 907 378 907 m 508 907 q 470 919 489 907 q 451 960 451 932 q 478 1004 451 988 q 526 1021 504 1021 q 563 1008 549 1021 q 578 978 578 996 q 508 907 578 907 z "},"":{"ha":696,"x_min":40,"x_max":781,"o":"m 639 704 q 617 724 639 724 q 560 692 594 724 q 597 679 583 679 q 639 704 639 679 m 476 999 q 469 1020 476 1010 q 463 1038 463 1031 q 487 1057 463 1044 q 526 1069 511 1069 q 556 1053 542 1069 q 571 1006 571 1036 q 511 914 571 958 q 447 878 483 893 q 392 863 410 863 q 375 875 375 863 q 394 893 375 882 q 476 999 475 932 m 486 -35 q 351 25 464 -35 q 181 85 238 85 q 100 0 138 0 q 40 53 40 0 q 69 115 40 76 q 135 169 97 153 q 469 649 307 464 q 199 750 292 750 q 164 690 164 750 q 172 642 164 674 q 181 606 181 611 q 165 589 181 589 q 131 637 149 589 q 114 736 114 685 q 135 824 114 788 q 190 861 156 861 q 260 853 224 861 q 322 835 296 844 q 384 805 349 825 q 436 775 419 785 q 528 711 497 733 q 642 781 600 781 q 691 763 669 781 q 713 703 713 744 q 681 633 713 663 q 605 604 649 604 q 504 631 561 604 q 215 174 354 450 q 408 124 282 164 q 549 83 533 83 q 719 282 628 83 q 772 361 756 361 q 781 344 781 361 q 733 220 781 326 q 655 63 686 114 q 589 -12 624 11 q 486 -35 554 -35 z "},"":{"ha":450,"x_min":0,"x_max":539,"o":"m 235 311 q 22 364 67 311 q 0 424 0 390 q 20 474 0 457 q 63 492 40 492 q 101 473 86 492 q 117 438 117 454 q 172 402 117 413 q 281 392 228 392 q 357 478 335 468 q 375 481 365 481 q 397 436 397 481 q 378 368 397 392 q 310 324 358 344 q 149 150 228 249 q 258 117 185 142 q 343 93 332 93 q 483 278 400 93 q 530 361 521 361 q 539 340 539 361 q 499 226 539 319 q 296 -14 392 -14 q 207 21 286 -14 q 88 56 128 56 q 21 4 53 4 q 0 42 0 4 q 31 119 0 81 q 99 157 63 157 q 235 311 196 265 m 282 692 q 275 713 282 703 q 268 731 268 724 q 292 750 268 738 q 332 763 317 763 q 362 747 347 763 q 376 699 376 731 q 317 607 376 651 q 252 571 289 586 q 198 556 215 556 q 181 568 181 556 q 200 586 181 575 q 282 692 281 625 z "},"":{"ha":696,"x_min":40,"x_max":783,"o":"m 639 704 q 617 724 639 724 q 560 692 594 724 q 597 679 583 679 q 639 704 639 679 m 444 865 q 408 878 426 865 q 389 918 389 890 q 415 963 389 946 q 463 979 440 979 q 500 967 485 979 q 515 936 515 954 q 444 865 515 865 m 489 -35 q 352 25 467 -35 q 181 85 238 85 q 100 0 138 0 q 40 53 40 0 q 69 115 40 76 q 135 169 97 153 q 469 649 307 464 q 199 750 292 750 q 164 690 164 750 q 172 642 164 674 q 181 606 181 611 q 165 589 181 589 q 131 637 149 589 q 114 736 114 685 q 135 824 114 788 q 190 861 156 861 q 260 853 224 861 q 322 835 296 844 q 384 805 349 825 q 436 775 419 785 q 528 711 497 733 q 642 781 600 781 q 691 763 669 781 q 713 703 713 744 q 681 633 713 663 q 605 604 649 604 q 504 631 561 604 q 215 174 354 450 q 407 124 281 164 q 551 83 533 83 q 722 282 631 83 q 775 361 758 361 q 783 344 783 361 q 736 220 783 326 q 658 63 689 114 q 592 -12 626 11 q 489 -35 557 -35 z "},"":{"ha":472,"x_min":0,"x_max":539,"o":"m 235 311 q 22 364 67 311 q 0 424 0 390 q 20 474 0 457 q 63 492 40 492 q 101 473 86 492 q 117 438 117 454 q 172 402 117 413 q 281 392 228 392 q 357 478 335 468 q 375 481 365 481 q 397 436 397 481 q 378 368 397 392 q 310 324 358 344 q 149 150 228 249 q 258 117 185 142 q 343 93 332 93 q 483 278 400 93 q 530 361 521 361 q 539 340 539 361 q 499 226 539 319 q 296 -14 392 -14 q 207 21 286 -14 q 88 56 128 56 q 21 4 53 4 q 0 42 0 4 q 31 119 0 81 q 99 157 63 157 q 235 311 196 265 m 235 567 q 198 579 217 567 q 179 619 179 592 q 205 664 179 647 q 253 681 231 681 q 290 668 275 681 q 306 638 306 656 q 235 567 306 567 z "},"":{"ha":475,"x_min":83,"x_max":390,"o":"m 390 613 q 390 609 390 613 q 374 594 390 606 q 349 583 357 583 q 228 682 276 583 q 168 622 211 646 q 105 599 125 599 q 83 611 85 599 q 95 622 83 617 q 119 635 107 628 q 146 658 131 643 q 169 680 161 672 q 183 702 178 688 q 190 719 189 717 q 197 758 197 738 q 223 784 199 769 q 258 799 247 799 q 279 772 275 799 q 288 726 283 744 q 311 681 293 708 q 368 629 333 644 q 390 613 390 619 z "},"":{"ha":475,"x_min":83,"x_max":383,"o":"m 83 768 q 95 784 83 776 q 115 792 107 792 q 181 753 142 792 q 238 665 221 714 q 295 746 247 708 q 363 783 343 783 q 383 771 383 783 q 358 748 383 767 q 329 725 333 729 q 276 624 290 686 q 250 598 274 613 q 215 583 226 583 q 196 606 199 583 q 157 696 188 650 q 83 768 126 742 z "},"":{"ha":568,"x_min":204,"x_max":367,"o":"m 204 676 q 204 692 204 676 q 229 738 204 708 q 292 767 254 767 q 348 745 329 767 q 367 690 367 724 q 339 630 367 656 q 274 604 311 604 q 220 624 236 604 q 204 676 204 644 m 326 687 q 326 695 326 687 q 318 714 326 703 q 295 725 310 725 q 269 713 281 725 q 257 683 257 700 q 286 644 257 644 q 315 658 303 644 q 326 687 326 671 z "},"":{"ha":610,"x_min":213,"x_max":393,"o":"m 332 57 l 367 38 q 285 -124 285 -47 q 297 -160 285 -147 q 326 -174 308 -174 q 362 -155 343 -174 q 383 -136 381 -136 q 393 -160 393 -136 q 360 -212 393 -183 q 293 -240 326 -240 q 236 -219 260 -240 q 213 -160 213 -199 q 235 -76 213 -121 q 275 -8 257 -31 q 332 57 293 14 z "},"":{"ha":456,"x_min":58,"x_max":383,"o":"m 128 778 q 142 778 128 778 q 227 749 157 778 q 312 721 297 721 q 342 744 326 721 q 365 767 357 767 q 383 737 383 767 q 351 674 383 707 q 283 640 319 640 q 197 670 247 640 q 121 700 147 700 q 102 681 111 700 q 82 661 93 661 q 58 689 58 661 q 78 747 58 717 q 128 778 99 778 z "},"":{"ha":517,"x_min":-21,"x_max":453,"o":"m 110 288 l 8 282 q -20 312 -21 283 q 8 351 -19 340 q 195 361 28 361 q 394 374 363 361 q 439 386 425 386 q 453 371 453 386 q 335 275 449 275 q 235 281 318 275 q 110 288 153 288 z "},"":{"ha":826,"x_min":15,"x_max":729,"o":"m 146 292 l 44 286 q 16 316 15 288 q 44 356 17 344 q 351 365 64 365 q 670 378 639 365 q 715 390 701 390 q 729 375 729 390 q 611 279 725 279 l 146 292 z "},"":{"ha":276,"x_min":64,"x_max":211,"o":"m 192 606 q 192 598 192 606 q 165 566 192 590 q 118 542 139 542 q 81 567 97 542 q 64 628 64 593 q 115 734 64 663 q 200 806 165 806 q 211 790 211 806 q 183 739 211 775 q 156 683 156 703 q 174 642 156 663 q 192 606 192 621 z "},"":{"ha":194,"x_min":47,"x_max":194,"o":"m 67 742 q 67 749 67 742 q 93 781 67 757 q 140 806 119 806 q 178 780 161 806 q 194 719 194 754 q 144 613 194 685 q 58 542 93 542 q 47 557 47 542 q 75 608 47 572 q 103 665 103 644 q 85 706 103 685 q 67 742 67 726 z "},"":{"ha":179,"x_min":-1,"x_max":146,"o":"m 18 42 q 18 49 18 42 q 44 81 18 57 q 92 106 71 106 q 129 80 113 106 q 146 19 146 54 q 95 -87 146 -15 q 10 -158 44 -158 q -1 -143 -1 -158 q 26 -92 -1 -128 q 54 -35 54 -56 q 36 6 54 -15 q 18 42 18 26 z "},"":{"ha":424,"x_min":64,"x_max":364,"o":"m 192 606 q 192 598 192 606 q 165 566 192 590 q 118 542 139 542 q 81 567 97 542 q 64 628 64 593 q 115 734 64 663 q 200 806 165 806 q 211 790 211 806 q 183 739 211 775 q 156 683 156 703 q 174 642 156 663 q 192 606 192 621 m 344 606 q 344 598 344 606 q 318 566 344 590 q 271 542 292 542 q 233 567 250 542 q 217 628 217 593 q 267 734 217 663 q 353 806 318 806 q 364 790 364 806 q 336 739 364 775 q 308 683 308 703 q 326 642 308 663 q 344 606 344 621 z "},"":{"ha":390,"x_min":49,"x_max":349,"o":"m 221 742 q 221 749 221 742 q 247 781 221 757 q 294 806 274 806 q 332 780 315 806 q 349 719 349 754 q 298 613 349 685 q 213 542 247 542 q 201 557 201 542 q 229 608 201 572 q 257 665 257 644 q 239 706 257 685 q 221 742 221 726 m 68 742 q 68 749 68 742 q 94 781 68 757 q 142 806 121 806 q 179 780 163 806 q 196 719 196 754 q 145 613 196 685 q 60 542 94 542 q 49 557 49 542 q 76 608 49 572 q 104 665 104 644 q 86 706 104 685 q 68 742 68 726 z "},"":{"ha":354,"x_min":54,"x_max":354,"o":"m 74 42 q 74 49 74 42 q 100 81 74 57 q 147 106 126 106 q 185 80 168 106 q 201 19 201 54 q 151 -87 201 -15 q 65 -158 100 -158 q 54 -143 54 -158 q 82 -92 54 -128 q 110 -35 110 -56 q 92 6 110 -15 q 74 42 74 26 m 226 42 q 226 49 226 42 q 253 81 226 57 q 300 106 279 106 q 338 80 321 106 q 354 19 354 54 q 303 -87 354 -15 q 218 -158 253 -158 q 207 -143 207 -158 q 235 -92 207 -128 q 263 -35 263 -56 q 244 6 263 -15 q 226 42 226 26 z "},"":{"ha":510,"x_min":21,"x_max":485,"o":"m 276 554 q 424 569 388 554 q 472 585 460 585 q 485 565 485 585 q 465 513 485 544 q 426 481 446 481 q 275 486 342 481 q 260 192 271 386 q 246 -62 249 -3 q 201 -232 238 -232 q 172 -106 172 -232 q 210 492 172 -75 q 156 493 193 493 q 85 489 118 493 q 50 485 51 485 q 21 513 21 485 q 35 551 21 531 q 57 571 49 571 q 78 567 65 571 q 214 554 119 557 l 226 775 q 258 835 229 835 q 282 792 282 835 q 276 554 282 715 z "},"":{"ha":299,"x_min":22,"x_max":226,"o":"m 124 208 q 103 208 124 208 q 52 228 82 208 q 22 296 22 249 q 61 368 22 343 q 140 393 100 393 q 203 374 179 393 q 226 325 226 354 q 196 238 226 268 q 124 208 165 208 z "},"":{"ha":615,"x_min":24,"x_max":567,"o":"m 83 -25 q 43 -12 63 -25 q 24 32 24 1 q 51 80 24 63 q 103 97 79 97 q 142 84 126 97 q 158 51 158 71 q 83 -25 158 -25 m 288 -25 q 247 -12 267 -25 q 228 32 228 1 q 256 80 228 63 q 307 97 283 97 q 347 84 331 97 q 363 51 363 71 q 288 -25 363 -25 m 492 -25 q 451 -12 471 -25 q 432 32 432 1 q 460 80 432 63 q 511 97 488 97 q 551 84 535 97 q 567 51 567 71 q 492 -25 567 -25 z "},"":{"ha":436,"x_min":58,"x_max":344,"o":"m 294 444 q 300 452 294 444 q 313 467 307 460 q 326 475 319 475 q 338 464 332 475 q 344 439 344 453 q 303 367 344 403 q 150 260 263 331 q 273 165 225 219 q 321 88 321 111 q 308 44 321 65 q 285 22 294 22 q 245 60 276 22 q 172 147 214 99 q 90 214 122 203 q 83 218 85 217 q 77 222 82 219 q 71 226 72 225 q 62 238 63 235 q 60 244 61 240 q 58 257 58 247 q 67 277 58 267 q 88 288 76 288 q 162 331 99 288 q 253 401 225 374 q 294 444 281 428 z "},"":{"ha":417,"x_min":83,"x_max":369,"o":"m 134 45 q 127 37 134 45 q 115 22 121 29 q 102 14 108 14 q 90 25 96 14 q 83 50 83 36 q 124 122 83 86 q 278 229 165 158 q 155 324 203 269 q 107 401 107 378 q 120 445 107 424 q 142 467 133 467 q 183 428 151 467 q 256 342 214 390 q 338 275 306 286 q 344 271 343 272 q 351 267 346 269 q 357 263 356 264 q 366 251 365 254 q 368 245 367 249 q 369 232 369 242 q 360 212 369 222 q 340 201 351 201 q 266 158 329 201 q 175 88 203 115 q 134 45 147 61 z "},"":{"ha":381,"x_min":-31,"x_max":421,"o":"m -31 10 q 22 138 -31 43 q 119 299 75 233 q 356 733 258 506 q 410 778 375 778 q 421 764 421 778 q 390 676 421 750 q 256 401 360 603 q 102 88 151 199 q 6 -22 53 -22 q -18 -14 -6 -22 q -31 10 -31 -6 z "},"":{"ha":635,"x_min":46,"x_max":625,"o":"m 101 468 l 153 460 q 263 649 186 575 q 460 722 339 722 q 568 697 511 722 q 625 633 625 671 q 616 610 625 619 q 589 601 607 601 q 551 622 571 601 q 519 650 531 642 q 450 672 492 672 q 322 610 375 672 q 243 454 268 547 q 344 453 261 453 q 464 464 428 453 q 507 475 500 475 q 522 457 522 475 q 508 415 522 439 q 474 392 494 392 q 327 397 389 392 q 232 401 265 401 q 226 335 226 368 q 228 288 226 301 q 359 279 332 279 q 432 283 386 279 q 459 292 442 286 q 483 297 476 297 q 496 283 496 297 q 442 211 496 211 q 324 220 389 211 q 236 231 258 229 q 305 100 256 147 q 415 53 354 53 q 508 67 475 53 q 572 92 563 92 q 589 84 582 92 q 596 68 596 76 q 525 8 596 32 q 382 -17 454 -17 q 209 51 272 -17 q 131 224 146 118 q 50 239 61 224 q 46 257 46 246 q 128 293 46 289 q 138 399 128 335 q 92 393 93 393 q 61 418 61 393 q 74 451 61 433 q 101 468 86 468 z "},"":{"ha":639,"x_min":33,"x_max":585,"o":"m 503 828 q 522 817 511 828 q 533 794 533 806 q 500 722 533 757 q 492 582 492 672 q 503 492 492 492 q 534 517 514 492 q 563 560 554 543 q 576 578 572 578 q 585 565 585 578 q 551 508 585 553 q 500 463 518 463 q 448 470 456 463 q 440 541 440 478 q 446 671 440 604 q 392 608 419 647 q 404 526 404 564 q 356 463 404 463 q 322 502 322 463 q 350 589 322 542 q 322 651 342 618 q 254 482 294 531 q 207 458 235 458 q 179 475 179 458 q 201 497 179 492 q 225 504 222 501 q 268 581 247 526 q 297 690 289 635 q 274 736 274 721 q 285 763 274 751 q 315 774 296 774 q 331 729 328 774 q 382 636 360 692 q 450 717 421 690 q 503 828 467 828 m 106 775 l 142 786 q 156 772 156 786 q 115 751 156 751 q 54 774 75 751 q 33 827 33 797 q 47 877 33 857 q 81 897 61 897 q 204 868 128 897 q 228 889 211 889 q 242 856 240 889 q 324 843 285 843 q 371 849 363 843 q 384 854 379 854 q 389 844 389 854 q 363 819 389 831 q 303 808 336 808 q 240 813 269 808 l 231 693 q 117 543 218 543 q 72 555 92 543 q 51 587 51 567 q 60 618 51 607 q 83 629 68 629 q 97 621 97 629 l 92 596 q 126 565 92 565 q 196 769 190 565 l 197 819 q 89 840 111 840 q 67 824 67 840 q 80 789 67 803 q 106 775 93 775 m 358 558 q 344 510 344 535 q 351 486 344 486 q 361 511 361 486 q 358 558 361 536 z "},"":{"ha":579,"x_min":42,"x_max":515,"o":"m 172 288 l 71 282 q 42 312 42 283 q 71 351 43 340 q 258 361 90 361 q 456 374 425 361 q 501 386 488 386 q 515 371 515 386 q 397 275 511 275 l 172 288 z "},"":{"ha":629,"x_min":76,"x_max":551,"o":"m 467 192 q 293 211 422 192 q 253 127 268 156 q 215 75 239 99 q 175 51 190 51 q 151 62 160 51 q 143 83 143 72 q 215 217 143 117 q 181 212 203 217 q 129 207 158 207 q 76 244 76 207 q 175 285 76 285 q 258 278 200 285 q 315 403 286 324 q 233 407 278 407 q 154 403 188 407 q 119 399 121 399 q 90 426 90 399 q 103 463 90 444 q 129 482 115 482 q 147 478 131 482 q 336 465 197 465 q 383 590 367 561 q 413 619 400 619 q 426 608 426 619 q 385 465 426 596 q 494 482 463 468 q 539 496 526 496 q 551 476 551 496 q 533 425 551 456 q 496 394 515 394 q 364 399 410 394 q 317 268 328 296 q 367 265 347 265 q 494 294 446 265 q 508 303 503 300 q 520 307 514 307 q 526 285 526 307 q 510 227 526 263 q 467 192 493 192 z "},"":{"ha":635,"x_min":54,"x_max":578,"o":"m 549 631 q 578 607 578 631 q 510 536 578 572 q 374 480 481 519 q 194 407 267 440 q 431 317 313 374 q 550 236 550 261 q 524 190 550 190 q 349 260 503 190 q 128 348 194 329 q 61 393 61 367 q 74 417 61 407 q 114 426 86 426 q 443 572 142 426 q 510 609 475 588 q 549 631 546 631 m 143 272 q 156 265 143 272 q 215 237 169 258 q 335 183 260 215 q 451 149 411 150 q 499 146 490 149 q 508 128 508 143 q 478 90 508 113 q 426 67 449 67 q 356 90 404 67 q 250 144 308 113 q 106 211 165 194 l 72 221 q 54 243 54 229 q 99 286 54 286 q 143 272 117 286 z "},"":{"ha":640,"x_min":60,"x_max":579,"o":"m 89 172 q 60 196 60 172 q 128 267 60 231 q 264 323 157 283 q 443 396 371 363 q 208 481 328 421 q 88 567 88 540 q 117 618 88 618 q 284 542 135 618 q 488 453 433 465 q 561 433 543 440 q 579 414 579 426 q 565 389 579 401 q 521 375 550 376 q 194 231 492 374 q 127 194 163 215 q 89 172 92 172 m 239 165 q 249 169 239 165 q 294 188 258 174 q 355 215 329 203 q 417 249 381 226 q 522 301 504 301 q 544 297 540 301 q 547 277 547 292 q 540 250 547 263 q 525 228 533 238 q 496 208 517 219 q 461 189 475 196 q 378 151 436 178 q 283 103 321 124 q 226 72 244 82 q 168 50 185 50 q 140 83 140 50 q 169 135 140 117 q 199 149 179 140 q 239 165 219 157 z "}}}
